MingSCS-Regular.ufo
<glyph name="uni35E9" format="2">
  <advance width="1000"/>
  <unicode hex="35E9"/>
  <outline>
    <contour>
      <point x="716" y="395" type="curve"/>
      <point x="631" y="414" type="line"/>
      <point x="624.87" y="384.24"/>
      <point x="614.15" y="337.61"/>
      <point x="605.53" y="307" type="curve"/>
      <point x="489" y="307" type="line"/>
      <point x="434" y="333" type="line"/>
      <point x="434" y="-72" type="line"/>
      <point x="440" y="-72" type="line" smooth="yes"/>
      <point x="463" y="-72"/>
      <point x="477" y="-59"/>
      <point x="477" y="-55" type="curve" smooth="yes"/>
      <point x="477" y="-5" type="line"/>
      <point x="846" y="-5" type="line"/>
      <point x="846" y="-61" type="line"/>
      <point x="852" y="-61" type="line" smooth="yes"/>
      <point x="870" y="-61"/>
      <point x="890" y="-49"/>
      <point x="890" y="-45" type="curve" smooth="yes"/>
      <point x="890" y="274" type="line"/>
      <point x="910" y="277"/>
      <point x="920" y="282"/>
      <point x="927" y="290" type="curve"/>
      <point x="867" y="337" type="line"/>
      <point x="843" y="307" type="line"/>
      <point x="632.76" y="307" type="line"/>
      <point x="648.3" y="328.55"/>
      <point x="666.45" y="354.92"/>
      <point x="679" y="375" type="curve"/>
      <point x="700" y="375"/>
      <point x="712" y="382"/>
    </contour>
    <contour>
      <point x="127" y="90" type="curve" smooth="yes"/>
      <point x="127" y="198" type="line"/>
      <point x="272" y="198" type="line"/>
      <point x="272" y="105" type="line"/>
      <point x="278" y="105" type="line" smooth="yes"/>
      <point x="294" y="105"/>
      <point x="315" y="119"/>
      <point x="316" y="125" type="curve"/>
      <point x="316" y="684" type="line"/>
      <point x="336" y="688"/>
      <point x="353" y="695"/>
      <point x="360" y="703" type="curve"/>
      <point x="292" y="756" type="line"/>
      <point x="262" y="723" type="line"/>
      <point x="133" y="723" type="line"/>
      <point x="84" y="749" type="line"/>
      <point x="84" y="72" type="line"/>
      <point x="92" y="72" type="line" smooth="yes"/>
      <point x="113" y="72"/>
      <point x="127" y="84"/>
    </contour>
    <contour>
      <point x="127" y="228" type="line"/>
      <point x="127" y="693" type="line"/>
      <point x="272" y="693" type="line"/>
      <point x="272" y="228" type="line"/>
    </contour>
    <contour>
      <point x="477" y="25" type="line"/>
      <point x="477" y="141" type="line"/>
      <point x="846" y="141" type="line"/>
      <point x="846" y="25" type="line"/>
    </contour>
    <contour>
      <point x="477" y="171" type="line"/>
      <point x="477" y="277" type="line"/>
      <point x="846" y="277" type="line"/>
      <point x="846" y="171" type="line"/>
    </contour>
    <contour>
      <point x="362" y="480" type="curve"/>
      <point x="400" y="424" type="line"/>
      <point x="409" y="428"/>
      <point x="414" y="437"/>
      <point x="414" y="448" type="curve"/>
      <point x="478.92" y="491.82"/>
      <point x="533.29" y="531.02"/>
      <point x="575" y="560.28" type="curve"/>
      <point x="575" y="457" type="line" smooth="yes"/>
      <point x="575" y="445"/>
      <point x="572" y="439"/>
      <point x="557" y="439" type="curve" smooth="yes"/>
      <point x="541" y="439"/>
      <point x="478" y="444"/>
      <point x="478" y="444" type="curve"/>
      <point x="478" y="428" type="line"/>
      <point x="508" y="424"/>
      <point x="525" y="420"/>
      <point x="536" y="413" type="curve" smooth="yes"/>
      <point x="545" y="407"/>
      <point x="548" y="396"/>
      <point x="550" y="386" type="curve"/>
      <point x="611" y="393"/>
      <point x="619" y="414"/>
      <point x="619" y="454" type="curve" smooth="yes"/>
      <point x="619" y="735" type="line"/>
      <point x="639" y="738"/>
      <point x="657" y="746"/>
      <point x="663" y="753" type="curve"/>
      <point x="591" y="807" type="line"/>
      <point x="565.79" y="775" type="line"/>
      <point x="362" y="775" type="line"/>
      <point x="371" y="745" type="line"/>
      <point x="575" y="745" type="line"/>
      <point x="575" y="582.37" type="line"/>
      <point x="484.93" y="534.94"/>
      <point x="398.32" y="494.9"/>
    </contour>
    <contour>
      <point x="663" y="489" type="curve"/>
      <point x="701" y="432" type="line"/>
      <point x="710" y="436"/>
      <point x="715" y="446"/>
      <point x="715" y="457" type="curve"/>
      <point x="781.03" y="501.02"/>
      <point x="836.4" y="540.37"/>
      <point x="879" y="570.21" type="curve"/>
      <point x="879" y="455" type="line" smooth="yes"/>
      <point x="879" y="443"/>
      <point x="876" y="438"/>
      <point x="862" y="438" type="curve" smooth="yes"/>
      <point x="846" y="438"/>
      <point x="789" y="443"/>
      <point x="789" y="443" type="curve"/>
      <point x="789" y="426" type="line"/>
      <point x="816" y="423"/>
      <point x="833" y="418"/>
      <point x="843" y="412" type="curve"/>
      <point x="851" y="406"/>
      <point x="855" y="395"/>
      <point x="857" y="385" type="curve"/>
      <point x="915" y="391"/>
      <point x="923" y="413"/>
      <point x="923" y="452" type="curve" smooth="yes"/>
      <point x="923" y="734" type="line"/>
      <point x="943" y="737"/>
      <point x="961" y="745"/>
      <point x="967" y="752" type="curve"/>
      <point x="895" y="806" type="line"/>
      <point x="869" y="773" type="line"/>
      <point x="669" y="773" type="line"/>
      <point x="678" y="743" type="line"/>
      <point x="879" y="743" type="line"/>
      <point x="879" y="591.91" type="line"/>
      <point x="788.45" y="544.37"/>
      <point x="700.39" y="504.89"/>
    </contour>
    <contour>
      <point x="710" y="715" type="curve"/>
      <point x="700" y="704" type="line"/>
      <point x="741" y="670"/>
      <point x="764" y="617"/>
      <point x="778" y="583" type="curve"/>
      <point x="822" y="551"/>
      <point x="854" y="656"/>
    </contour>
    <contour>
      <point x="404" y="713" type="curve"/>
      <point x="395" y="702" type="line"/>
      <point x="439" y="671"/>
      <point x="466" y="620"/>
      <point x="483" y="588" type="curve"/>
      <point x="529" y="558"/>
      <point x="553" y="666"/>
    </contour>
  </outline>
</glyph>
<glyph name="uni399B" format="2">
  <advance width="1000"/>
  <unicode hex="399B"/>
  <outline>
    <contour>
      <point x="377" y="782" type="curve"/>
      <point x="323" y="832" type="line"/>
      <point x="297.56" y="815.81"/>
      <point x="252.52" y="790.71"/>
      <point x="210.31" y="770.9" type="curve"/>
      <point x="146" y="796" type="line"/>
      <point x="158.63" y="420" type="line"/>
      <point x="39" y="420" type="line"/>
      <point x="48" y="390" type="line"/>
      <point x="295.08" y="390" type="line"/>
      <point x="233.38" y="303.35"/>
      <point x="140.22" y="223.11"/>
      <point x="36" y="165" type="curve"/>
      <point x="47" y="147" type="line"/>
      <point x="174.49" y="204.86"/>
      <point x="286.58" y="288.69"/>
      <point x="357.83" y="390" type="curve"/>
      <point x="653.02" y="390" type="line"/>
      <point x="714.6" y="288.73"/>
      <point x="824.11" y="209.34"/>
      <point x="929" y="167" type="curve"/>
      <point x="935" y="189"/>
      <point x="953" y="203"/>
      <point x="973" y="206" type="curve"/>
      <point x="974" y="217" type="line"/>
      <point x="869.35" y="245.46"/>
      <point x="747.84" y="309.32"/>
      <point x="679.11" y="390" type="curve"/>
      <point x="939" y="390" type="line" smooth="yes"/>
      <point x="952" y="390"/>
      <point x="961" y="395"/>
      <point x="964" y="406" type="curve"/>
      <point x="933" y="436"/>
      <point x="882" y="474"/>
      <point x="882" y="474" type="curve"/>
      <point x="839" y="420" type="line"/>
      <point x="829.38" y="420" type="line"/>
      <point x="845" y="751" type="line"/>
      <point x="861" y="752"/>
      <point x="869" y="755"/>
      <point x="876" y="762" type="curve"/>
      <point x="822" y="812" type="line"/>
      <point x="794" y="782" type="line"/>
      <point x="615" y="782" type="line"/>
      <point x="624" y="752" type="line"/>
      <point x="801.54" y="752" type="line"/>
      <point x="797.21" y="663" type="line"/>
      <point x="633" y="663" type="line"/>
      <point x="642" y="633" type="line"/>
      <point x="795.75" y="633" type="line"/>
      <point x="791.42" y="544" type="line"/>
      <point x="633" y="544" type="line"/>
      <point x="642" y="514" type="line"/>
      <point x="789.96" y="514" type="line"/>
      <point x="785.39" y="420" type="line"/>
      <point x="586.24" y="420" type="line"/>
      <point x="601" y="599" type="line"/>
      <point x="614" y="602"/>
      <point x="626" y="608"/>
      <point x="631" y="614" type="curve"/>
      <point x="576" y="657" type="line"/>
      <point x="550" y="631" type="line"/>
      <point x="445.03" y="631" type="line"/>
      <point x="448.31" y="655.04"/>
      <point x="451.68" y="680.6"/>
      <point x="454.9" y="706" type="curve"/>
      <point x="604" y="706" type="line" smooth="yes"/>
      <point x="617" y="706"/>
      <point x="626" y="711"/>
      <point x="628" y="722" type="curve"/>
      <point x="607" y="745"/>
      <point x="574" y="771"/>
      <point x="574" y="771" type="curve"/>
      <point x="544" y="736" type="line"/>
      <point x="458.64" y="736" type="line"/>
      <point x="461.31" y="757.85"/>
      <point x="463.79" y="779.04"/>
      <point x="465.91" y="798.4" type="curve"/>
      <point x="487.33" y="800.36"/>
      <point x="499.46" y="809.39"/>
      <point x="503" y="820" type="curve"/>
      <point x="427" y="832" type="line"/>
      <point x="423" y="767"/>
      <point x="410" y="663"/>
      <point x="395" y="577" type="curve"/>
      <point x="411" y="571"/>
      <point x="431" y="574"/>
      <point x="438" y="581" type="curve"/>
      <point x="438.93" y="587.41"/>
      <point x="439.89" y="594.11"/>
      <point x="440.86" y="601" type="curve"/>
      <point x="556.48" y="601" type="line"/>
      <point x="541.26" y="420" type="line"/>
      <point x="445.01" y="420" type="line"/>
      <point x="449.29" y="453.16"/>
      <point x="453.27" y="491.7"/>
      <point x="455" y="522" type="curve"/>
      <point x="473" y="523"/>
      <point x="484" y="533"/>
      <point x="486" y="546" type="curve"/>
      <point x="416" y="552" type="line"/>
      <point x="413.3" y="512.46"/>
      <point x="408.99" y="459.98"/>
      <point x="403.79" y="420" type="curve"/>
      <point x="203.61" y="420" type="line"/>
      <point x="200.28" y="514" type="line"/>
      <point x="349" y="514" type="line" smooth="yes"/>
      <point x="361" y="514"/>
      <point x="370" y="519"/>
      <point x="373" y="530" type="curve"/>
      <point x="352" y="553"/>
      <point x="318" y="579"/>
      <point x="318" y="579" type="curve"/>
      <point x="290" y="544" type="line"/>
      <point x="199.22" y="544" type="line"/>
      <point x="196.07" y="633" type="line"/>
      <point x="346" y="633" type="line" smooth="yes"/>
      <point x="358" y="633"/>
      <point x="367" y="638"/>
      <point x="370" y="649" type="curve"/>
      <point x="349" y="672"/>
      <point x="315" y="698"/>
      <point x="315" y="698" type="curve"/>
      <point x="287" y="663" type="line"/>
      <point x="195.01" y="663" type="line"/>
      <point x="192.15" y="743.87" type="line"/>
      <point x="249.94" y="752.67"/>
      <point x="313.83" y="769.92"/>
      <point x="351" y="782" type="curve"/>
      <point x="362" y="777"/>
      <point x="372" y="777"/>
    </contour>
    <contour>
      <point x="402" y="256" type="curve"/>
      <point x="328" y="266" type="line"/>
      <point x="328" y="4" type="line" smooth="yes"/>
      <point x="328" y="-37"/>
      <point x="343" y="-50"/>
      <point x="421" y="-50" type="curve" smooth="yes"/>
      <point x="547" y="-50" type="line" smooth="yes"/>
      <point x="726" y="-50"/>
      <point x="754" y="-42"/>
      <point x="754" y="-18" type="curve" smooth="yes"/>
      <point x="754" y="-8"/>
      <point x="749" y="-3"/>
      <point x="729" y="2" type="curve"/>
      <point x="727" y="118" type="line"/>
      <point x="713" y="118" type="line"/>
      <point x="705" y="68"/>
      <point x="696" y="21"/>
      <point x="689" y="6" type="curve"/>
      <point x="686" y="-3"/>
      <point x="682" y="-5"/>
      <point x="670" y="-6" type="curve"/>
      <point x="653" y="-8"/>
      <point x="608" y="-8"/>
      <point x="546" y="-8" type="curve" smooth="yes"/>
      <point x="425" y="-8" type="line" smooth="yes"/>
      <point x="377" y="-8"/>
      <point x="372" y="-4"/>
      <point x="372" y="12" type="curve" smooth="yes"/>
      <point x="372" y="233" type="line"/>
      <point x="390" y="235"/>
      <point x="400" y="244"/>
    </contour>
    <contour>
      <point x="243" y="231" type="curve"/>
      <point x="224" y="232" type="line"/>
      <point x="218" y="143"/>
      <point x="167" y="65"/>
      <point x="119" y="36" type="curve"/>
      <point x="104" y="23"/>
      <point x="95" y="6"/>
      <point x="104" y="-5" type="curve" smooth="yes"/>
      <point x="116" y="-20"/>
      <point x="146" y="-9"/>
      <point x="168" y="9" type="curve" smooth="yes"/>
      <point x="204" y="38"/>
      <point x="257" y="113"/>
    </contour>
    <contour>
      <point x="717" y="246" type="curve"/>
      <point x="705" y="237" type="line"/>
      <point x="760" y="188"/>
      <point x="828" y="100"/>
      <point x="840" y="32" type="curve"/>
      <point x="897" y="-11"/>
      <point x="934" y="132"/>
    </contour>
    <contour>
      <point x="436" y="338" type="curve"/>
      <point x="426" y="326" type="line"/>
      <point x="487" y="286"/>
      <point x="560" y="226"/>
      <point x="581" y="177" type="curve"/>
      <point x="651" y="157"/>
      <point x="652" y="264"/>
    </contour>
  </outline>
</glyph>
<glyph name="uni5DBC" format="2">
  <advance width="1000"/>
  <unicode hex="5DBC"/>
  <outline>
    <contour>
      <point x="350" y="185" type="line"/>
      <point x="358" y="156" type="line"/>
      <point x="962" y="156" type="line" smooth="yes"/>
      <point x="976" y="156"/>
      <point x="985" y="161"/>
      <point x="987" y="171" type="curve"/>
      <point x="968" y="199"/>
      <point x="931" y="239"/>
      <point x="931" y="239" type="curve"/>
      <point x="900" y="185" type="line"/>
    </contour>
    <contour>
      <point x="398" y="766" type="line"/>
      <point x="407" y="171" type="line"/>
      <point x="449" y="171" type="line"/>
      <point x="441" y="721" type="line"/>
      <point x="463" y="724"/>
      <point x="474" y="729"/>
      <point x="477" y="738" type="curve"/>
    </contour>
    <contour>
      <point x="865" y="752" type="line"/>
      <point x="855" y="168" type="line"/>
      <point x="902" y="168" type="line"/>
      <point x="908" y="721" type="line"/>
      <point x="925" y="723"/>
      <point x="934" y="727"/>
      <point x="941" y="733" type="curve"/>
      <point x="884" y="784" type="line"/>
      <point x="856" y="752" type="line"/>
    </contour>
    <contour>
      <point x="691" y="558" type="line"/>
      <point x="679" y="170" type="line"/>
      <point x="723" y="170" type="line"/>
      <point x="734" y="526" type="line"/>
      <point x="747" y="529"/>
      <point x="760" y="535"/>
      <point x="764" y="541" type="curve"/>
      <point x="709" y="584" type="line"/>
      <point x="684" y="558" type="line"/>
    </contour>
    <contour>
      <point x="761" y="752" type="line"/>
      <point x="769" y="722" type="line"/>
      <point x="881" y="722" type="line"/>
      <point x="881" y="752" type="line"/>
    </contour>
    <contour>
      <point x="761" y="556" type="line"/>
      <point x="769" y="526" type="line"/>
      <point x="876" y="526" type="line"/>
      <point x="876" y="556" type="line"/>
    </contour>
    <contour>
      <point x="765" y="365" type="line"/>
      <point x="774" y="335" type="line"/>
      <point x="881" y="335" type="line"/>
      <point x="881" y="365" type="line"/>
    </contour>
    <contour>
      <point x="600" y="702" type="line"/>
      <point x="600" y="673" type="line"/>
      <point x="739" y="673" type="line" smooth="yes"/>
      <point x="753" y="673"/>
      <point x="761" y="678"/>
      <point x="763" y="689" type="curve"/>
      <point x="741" y="711"/>
      <point x="706" y="740"/>
      <point x="706" y="740" type="curve"/>
      <point x="676" y="702" type="line"/>
    </contour>
    <contour>
      <point x="583" y="445" type="line"/>
      <point x="581" y="363"/>
      <point x="576" y="246"/>
      <point x="570" y="169" type="curve"/>
      <point x="615" y="169" type="line"/>
      <point x="619" y="247"/>
      <point x="624" y="346"/>
      <point x="627" y="414" type="curve"/>
      <point x="643" y="417"/>
      <point x="650" y="425"/>
      <point x="652" y="435" type="curve"/>
    </contour>
    <contour>
      <point x="602" y="558" type="line"/>
      <point x="602" y="528" type="line"/>
      <point x="703" y="528" type="line"/>
      <point x="703" y="558" type="line"/>
    </contour>
    <contour>
      <point x="419" y="556" type="line"/>
      <point x="419" y="526" type="line"/>
      <point x="533" y="526" type="line" smooth="yes"/>
      <point x="546" y="526"/>
      <point x="555" y="531"/>
      <point x="557" y="542" type="curve"/>
      <point x="539" y="563"/>
      <point x="509" y="586"/>
      <point x="509" y="586" type="curve"/>
      <point x="485" y="556" type="line"/>
    </contour>
    <contour>
      <point x="430" y="365" type="line"/>
      <point x="430" y="335" type="line"/>
      <point x="544" y="335" type="line" smooth="yes"/>
      <point x="557" y="335"/>
      <point x="565" y="340"/>
      <point x="567" y="351" type="curve"/>
      <point x="550" y="371"/>
      <point x="520" y="395"/>
      <point x="520" y="395" type="curve"/>
      <point x="496" y="365" type="line"/>
    </contour>
    <contour>
      <point x="529" y="124" type="line"/>
      <point x="477" y="60"/>
      <point x="368" y="-18"/>
      <point x="270" y="-62" type="curve"/>
      <point x="281" y="-77" type="line"/>
      <point x="389" y="-41"/>
      <point x="502" y="24"/>
      <point x="561" y="79" type="curve"/>
      <point x="582" y="73"/>
      <point x="590" y="76"/>
      <point x="597" y="86" type="curve"/>
    </contour>
    <contour>
      <point x="708" y="120" type="curve"/>
      <point x="698" y="108" type="line"/>
      <point x="772" y="68"/>
      <point x="875" y="-10"/>
      <point x="910" y="-70" type="curve"/>
      <point x="978" y="-99"/>
      <point x="988" y="41"/>
    </contour>
    <contour>
      <point x="525" y="804" type="line"/>
      <point x="500" y="780"/>
      <point x="457" y="742"/>
      <point x="428" y="721" type="curve"/>
      <point x="437" y="711" type="line"/>
      <point x="471" y="723"/>
      <point x="518" y="746"/>
      <point x="546" y="759" type="curve"/>
      <point x="564" y="754"/>
      <point x="572" y="755"/>
      <point x="576" y="762" type="curve"/>
    </contour>
    <contour>
      <point x="80" y="657" type="line"/>
      <point x="80" y="12" type="line"/>
      <point x="89" y="12" type="line" smooth="yes"/>
      <point x="106" y="12"/>
      <point x="124" y="23"/>
      <point x="124" y="32" type="curve" smooth="yes"/>
      <point x="124" y="621" type="line"/>
      <point x="149" y="624"/>
      <point x="158" y="633"/>
      <point x="161" y="647" type="curve"/>
    </contour>
    <contour>
      <point x="299" y="660" type="line"/>
      <point x="299" y="55" type="line"/>
      <point x="307" y="55" type="line" smooth="yes"/>
      <point x="324" y="55"/>
      <point x="343" y="67"/>
      <point x="343" y="75" type="curve" smooth="yes"/>
      <point x="343" y="624" type="line"/>
      <point x="368" y="627"/>
      <point x="376" y="636"/>
      <point x="379" y="650" type="curve"/>
    </contour>
    <contour>
      <point x="186" y="802" type="line"/>
      <point x="186" y="132" type="line"/>
      <point x="231" y="132" type="line"/>
      <point x="231" y="767" type="line"/>
      <point x="252" y="770"/>
      <point x="260" y="779"/>
      <point x="262" y="793" type="curve"/>
    </contour>
    <contour>
      <point x="102" y="147" type="line"/>
      <point x="102" y="117" type="line"/>
      <point x="330" y="117" type="line"/>
      <point x="330" y="147" type="line"/>
    </contour>
    <contour>
      <point x="665" y="816" type="curve"/>
      <point x="589" y="828" type="line"/>
      <point x="589" y="742"/>
      <point x="577" y="571"/>
      <point x="568" y="496" type="curve"/>
      <point x="585" y="490"/>
      <point x="606" y="491"/>
      <point x="614" y="498" type="curve"/>
      <point x="622" y="586"/>
      <point x="630" y="731"/>
      <point x="632" y="807" type="curve"/>
      <point x="621" y="792" type="line"/>
      <point x="649" y="793"/>
      <point x="661" y="804"/>
    </contour>
  </outline>
</glyph>
<glyph name="uni64E7" format="2">
  <advance width="1000"/>
  <unicode hex="64E7"/>
  <outline>
    <contour>
      <point x="44" y="473" type="line"/>
      <point x="53" y="443" type="line"/>
      <point x="931" y="443" type="line" smooth="yes"/>
      <point x="945" y="443"/>
      <point x="954" y="448"/>
      <point x="956" y="459" type="curve"/>
      <point x="931" y="485"/>
      <point x="890" y="519"/>
      <point x="890" y="519" type="curve"/>
      <point x="853" y="473" type="line"/>
    </contour>
    <contour>
      <point x="303" y="473" type="line"/>
      <point x="254" y="377"/>
      <point x="147" y="273"/>
      <point x="39" y="208" type="curve"/>
      <point x="48" y="193" type="line"/>
      <point x="176" y="254"/>
      <point x="304" y="354"/>
      <point x="373" y="473" type="curve"/>
    </contour>
    <contour>
      <point x="434" y="755" type="line"/>
      <point x="434" y="725" type="line"/>
      <point x="593" y="725" type="line" smooth="yes"/>
      <point x="607" y="725"/>
      <point x="616" y="730"/>
      <point x="618" y="741" type="curve"/>
      <point x="596" y="763"/>
      <point x="562" y="791"/>
      <point x="562" y="791" type="curve"/>
      <point x="532" y="755" type="line"/>
    </contour>
    <contour>
      <point x="186" y="687" type="line"/>
      <point x="186" y="657" type="line"/>
      <point x="349" y="657" type="line" smooth="yes"/>
      <point x="362" y="657"/>
      <point x="370" y="662"/>
      <point x="373" y="673" type="curve"/>
      <point x="355" y="694"/>
      <point x="324" y="719"/>
      <point x="324" y="719" type="curve"/>
      <point x="299" y="687" type="line"/>
    </contour>
    <contour>
      <point x="192" y="580" type="line"/>
      <point x="192" y="551" type="line"/>
      <point x="353" y="551" type="line" smooth="yes"/>
      <point x="366" y="551"/>
      <point x="374" y="556"/>
      <point x="376" y="566" type="curve"/>
      <point x="358" y="588"/>
      <point x="326" y="614"/>
      <point x="326" y="614" type="curve"/>
      <point x="300" y="580" type="line"/>
    </contour>
    <contour>
      <point x="429" y="657" type="line"/>
      <point x="429" y="628" type="line"/>
      <point x="565" y="628" type="line"/>
      <point x="565" y="657" type="line"/>
    </contour>
    <contour>
      <point x="553" y="657" type="line"/>
      <point x="535" y="458" type="line"/>
      <point x="580" y="458" type="line"/>
      <point x="594" y="624" type="line"/>
      <point x="609" y="627"/>
      <point x="623" y="633"/>
      <point x="628" y="639" type="curve"/>
      <point x="570" y="685" type="line"/>
      <point x="542" y="657" type="line"/>
    </contour>
    <contour>
      <point x="636" y="791" type="line"/>
      <point x="645" y="761" type="line"/>
      <point x="823" y="761" type="line"/>
      <point x="823" y="791" type="line"/>
    </contour>
    <contour>
      <point x="649" y="687" type="line"/>
      <point x="658" y="657" type="line"/>
      <point x="817" y="657" type="line"/>
      <point x="817" y="687" type="line"/>
    </contour>
    <contour>
      <point x="641" y="580" type="line"/>
      <point x="650" y="551" type="line"/>
      <point x="813" y="551" type="line"/>
      <point x="813" y="580" type="line"/>
    </contour>
    <contour>
      <point x="333" y="835" type="line"/>
      <point x="300" y="816"/>
      <point x="230" y="781"/>
      <point x="178" y="762" type="curve"/>
      <point x="183" y="749" type="line"/>
      <point x="243" y="758"/>
      <point x="314" y="776"/>
      <point x="352" y="789" type="curve"/>
      <point x="364" y="783"/>
      <point x="372" y="783"/>
      <point x="377" y="788" type="curve"/>
    </contour>
    <contour>
      <point x="159" y="805" type="line"/>
      <point x="176" y="458" type="line"/>
      <point x="221" y="458" type="line"/>
      <point x="205" y="761" type="line"/>
      <point x="225" y="764"/>
      <point x="237" y="771"/>
      <point x="239" y="779" type="curve"/>
    </contour>
    <contour>
      <point x="801" y="791" type="line"/>
      <point x="777" y="458" type="line"/>
      <point x="822" y="458" type="line"/>
      <point x="843" y="761" type="line"/>
      <point x="859" y="761"/>
      <point x="868" y="764"/>
      <point x="874" y="771" type="curve"/>
      <point x="820" y="821" type="line"/>
      <point x="792" y="791" type="line"/>
    </contour>
    <contour>
      <point x="50" y="139" type="line"/>
      <point x="59" y="109" type="line"/>
      <point x="925" y="109" type="line" smooth="yes"/>
      <point x="939" y="109"/>
      <point x="948" y="114"/>
      <point x="951" y="125" type="curve"/>
      <point x="921" y="152"/>
      <point x="876" y="187"/>
      <point x="876" y="187" type="curve"/>
      <point x="836" y="139" type="line"/>
    </contour>
    <contour>
      <point x="214" y="248" type="line"/>
      <point x="222" y="219" type="line"/>
      <point x="762" y="219" type="line" smooth="yes"/>
      <point x="774" y="219"/>
      <point x="784" y="224"/>
      <point x="786" y="235" type="curve"/>
      <point x="758" y="260"/>
      <point x="715" y="291"/>
      <point x="715" y="291" type="curve"/>
      <point x="677" y="248" type="line"/>
    </contour>
    <contour>
      <point x="641" y="406" type="line"/>
      <point x="560" y="379"/>
      <point x="405" y="347"/>
      <point x="282" y="331" type="curve"/>
      <point x="287" y="311" type="line"/>
      <point x="412" y="318"/>
      <point x="557" y="338"/>
      <point x="652" y="355" type="curve"/>
      <point x="672" y="346"/>
      <point x="688" y="345"/>
      <point x="696" y="353" type="curve"/>
    </contour>
    <contour>
      <point x="479" y="352" type="line"/>
      <point x="479" y="9" type="line" smooth="yes"/>
      <point x="479" y="-5"/>
      <point x="474" y="-10"/>
      <point x="454" y="-10" type="curve" smooth="yes"/>
      <point x="433" y="-10"/>
      <point x="324" y="-2"/>
      <point x="324" y="-2" type="curve"/>
      <point x="324" y="-18" type="line"/>
      <point x="370" y="-23"/>
      <point x="399" y="-28"/>
      <point x="414" y="-38" type="curve"/>
      <point x="427" y="-45"/>
      <point x="434" y="-59"/>
      <point x="434" y="-73" type="curve"/>
      <point x="512" y="-64"/>
      <point x="523" y="-33"/>
      <point x="523" y="8" type="curve" smooth="yes"/>
      <point x="523" y="352" type="line"/>
    </contour>
    <contour>
      <point x="689" y="472" type="curve"/>
      <point x="669" y="460" type="line"/>
      <point x="720" y="353"/>
      <point x="819" y="257"/>
      <point x="921" y="206" type="curve"/>
      <point x="927" y="226"/>
      <point x="942" y="237"/>
      <point x="963" y="240" type="curve"/>
      <point x="966" y="252" type="line"/>
      <point x="863" y="292"/>
      <point x="738" y="377"/>
    </contour>
    <contour>
      <point x="497" y="822" type="curve"/>
      <point x="421" y="834" type="line"/>
      <point x="420" y="780"/>
      <point x="410" y="673"/>
      <point x="397" y="613" type="curve"/>
      <point x="413" y="607"/>
      <point x="432" y="610"/>
      <point x="439" y="617" type="curve"/>
      <point x="451" y="681"/>
      <point x="457" y="752"/>
      <point x="462" y="820" type="curve"/>
      <point x="451" y="800" type="line"/>
      <point x="478" y="800"/>
      <point x="493" y="810"/>
    </contour>
    <contour>
      <point x="416" y="591" type="line"/>
      <point x="413" y="550"/>
      <point x="409" y="497"/>
      <point x="403" y="457" type="curve"/>
      <point x="446" y="457" type="line"/>
      <point x="450" y="490"/>
      <point x="454" y="530"/>
      <point x="456" y="561" type="curve"/>
      <point x="474" y="562"/>
      <point x="483" y="571"/>
      <point x="485" y="584" type="curve"/>
    </contour>
  </outline>
</glyph>
<glyph name="uni6511" format="2">
  <advance width="1000"/>
  <unicode hex="6511"/>
  <outline>
    <contour>
      <point x="28" y="298" type="curve"/>
      <point x="73" y="243" type="line"/>
      <point x="81" y="248"/>
      <point x="86" y="260"/>
      <point x="86" y="270" type="curve"/>
      <point x="121.65" y="296.83"/>
      <point x="154.65" y="322.38"/>
      <point x="185" y="346.28" type="curve"/>
      <point x="185" y="11" type="line" smooth="yes"/>
      <point x="185" y="-4"/>
      <point x="180" y="-9"/>
      <point x="162" y="-9" type="curve" smooth="yes"/>
      <point x="145" y="-9"/>
      <point x="55" y="-2"/>
      <point x="55" y="-2" type="curve"/>
      <point x="55" y="-19" type="line"/>
      <point x="92" y="-23"/>
      <point x="116" y="-29"/>
      <point x="130" y="-38" type="curve" smooth="yes"/>
      <point x="142" y="-46"/>
      <point x="147" y="-60"/>
      <point x="150" y="-73" type="curve"/>
      <point x="221" y="-65"/>
      <point x="229" y="-37"/>
      <point x="229" y="6" type="curve" smooth="yes"/>
      <point x="229" y="381.2" type="line"/>
      <point x="245.96" y="394.75"/>
      <point x="261.92" y="407.61"/>
      <point x="276.88" y="419.68" type="curve"/>
      <point x="284" y="393" type="line"/>
      <point x="446.96" y="393" type="line"/>
      <point x="404.57" y="311.98"/>
      <point x="336.67" y="248.06"/>
      <point x="244" y="199" type="curve"/>
      <point x="253" y="181" type="line"/>
      <point x="368.36" y="229.47"/>
      <point x="451.76" y="298.62"/>
      <point x="502.31" y="393" type="curve"/>
      <point x="715.98" y="393" type="line"/>
      <point x="759.86" y="299.58"/>
      <point x="835.22" y="230.47"/>
      <point x="918" y="191" type="curve"/>
      <point x="924" y="212"/>
      <point x="939" y="224"/>
      <point x="959" y="226" type="curve"/>
      <point x="960" y="237" type="line"/>
      <point x="876.22" y="262.77"/>
      <point x="789.05" y="317.38"/>
      <point x="739.85" y="393" type="curve"/>
      <point x="938" y="393" type="line" smooth="yes"/>
      <point x="951" y="393"/>
      <point x="961" y="398"/>
      <point x="963" y="409" type="curve"/>
      <point x="938" y="436"/>
      <point x="896" y="472"/>
      <point x="896" y="472" type="curve"/>
      <point x="859" y="423" type="line"/>
      <point x="848.46" y="423" type="line"/>
      <point x="859" y="745" type="line"/>
      <point x="875" y="746"/>
      <point x="884" y="749"/>
      <point x="891" y="756" type="curve"/>
      <point x="836" y="807" type="line"/>
      <point x="808" y="776" type="line"/>
      <point x="704" y="776" type="line"/>
      <point x="713" y="746" type="line"/>
      <point x="815.61" y="746" type="line"/>
      <point x="811.44" y="656" type="line"/>
      <point x="720" y="656" type="line"/>
      <point x="729" y="626" type="line"/>
      <point x="810.05" y="626" type="line"/>
      <point x="805.88" y="536" type="line"/>
      <point x="724" y="536" type="line"/>
      <point x="733" y="506" type="line"/>
      <point x="804.49" y="506" type="line"/>
      <point x="800.65" y="423" type="line"/>
      <point x="680.6" y="423" type="line"/>
      <point x="690" y="610" type="line"/>
      <point x="702" y="613"/>
      <point x="714" y="619"/>
      <point x="719" y="625" type="curve"/>
      <point x="664" y="671" type="line"/>
      <point x="638" y="641" type="line"/>
      <point x="574.51" y="641" type="line"/>
      <point x="576.44" y="662.74"/>
      <point x="578.35" y="685.68"/>
      <point x="580.09" y="708" type="curve"/>
      <point x="689" y="708" type="line" smooth="yes"/>
      <point x="702" y="708"/>
      <point x="710" y="713"/>
      <point x="713" y="724" type="curve"/>
      <point x="691" y="747"/>
      <point x="656" y="775"/>
      <point x="656" y="775" type="curve"/>
      <point x="626" y="738" type="line"/>
      <point x="582.35" y="738" type="line"/>
      <point x="583.84" y="758.56"/>
      <point x="585.1" y="777.77"/>
      <point x="586" y="794" type="curve"/>
      <point x="608" y="796"/>
      <point x="619" y="802"/>
      <point x="623" y="816" type="curve"/>
      <point x="545" y="828" type="line"/>
      <point x="545" y="771"/>
      <point x="534" y="646"/>
      <point x="526" y="588" type="curve"/>
      <point x="544" y="581"/>
      <point x="561" y="584"/>
      <point x="570" y="593" type="curve"/>
      <point x="570.61" y="599.07"/>
      <point x="571.23" y="605.44"/>
      <point x="571.85" y="612" type="curve"/>
      <point x="647.11" y="612" type="line"/>
      <point x="634.78" y="423" type="line"/>
      <point x="572.37" y="423" type="line"/>
      <point x="575.89" y="457.39"/>
      <point x="579.23" y="497.22"/>
      <point x="581" y="530" type="curve"/>
      <point x="597" y="532"/>
      <point x="605" y="540"/>
      <point x="606" y="550" type="curve"/>
      <point x="541" y="557" type="line"/>
      <point x="539.19" y="520.73"/>
      <point x="534.91" y="466.37"/>
      <point x="529.65" y="423" type="curve"/>
      <point x="411.26" y="423" type="line"/>
      <point x="408.01" y="506" type="line"/>
      <point x="495" y="506" type="line" smooth="yes"/>
      <point x="508" y="506"/>
      <point x="516" y="511"/>
      <point x="519" y="522" type="curve"/>
      <point x="500" y="543"/>
      <point x="472" y="567"/>
      <point x="472" y="567" type="curve"/>
      <point x="447" y="536" type="line"/>
      <point x="406.84" y="536" type="line"/>
      <point x="403.33" y="626" type="line"/>
      <point x="489" y="626" type="line" smooth="yes"/>
      <point x="502" y="626"/>
      <point x="510" y="631"/>
      <point x="513" y="642" type="curve"/>
      <point x="494" y="663"/>
      <point x="466" y="687"/>
      <point x="466" y="687" type="curve"/>
      <point x="441" y="656" type="line"/>
      <point x="402.16" y="656" type="line"/>
      <point x="399.1" y="734.51" type="line"/>
      <point x="435.87" y="745.59"/>
      <point x="477.11" y="762.53"/>
      <point x="501" y="774" type="curve"/>
      <point x="511" y="770"/>
      <point x="519" y="770"/>
      <point x="523" y="776" type="curve"/>
      <point x="475" y="817" type="line"/>
      <point x="460.84" y="803.58"/>
      <point x="435.01" y="780.72"/>
      <point x="410.76" y="762.08" type="curve"/>
      <point x="354" y="781" type="line"/>
      <point x="367.29" y="423" type="line"/>
      <point x="281" y="423" type="line"/>
      <point x="299.57" y="437.98"/>
      <point x="316.58" y="451.71"/>
      <point x="332" y="464" type="curve"/>
      <point x="324" y="477" type="line"/>
      <point x="291.83" y="456.51"/>
      <point x="259.75" y="436.3"/>
      <point x="229" y="417.15" type="curve"/>
      <point x="229" y="578" type="line"/>
      <point x="324" y="578" type="line" smooth="yes"/>
      <point x="338" y="578"/>
      <point x="346" y="583"/>
      <point x="348" y="594" type="curve"/>
      <point x="322" y="621"/>
      <point x="279" y="654"/>
      <point x="279" y="654" type="curve"/>
      <point x="241" y="608" type="line"/>
      <point x="229" y="608" type="line"/>
      <point x="229" y="797" type="line"/>
      <point x="253" y="800"/>
      <point x="263" y="809"/>
      <point x="266" y="823" type="curve"/>
      <point x="185" y="833" type="line"/>
      <point x="185" y="608" type="line"/>
      <point x="46" y="608" type="line"/>
      <point x="54" y="578" type="line"/>
      <point x="185" y="578" type="line"/>
      <point x="185" y="389.92" type="line"/>
      <point x="116.04" y="347.53"/>
      <point x="58.08" y="313.35"/>
    </contour>
    <contour>
      <point x="656" y="354" type="curve"/>
      <point x="579" y="363" type="line"/>
      <point x="579" y="255" type="line"/>
      <point x="405" y="255" type="line"/>
      <point x="413" y="225" type="line"/>
      <point x="579" y="225" type="line"/>
      <point x="579" y="132" type="line"/>
      <point x="325" y="132" type="line"/>
      <point x="333" y="102" type="line"/>
      <point x="579" y="102" type="line"/>
      <point x="579" y="-70" type="line"/>
      <point x="588" y="-70" type="line" smooth="yes"/>
      <point x="605" y="-70"/>
      <point x="623" y="-58"/>
      <point x="623" y="-51" type="curve" smooth="yes"/>
      <point x="623" y="102" type="line"/>
      <point x="877" y="102" type="line" smooth="yes"/>
      <point x="890" y="102"/>
      <point x="898" y="107"/>
      <point x="901" y="118" type="curve"/>
      <point x="877" y="143"/>
      <point x="836" y="174"/>
      <point x="836" y="174" type="curve"/>
      <point x="802" y="132" type="line"/>
      <point x="623" y="132" type="line"/>
      <point x="623" y="225" type="line"/>
      <point x="795" y="225" type="line" smooth="yes"/>
      <point x="808" y="225"/>
      <point x="817" y="230"/>
      <point x="820" y="241" type="curve"/>
      <point x="795" y="266"/>
      <point x="755" y="297"/>
      <point x="755" y="297" type="curve"/>
      <point x="720" y="255" type="line"/>
      <point x="623" y="255" type="line"/>
      <point x="623" y="330" type="line"/>
      <point x="645" y="332"/>
      <point x="654" y="341"/>
    </contour>
  </outline>
</glyph>
<glyph name="uni65DF.1" format="2">
  <advance width="1000"/>
  <unicode hex="65DF"/>
  <outline>
    <contour>
      <point x="46" y="641" type="line"/>
      <point x="54" y="612" type="line"/>
      <point x="393" y="612" type="line" smooth="yes"/>
      <point x="407" y="612"/>
      <point x="416" y="617"/>
      <point x="419" y="628" type="curve"/>
      <point x="389" y="655"/>
      <point x="343" y="692"/>
      <point x="343" y="692" type="curve"/>
      <point x="302" y="641" type="line"/>
    </contour>
    <contour>
      <point x="308" y="456" type="line"/>
      <point x="303" y="165"/>
      <point x="290" y="24"/>
      <point x="263" y="-5" type="curve" smooth="yes"/>
      <point x="255" y="-13"/>
      <point x="248" y="-15"/>
      <point x="232" y="-15" type="curve" smooth="yes"/>
      <point x="214" y="-15"/>
      <point x="168" y="-11"/>
      <point x="137" y="-9" type="curve"/>
      <point x="137" y="-27" type="line"/>
      <point x="162" y="-30"/>
      <point x="189" y="-37"/>
      <point x="199" y="-44" type="curve" smooth="yes"/>
      <point x="211" y="-52"/>
      <point x="213" y="-66"/>
      <point x="213" y="-79" type="curve"/>
      <point x="242" y="-79"/>
      <point x="274" y="-69"/>
      <point x="295" y="-44" type="curve" smooth="yes"/>
      <point x="329" y="-4"/>
      <point x="346" y="131"/>
      <point x="352" y="423" type="curve"/>
      <point x="371" y="426"/>
      <point x="383" y="430"/>
      <point x="390" y="437" type="curve"/>
      <point x="326" y="490" type="line"/>
      <point x="299" y="456" type="line"/>
    </contour>
    <contour>
      <point x="468" y="696" type="line"/>
      <point x="468" y="667" type="line"/>
      <point x="929" y="667" type="line" smooth="yes"/>
      <point x="942" y="667"/>
      <point x="952" y="672"/>
      <point x="955" y="683" type="curve"/>
      <point x="925" y="710"/>
      <point x="879" y="747"/>
      <point x="879" y="747" type="curve"/>
      <point x="838" y="696" type="line"/>
    </contour>
    <contour>
      <point x="507" y="834" type="line"/>
      <point x="474" y="712"/>
      <point x="416" y="599"/>
      <point x="354" y="528" type="curve"/>
      <point x="368" y="516" type="line"/>
      <point x="441" y="578"/>
      <point x="506" y="678"/>
      <point x="549" y="790" type="curve"/>
      <point x="569" y="789"/>
      <point x="581" y="798"/>
      <point x="585" y="809" type="curve"/>
    </contour>
    <contour>
      <point x="360" y="156" type="line"/>
      <point x="368" y="126" type="line"/>
      <point x="965" y="126" type="line" smooth="yes"/>
      <point x="979" y="126"/>
      <point x="988" y="131"/>
      <point x="990" y="142" type="curve"/>
      <point x="969" y="168"/>
      <point x="932" y="202"/>
      <point x="932" y="202" type="curve"/>
      <point x="901" y="156" type="line"/>
    </contour>
    <contour>
      <point x="423" y="585" type="line"/>
      <point x="429" y="141" type="line"/>
      <point x="472" y="141" type="line"/>
      <point x="466" y="540" type="line"/>
      <point x="487" y="543"/>
      <point x="499" y="549"/>
      <point x="501" y="557" type="curve"/>
    </contour>
    <contour>
      <point x="862" y="589" type="line"/>
      <point x="854" y="143" type="line"/>
      <point x="901" y="143" type="line"/>
      <point x="905" y="559" type="line"/>
      <point x="921" y="560"/>
      <point x="930" y="564"/>
      <point x="936" y="570" type="curve"/>
      <point x="881" y="621" type="line"/>
      <point x="853" y="589" type="line"/>
    </contour>
    <contour>
      <point x="696" y="437" type="line"/>
      <point x="683" y="142" type="line"/>
      <point x="727" y="142" type="line"/>
      <point x="738" y="406" type="line"/>
      <point x="751" y="409"/>
      <point x="763" y="416"/>
      <point x="767" y="420" type="curve"/>
      <point x="713" y="463" type="line"/>
      <point x="688" y="437" type="line"/>
    </contour>
    <contour>
      <point x="761" y="589" type="line"/>
      <point x="769" y="560" type="line"/>
      <point x="881" y="560" type="line"/>
      <point x="881" y="589" type="line"/>
    </contour>
    <contour>
      <point x="765" y="447" type="line"/>
      <point x="774" y="418" type="line"/>
      <point x="881" y="418" type="line"/>
      <point x="881" y="447" type="line"/>
    </contour>
    <contour>
      <point x="761" y="305" type="line"/>
      <point x="769" y="276" type="line"/>
      <point x="876" y="276" type="line"/>
      <point x="876" y="305" type="line"/>
    </contour>
    <contour>
      <point x="613" y="551" type="line"/>
      <point x="613" y="521" type="line"/>
      <point x="748" y="521" type="line" smooth="yes"/>
      <point x="761" y="521"/>
      <point x="769" y="526"/>
      <point x="771" y="537" type="curve"/>
      <point x="750" y="560"/>
      <point x="714" y="588"/>
      <point x="714" y="588" type="curve"/>
      <point x="684" y="551" type="line"/>
    </contour>
    <contour>
      <point x="616" y="437" type="line"/>
      <point x="616" y="408" type="line"/>
      <point x="712" y="408" type="line"/>
      <point x="712" y="437" type="line"/>
    </contour>
    <contour>
      <point x="442" y="443" type="line"/>
      <point x="442" y="414" type="line"/>
      <point x="557" y="414" type="line" smooth="yes"/>
      <point x="569" y="414"/>
      <point x="578" y="419"/>
      <point x="580" y="430" type="curve"/>
      <point x="563" y="450"/>
      <point x="533" y="474"/>
      <point x="533" y="474" type="curve"/>
      <point x="508" y="443" type="line"/>
    </contour>
    <contour>
      <point x="440" y="301" type="line"/>
      <point x="440" y="271" type="line"/>
      <point x="555" y="271" type="line" smooth="yes"/>
      <point x="567" y="271"/>
      <point x="576" y="276"/>
      <point x="578" y="287" type="curve"/>
      <point x="561" y="307"/>
      <point x="531" y="331"/>
      <point x="531" y="331" type="curve"/>
      <point x="506" y="301" type="line"/>
    </contour>
    <contour>
      <point x="547" y="116" type="line"/>
      <point x="505" y="57"/>
      <point x="421" y="-17"/>
      <point x="340" y="-60" type="curve"/>
      <point x="351" y="-75" type="line"/>
      <point x="441" y="-40"/>
      <point x="533" y="21"/>
      <point x="580" y="72" type="curve"/>
      <point x="602" y="66"/>
      <point x="610" y="70"/>
      <point x="617" y="80" type="curve"/>
    </contour>
    <contour>
      <point x="734" y="105" type="curve"/>
      <point x="724" y="95" type="line"/>
      <point x="792" y="58"/>
      <point x="884" y="-13"/>
      <point x="916" y="-67" type="curve"/>
      <point x="982" y="-95"/>
      <point x="993" y="40"/>
    </contour>
    <contour>
      <point x="542" y="623" type="line"/>
      <point x="517" y="599"/>
      <point x="474" y="561"/>
      <point x="444" y="540" type="curve"/>
      <point x="454" y="530" type="line"/>
      <point x="488" y="542"/>
      <point x="535" y="564"/>
      <point x="563" y="577" type="curve"/>
      <point x="580" y="572"/>
      <point x="589" y="573"/>
      <point x="593" y="581" type="curve"/>
    </contour>
    <contour>
      <point x="168" y="456" type="line"/>
      <point x="168" y="427" type="line"/>
      <point x="325" y="427" type="line"/>
      <point x="325" y="456" type="line"/>
    </contour>
    <contour>
      <point x="152" y="641" type="line"/>
      <point x="151" y="464"/>
      <point x="150" y="169"/>
      <point x="48" y="-59" type="curve"/>
      <point x="67" y="-75" type="line"/>
      <point x="191" y="151"/>
      <point x="197" y="448"/>
      <point x="202" y="641" type="curve"/>
    </contour>
    <contour>
      <point x="155" y="831" type="curve"/>
      <point x="143" y="821" type="line"/>
      <point x="181" y="778"/>
      <point x="224" y="702"/>
      <point x="230" y="640" type="curve"/>
      <point x="287" y="607"/>
      <point x="325" y="728"/>
    </contour>
    <contour>
      <point x="676" y="632" type="curve"/>
      <point x="604" y="642" type="line"/>
      <point x="603" y="559"/>
      <point x="593" y="436"/>
      <point x="585" y="382" type="curve"/>
      <point x="603" y="377"/>
      <point x="619" y="379"/>
      <point x="628" y="389" type="curve"/>
      <point x="635" y="458"/>
      <point x="641" y="557"/>
      <point x="644" y="619" type="curve"/>
      <point x="636" y="608" type="line"/>
      <point x="662" y="610"/>
      <point x="673" y="620"/>
    </contour>
    <contour>
      <point x="664" y="340" type="curve"/>
      <point x="595" y="348" type="line"/>
      <point x="591" y="282"/>
      <point x="585" y="199"/>
      <point x="579" y="143" type="curve"/>
      <point x="620" y="143"/>
      <point x="579" y="143"/>
      <point x="620" y="143" type="curve"/>
      <point x="625" y="198"/>
      <point x="631" y="266"/>
      <point x="634" y="317" type="curve"/>
      <point x="654" y="320"/>
      <point x="661" y="328"/>
    </contour>
  </outline>
</glyph>
<glyph name="uni65DF" format="2">
  <advance width="1000"/>
  <unicode hex="65DF"/>
  <outline>
    <contour>
      <point x="507" y="834" type="line"/>
      <point x="474" y="712"/>
      <point x="416" y="599"/>
      <point x="354" y="528" type="curve"/>
      <point x="368" y="516" type="line"/>
      <point x="387.02" y="532.15"/>
      <point x="405.49" y="550.89"/>
      <point x="423.18" y="571.74" type="curve"/>
      <point x="428.8" y="156" type="line"/>
      <point x="360" y="156" type="line"/>
      <point x="368" y="126" type="line"/>
      <point x="965" y="126" type="line" smooth="yes"/>
      <point x="979" y="126"/>
      <point x="988" y="131"/>
      <point x="990" y="142" type="curve"/>
      <point x="969" y="168"/>
      <point x="932" y="202"/>
      <point x="932" y="202" type="curve"/>
      <point x="901.13" y="156.19" type="line"/>
      <point x="905" y="559" type="line"/>
      <point x="921" y="560"/>
      <point x="930" y="564"/>
      <point x="936" y="570" type="curve"/>
      <point x="881" y="621" type="line"/>
      <point x="853" y="589" type="line"/>
      <point x="761" y="589" type="line"/>
      <point x="769" y="560" type="line"/>
      <point x="861.48" y="560" type="line"/>
      <point x="859.45" y="447" type="line"/>
      <point x="765" y="447" type="line"/>
      <point x="774" y="418" type="line"/>
      <point x="858.93" y="418" type="line"/>
      <point x="856.9" y="305" type="line"/>
      <point x="761" y="305" type="line"/>
      <point x="769" y="276" type="line"/>
      <point x="856.38" y="276" type="line"/>
      <point x="854.23" y="156" type="line"/>
      <point x="727.58" y="156" type="line"/>
      <point x="738" y="406" type="line"/>
      <point x="751" y="409"/>
      <point x="763" y="416"/>
      <point x="767" y="420" type="curve"/>
      <point x="713" y="463" type="line"/>
      <point x="688" y="437" type="line"/>
      <point x="632.36" y="437" type="line"/>
      <point x="634.58" y="464.07"/>
      <point x="636.63" y="492.97"/>
      <point x="638.44" y="521" type="curve"/>
      <point x="748" y="521" type="line" smooth="yes"/>
      <point x="761" y="521"/>
      <point x="769" y="526"/>
      <point x="771" y="537" type="curve"/>
      <point x="750" y="560"/>
      <point x="714" y="588"/>
      <point x="714" y="588" type="curve"/>
      <point x="684" y="551" type="line"/>
      <point x="640.29" y="551" type="line"/>
      <point x="641.54" y="571.79"/>
      <point x="642.63" y="591.49"/>
      <point x="643.5" y="608.85" type="curve"/>
      <point x="664.16" y="612.05"/>
      <point x="673.31" y="621.22"/>
      <point x="676" y="632" type="curve"/>
      <point x="604" y="642" type="line"/>
      <point x="603" y="559"/>
      <point x="593" y="436"/>
      <point x="585" y="382" type="curve"/>
      <point x="603" y="377"/>
      <point x="619" y="379"/>
      <point x="628" y="389" type="curve"/>
      <point x="628.62" y="395.11"/>
      <point x="629.24" y="401.46"/>
      <point x="629.84" y="408" type="curve"/>
      <point x="694.72" y="408" type="line"/>
      <point x="683.62" y="156" type="line"/>
      <point x="621.17" y="156" type="line"/>
      <point x="625.91" y="208.44"/>
      <point x="631.23" y="269.94"/>
      <point x="634" y="317" type="curve"/>
      <point x="654" y="320"/>
      <point x="661" y="328"/>
      <point x="664" y="340" type="curve"/>
      <point x="595" y="348" type="line"/>
      <point x="591.29" y="286.93"/>
      <point x="585.89" y="211.32"/>
      <point x="580.35" y="156" type="curve"/>
      <point x="471.77" y="156" type="line"/>
      <point x="470.05" y="271" type="line"/>
      <point x="555" y="271" type="line" smooth="yes"/>
      <point x="567" y="271"/>
      <point x="576" y="276"/>
      <point x="578" y="287" type="curve"/>
      <point x="561" y="307"/>
      <point x="531" y="331"/>
      <point x="531" y="331" type="curve"/>
      <point x="506" y="301" type="line"/>
      <point x="469.6" y="301" type="line"/>
      <point x="467.9" y="414" type="line"/>
      <point x="557" y="414" type="line" smooth="yes"/>
      <point x="569" y="414"/>
      <point x="578" y="419"/>
      <point x="580" y="430" type="curve"/>
      <point x="563" y="450"/>
      <point x="533" y="474"/>
      <point x="533" y="474" type="curve"/>
      <point x="508" y="443" type="line"/>
      <point x="467.46" y="443" type="line"/>
      <point x="466.08" y="534.47" type="line"/>
      <point x="498.46" y="546.9"/>
      <point x="538.19" y="565.48"/>
      <point x="563" y="577" type="curve"/>
      <point x="580" y="572"/>
      <point x="589" y="573"/>
      <point x="593" y="581" type="curve"/>
      <point x="542" y="623" type="line"/>
      <point x="525.34" y="607"/>
      <point x="500.68" y="584.79"/>
      <point x="477.21" y="565.54" type="curve"/>
      <point x="431.6" y="581.91" type="line"/>
      <point x="452.42" y="607.62"/>
      <point x="472.05" y="636.24"/>
      <point x="490.08" y="667" type="curve"/>
      <point x="929" y="667" type="line" smooth="yes"/>
      <point x="942" y="667"/>
      <point x="952" y="672"/>
      <point x="955" y="683" type="curve"/>
      <point x="925" y="710"/>
      <point x="879" y="747"/>
      <point x="879" y="747" type="curve"/>
      <point x="838" y="696" type="line"/>
      <point x="506.26" y="696" type="line"/>
      <point x="522.14" y="725.89"/>
      <point x="536.5" y="757.44"/>
      <point x="549" y="790" type="curve"/>
      <point x="569" y="789"/>
      <point x="581" y="798"/>
      <point x="585" y="809" type="curve"/>
    </contour>
    <contour>
      <point x="46" y="641" type="line"/>
      <point x="54" y="612" type="line"/>
      <point x="151.83" y="612" type="line"/>
      <point x="150.62" y="433.03"/>
      <point x="144.62" y="156.96"/>
      <point x="48" y="-59" type="curve"/>
      <point x="67" y="-75" type="line"/>
      <point x="150.88" y="77.9"/>
      <point x="180.76" y="263.29"/>
      <point x="192.86" y="427" type="curve"/>
      <point x="307.45" y="427" type="line"/>
      <point x="302.1" y="155.6"/>
      <point x="289.08" y="23.02"/>
      <point x="263" y="-5" type="curve"/>
      <point x="255" y="-13"/>
      <point x="248" y="-15"/>
      <point x="232" y="-15" type="curve" smooth="yes"/>
      <point x="214" y="-15"/>
      <point x="168" y="-11"/>
      <point x="137" y="-9" type="curve"/>
      <point x="137" y="-27" type="line"/>
      <point x="162" y="-30"/>
      <point x="189" y="-37"/>
      <point x="199" y="-44" type="curve" smooth="yes"/>
      <point x="211" y="-52"/>
      <point x="213" y="-66"/>
      <point x="213" y="-79" type="curve"/>
      <point x="242" y="-79"/>
      <point x="274" y="-69"/>
      <point x="295" y="-44" type="curve" smooth="yes"/>
      <point x="329" y="-4"/>
      <point x="346" y="131"/>
      <point x="352" y="423" type="curve"/>
      <point x="371" y="426"/>
      <point x="383" y="430"/>
      <point x="390" y="437" type="curve"/>
      <point x="326" y="490" type="line"/>
      <point x="299" y="456" type="line"/>
      <point x="194.86" y="456" type="line"/>
      <point x="198.36" y="511.74"/>
      <point x="199.99" y="564.49"/>
      <point x="201.25" y="612" type="curve"/>
      <point x="393" y="612" type="line" smooth="yes"/>
      <point x="407" y="612"/>
      <point x="416" y="617"/>
      <point x="419" y="628" type="curve"/>
      <point x="389" y="655"/>
      <point x="343" y="692"/>
      <point x="343" y="692" type="curve"/>
      <point x="302" y="641" type="line"/>
    </contour>
    <contour>
      <point x="734" y="105" type="curve"/>
      <point x="724" y="95" type="line"/>
      <point x="792" y="58"/>
      <point x="884" y="-13"/>
      <point x="916" y="-67" type="curve"/>
      <point x="982" y="-95"/>
      <point x="993" y="40"/>
    </contour>
    <contour>
      <point x="547" y="116" type="line"/>
      <point x="505" y="57"/>
      <point x="421" y="-17"/>
      <point x="340" y="-60" type="curve"/>
      <point x="351" y="-75" type="line"/>
      <point x="441" y="-40"/>
      <point x="533" y="21"/>
      <point x="580" y="72" type="curve"/>
      <point x="602" y="66"/>
      <point x="610" y="70"/>
      <point x="617" y="80" type="curve"/>
    </contour>
    <contour>
      <point x="155" y="831" type="curve"/>
      <point x="143" y="823" type="line"/>
      <point x="181" y="789"/>
      <point x="224" y="728"/>
      <point x="230" y="679" type="curve"/>
      <point x="287" y="652"/>
      <point x="325" y="749"/>
    </contour>
  </outline>
</glyph>
<glyph name="uni6AF8" format="2">
  <advance width="1000"/>
  <unicode hex="6AF8"/>
  <outline>
    <contour>
      <point x="580" y="361" type="line"/>
      <point x="580" y="-72" type="line"/>
      <point x="589" y="-72" type="line" smooth="yes"/>
      <point x="606" y="-72"/>
      <point x="625" y="-61"/>
      <point x="625" y="-53" type="curve" smooth="yes"/>
      <point x="625" y="329" type="line"/>
      <point x="643" y="332"/>
      <point x="651" y="340"/>
      <point x="653" y="352" type="curve"/>
    </contour>
    <contour>
      <point x="419" y="247" type="line"/>
      <point x="427" y="218" type="line"/>
      <point x="791" y="218" type="line" smooth="yes"/>
      <point x="804" y="218"/>
      <point x="813" y="223"/>
      <point x="816" y="233" type="curve"/>
      <point x="791" y="258"/>
      <point x="751" y="290"/>
      <point x="751" y="290" type="curve"/>
      <point x="716" y="247" type="line"/>
    </contour>
    <contour>
      <point x="333" y="124" type="line"/>
      <point x="341" y="94" type="line"/>
      <point x="879" y="94" type="line" smooth="yes"/>
      <point x="892" y="94"/>
      <point x="901" y="99"/>
      <point x="903" y="110" type="curve"/>
      <point x="879" y="135"/>
      <point x="838" y="166"/>
      <point x="838" y="166" type="curve"/>
      <point x="804" y="124" type="line"/>
    </contour>
    <contour>
      <point x="293" y="422" type="line"/>
      <point x="301" y="392" type="line"/>
      <point x="945" y="392" type="line" smooth="yes"/>
      <point x="959" y="392"/>
      <point x="967" y="397"/>
      <point x="970" y="408" type="curve"/>
      <point x="945" y="434"/>
      <point x="902" y="471"/>
      <point x="902" y="471" type="curve"/>
      <point x="866" y="422" type="line"/>
    </contour>
    <contour>
      <point x="368" y="785" type="line"/>
      <point x="372" y="417" type="line"/>
      <point x="416" y="417" type="line"/>
      <point x="411" y="741" type="line"/>
      <point x="431" y="743"/>
      <point x="443" y="749"/>
      <point x="446" y="758" type="curve"/>
    </contour>
    <contour>
      <point x="826" y="780" type="line"/>
      <point x="818" y="415" type="line"/>
      <point x="864" y="415" type="line"/>
      <point x="869" y="750" type="line"/>
      <point x="884" y="751"/>
      <point x="893" y="754"/>
      <point x="899" y="761" type="curve"/>
      <point x="844" y="811" type="line"/>
      <point x="817" y="780" type="line"/>
    </contour>
    <contour>
      <point x="729" y="780" type="line"/>
      <point x="738" y="751" type="line"/>
      <point x="849" y="751" type="line"/>
      <point x="849" y="780" type="line"/>
    </contour>
    <contour>
      <point x="726" y="668" type="line"/>
      <point x="735" y="638" type="line"/>
      <point x="846" y="638" type="line"/>
      <point x="846" y="668" type="line"/>
    </contour>
    <contour>
      <point x="724" y="551" type="line"/>
      <point x="733" y="521" type="line"/>
      <point x="839" y="521" type="line"/>
      <point x="839" y="551" type="line"/>
    </contour>
    <contour>
      <point x="390" y="658" type="line"/>
      <point x="390" y="629" type="line"/>
      <point x="496" y="629" type="line" smooth="yes"/>
      <point x="508" y="629"/>
      <point x="516" y="634"/>
      <point x="519" y="644" type="curve"/>
      <point x="500" y="665"/>
      <point x="472" y="689"/>
      <point x="472" y="689" type="curve"/>
      <point x="447" y="658" type="line"/>
    </contour>
    <contour>
      <point x="396" y="546" type="line"/>
      <point x="396" y="516" type="line"/>
      <point x="501" y="516" type="line" smooth="yes"/>
      <point x="514" y="516"/>
      <point x="522" y="521"/>
      <point x="525" y="532" type="curve"/>
      <point x="506" y="553"/>
      <point x="478" y="576"/>
      <point x="478" y="576" type="curve"/>
      <point x="453" y="546" type="line"/>
    </contour>
    <contour>
      <point x="477" y="418" type="line"/>
      <point x="432" y="328"/>
      <point x="357" y="243"/>
      <point x="265" y="181" type="curve"/>
      <point x="278" y="164" type="line"/>
      <point x="384" y="224"/>
      <point x="471" y="304"/>
      <point x="525" y="402" type="curve"/>
      <point x="525" y="418" type="line"/>
    </contour>
    <contour>
      <point x="715" y="418" type="curve"/>
      <point x="698" y="408" type="line"/>
      <point x="748" y="307"/>
      <point x="839" y="228"/>
      <point x="928" y="184" type="curve"/>
      <point x="934" y="205"/>
      <point x="950" y="217"/>
      <point x="968" y="219" type="curve"/>
      <point x="970" y="228" type="line"/>
      <point x="876" y="261"/>
      <point x="767" y="331"/>
    </contour>
    <contour>
      <point x="482" y="822" type="line"/>
      <point x="464" y="803"/>
      <point x="425" y="765"/>
      <point x="397" y="745" type="curve"/>
      <point x="405" y="734" type="line"/>
      <point x="441" y="746"/>
      <point x="485" y="766"/>
      <point x="508" y="779" type="curve"/>
      <point x="519" y="775"/>
      <point x="527" y="776"/>
      <point x="531" y="781" type="curve"/>
    </contour>
    <contour>
      <point x="44" y="604" type="line"/>
      <point x="52" y="574" type="line"/>
      <point x="339" y="574" type="line" smooth="yes"/>
      <point x="353" y="574"/>
      <point x="362" y="579"/>
      <point x="364" y="590" type="curve"/>
      <point x="339" y="618"/>
      <point x="296" y="655"/>
      <point x="296" y="655" type="curve"/>
      <point x="258" y="604" type="line"/>
    </contour>
    <contour>
      <point x="172" y="604" type="line"/>
      <point x="150" y="449"/>
      <point x="108" y="292"/>
      <point x="39" y="167" type="curve"/>
      <point x="55" y="153" type="line"/>
      <point x="141" y="277"/>
      <point x="193" y="427"/>
      <point x="222" y="588" type="curve"/>
      <point x="222" y="604" type="line"/>
    </contour>
    <contour>
      <point x="181" y="838" type="line"/>
      <point x="181" y="-71" type="line"/>
      <point x="191" y="-71" type="line" smooth="yes"/>
      <point x="207" y="-71"/>
      <point x="226" y="-59"/>
      <point x="226" y="-51" type="curve" smooth="yes"/>
      <point x="226" y="801" type="line"/>
      <point x="250" y="805"/>
      <point x="258" y="814"/>
      <point x="261" y="828" type="curve"/>
    </contour>
    <contour>
      <point x="652" y="645" type="line"/>
      <point x="635" y="415" type="line"/>
      <point x="681" y="415" type="line"/>
      <point x="695" y="614" type="line"/>
      <point x="707" y="617"/>
      <point x="719" y="623"/>
      <point x="724" y="629" type="curve"/>
      <point x="669" y="671" type="line"/>
      <point x="643" y="645" type="line"/>
    </contour>
    <contour>
      <point x="565" y="745" type="line"/>
      <point x="565" y="715" type="line"/>
      <point x="691" y="715" type="line" smooth="yes"/>
      <point x="704" y="715"/>
      <point x="712" y="720"/>
      <point x="715" y="731" type="curve"/>
      <point x="693" y="754"/>
      <point x="658" y="782"/>
      <point x="658" y="782" type="curve"/>
      <point x="628" y="745" type="line"/>
    </contour>
    <contour>
      <point x="571" y="645" type="line"/>
      <point x="571" y="616" type="line"/>
      <point x="668" y="616" type="line"/>
      <point x="668" y="645" type="line"/>
    </contour>
    <contour>
      <point x="630" y="820" type="curve"/>
      <point x="552" y="832" type="line"/>
      <point x="552" y="775"/>
      <point x="541" y="650"/>
      <point x="533" y="592" type="curve"/>
      <point x="551" y="585"/>
      <point x="570" y="588"/>
      <point x="579" y="597" type="curve"/>
      <point x="585" y="657"/>
      <point x="591" y="744"/>
      <point x="594" y="798" type="curve"/>
      <point x="616" y="800"/>
      <point x="626" y="806"/>
    </contour>
    <contour>
      <point x="549" y="562" type="line"/>
      <point x="547" y="522"/>
      <point x="541" y="459"/>
      <point x="536" y="414" type="curve"/>
      <point x="577" y="414" type="line"/>
      <point x="580" y="451"/>
      <point x="585" y="498"/>
      <point x="587" y="535" type="curve"/>
      <point x="603" y="537"/>
      <point x="611" y="545"/>
      <point x="612" y="555" type="curve"/>
    </contour>
    <contour>
      <point x="225" y="430" type="curve"/>
      <point x="212" y="423" type="line"/>
      <point x="247" y="384"/>
      <point x="292" y="318"/>
      <point x="303" y="271" type="curve"/>
      <point x="351" y="234"/>
      <point x="388" y="340"/>
    </contour>
  </outline>
</glyph>
<glyph name="uni6B05" format="2">
  <advance width="1000"/>
  <unicode hex="6B05"/>
  <outline>
    <contour>
      <point x="283" y="435" type="line"/>
      <point x="291" y="405" type="line"/>
      <point x="460.78" y="405" type="line"/>
      <point x="415" y="326.27"/>
      <point x="346.7" y="253.06"/>
      <point x="265" y="198" type="curve"/>
      <point x="278" y="181" type="line"/>
      <point x="378.91" y="238.12"/>
      <point x="462.59" y="313.36"/>
      <point x="516.98" y="405" type="curve"/>
      <point x="708.59" y="405" type="line"/>
      <point x="760.19" y="313.57"/>
      <point x="844.96" y="242.05"/>
      <point x="928" y="201" type="curve"/>
      <point x="934" y="222"/>
      <point x="950" y="234"/>
      <point x="968" y="236" type="curve"/>
      <point x="970" y="245" type="line"/>
      <point x="887.07" y="274.11"/>
      <point x="792.47" y="332.03"/>
      <point x="735.63" y="405" type="curve"/>
      <point x="945" y="405" type="line" smooth="yes"/>
      <point x="958" y="405"/>
      <point x="967" y="410"/>
      <point x="969" y="421" type="curve"/>
      <point x="945" y="447"/>
      <point x="902" y="484"/>
      <point x="902" y="484" type="curve"/>
      <point x="866" y="435" type="line"/>
      <point x="864.2" y="435" type="line"/>
      <point x="869" y="745" type="line"/>
      <point x="884" y="746"/>
      <point x="893" y="749"/>
      <point x="899" y="756" type="curve"/>
      <point x="844" y="806" type="line"/>
      <point x="817" y="775" type="line"/>
      <point x="729" y="775" type="line"/>
      <point x="738" y="746" type="line"/>
      <point x="825.34" y="746" type="line"/>
      <point x="823.46" y="663" type="line"/>
      <point x="726" y="663" type="line"/>
      <point x="735" y="634" type="line"/>
      <point x="822.8" y="634" type="line"/>
      <point x="820.92" y="551" type="line"/>
      <point x="730" y="551" type="line"/>
      <point x="739" y="521" type="line"/>
      <point x="820.24" y="521" type="line"/>
      <point x="818.29" y="435" type="line"/>
      <point x="682.06" y="435" type="line"/>
      <point x="695" y="619" type="line"/>
      <point x="707" y="622"/>
      <point x="719" y="628"/>
      <point x="724" y="634" type="curve"/>
      <point x="669" y="676" type="line"/>
      <point x="643" y="650" type="line"/>
      <point x="583.39" y="650" type="line"/>
      <point x="585.33" y="672.82"/>
      <point x="587.19" y="696.8"/>
      <point x="588.85" y="720" type="curve"/>
      <point x="691" y="720" type="line" smooth="yes"/>
      <point x="704" y="720"/>
      <point x="712" y="725"/>
      <point x="715" y="736" type="curve"/>
      <point x="693" y="759"/>
      <point x="658" y="787"/>
      <point x="658" y="787" type="curve"/>
      <point x="628" y="750" type="line"/>
      <point x="590.92" y="750" type="line"/>
      <point x="592.14" y="768.17"/>
      <point x="593.17" y="785.22"/>
      <point x="594" y="800" type="curve"/>
      <point x="616" y="802"/>
      <point x="626" y="808"/>
      <point x="630" y="822" type="curve"/>
      <point x="552" y="834" type="line"/>
      <point x="552" y="777"/>
      <point x="541" y="655"/>
      <point x="533" y="597" type="curve"/>
      <point x="551" y="590"/>
      <point x="570" y="593"/>
      <point x="579" y="602" type="curve"/>
      <point x="579.61" y="608.1"/>
      <point x="580.22" y="614.46"/>
      <point x="580.83" y="621" type="curve"/>
      <point x="649.86" y="621" type="line"/>
      <point x="636.11" y="435" type="line"/>
      <point x="578.66" y="435" type="line"/>
      <point x="582.08" y="468.91"/>
      <point x="585.28" y="508.15"/>
      <point x="587" y="540" type="curve"/>
      <point x="603" y="542"/>
      <point x="611" y="550"/>
      <point x="612" y="560" type="curve"/>
      <point x="549" y="567" type="line"/>
      <point x="547.23" y="531.54"/>
      <point x="543.1" y="478.04"/>
      <point x="538.01" y="435" type="curve"/>
      <point x="415.8" y="435" type="line"/>
      <point x="414.47" y="521" type="line"/>
      <point x="501" y="521" type="line" smooth="yes"/>
      <point x="514" y="521"/>
      <point x="522" y="526"/>
      <point x="525" y="537" type="curve"/>
      <point x="506" y="558"/>
      <point x="478" y="581"/>
      <point x="478" y="581" type="curve"/>
      <point x="453" y="551" type="line"/>
      <point x="414.01" y="551" type="line"/>
      <point x="412.73" y="634" type="line"/>
      <point x="496" y="634" type="line" smooth="yes"/>
      <point x="508" y="634"/>
      <point x="516" y="639"/>
      <point x="519" y="649" type="curve"/>
      <point x="500" y="670"/>
      <point x="472" y="694"/>
      <point x="472" y="694" type="curve"/>
      <point x="447" y="663" type="line"/>
      <point x="412.28" y="663" type="line"/>
      <point x="411" y="746" type="line"/>
      <point x="425.48" y="747.45"/>
      <point x="435.77" y="750.99"/>
      <point x="441.48" y="756.25" type="curve"/>
      <point x="466.89" y="765.26"/>
      <point x="491.39" y="775.19"/>
      <point x="507" y="783" type="curve"/>
      <point x="518" y="779"/>
      <point x="526" y="779"/>
      <point x="530" y="785" type="curve"/>
      <point x="482" y="827" type="line"/>
      <point x="468.03" y="813.77"/>
      <point x="442.72" y="790.81"/>
      <point x="418.77" y="772.43" type="curve"/>
      <point x="368" y="790" type="line"/>
      <point x="371.86" y="435" type="line"/>
    </contour>
    <contour>
      <point x="44" y="604" type="line"/>
      <point x="52" y="574" type="line"/>
      <point x="167.49" y="574" type="line"/>
      <point x="144.47" y="428.88"/>
      <point x="103.55" y="283.94"/>
      <point x="39" y="167" type="curve"/>
      <point x="55" y="153" type="line"/>
      <point x="109.91" y="232.17"/>
      <point x="150.94" y="321.94"/>
      <point x="181" y="418.4" type="curve"/>
      <point x="181" y="-73" type="line"/>
      <point x="191" y="-73" type="line" smooth="yes"/>
      <point x="207" y="-73"/>
      <point x="226" y="-62"/>
      <point x="226" y="-53" type="curve" smooth="yes"/>
      <point x="226" y="406.6" type="line"/>
      <point x="258.08" y="367.23"/>
      <point x="293.42" y="311.92"/>
      <point x="303" y="271" type="curve"/>
      <point x="350.9" y="234.08"/>
      <point x="387.82" y="339.55"/>
      <point x="226" y="429.43" type="curve"/>
      <point x="226" y="574" type="line"/>
      <point x="339" y="574" type="line" smooth="yes"/>
      <point x="353" y="574"/>
      <point x="362" y="579"/>
      <point x="364" y="590" type="curve"/>
      <point x="339" y="618"/>
      <point x="296" y="655"/>
      <point x="296" y="655" type="curve"/>
      <point x="258" y="604" type="line"/>
      <point x="226" y="604" type="line"/>
      <point x="226" y="794" type="line"/>
      <point x="250" y="798"/>
      <point x="258" y="807"/>
      <point x="261" y="822" type="curve"/>
      <point x="181" y="831" type="line"/>
      <point x="181" y="604" type="line"/>
    </contour>
    <contour>
      <point x="404" y="218" type="line"/>
      <point x="412" y="188" type="line"/>
      <point x="591" y="188" type="line"/>
      <point x="591" y="117" type="line"/>
      <point x="350" y="117" type="line"/>
      <point x="358" y="88" type="line"/>
      <point x="591" y="88" type="line"/>
      <point x="591" y="2" type="line" smooth="yes"/>
      <point x="591" y="-11"/>
      <point x="587" y="-16"/>
      <point x="569" y="-16" type="curve" smooth="yes"/>
      <point x="550" y="-16"/>
      <point x="458" y="-9"/>
      <point x="458" y="-9" type="curve"/>
      <point x="458" y="-25" type="line"/>
      <point x="499" y="-29"/>
      <point x="523" y="-34"/>
      <point x="536" y="-42" type="curve" smooth="yes"/>
      <point x="548" y="-49"/>
      <point x="553" y="-61"/>
      <point x="555" y="-73" type="curve"/>
      <point x="626" y="-65"/>
      <point x="635" y="-38"/>
      <point x="635" y="1" type="curve" smooth="yes"/>
      <point x="635" y="88" type="line"/>
      <point x="873" y="88" type="line" smooth="yes"/>
      <point x="886" y="88"/>
      <point x="895" y="93"/>
      <point x="897" y="104" type="curve"/>
      <point x="873" y="128"/>
      <point x="832" y="160"/>
      <point x="832" y="160" type="curve"/>
      <point x="798" y="117" type="line"/>
      <point x="635" y="117" type="line"/>
      <point x="635" y="188" type="line"/>
      <point x="798" y="188" type="line" smooth="yes"/>
      <point x="811" y="188"/>
      <point x="820" y="193"/>
      <point x="823" y="204" type="curve"/>
      <point x="798" y="229"/>
      <point x="758" y="260"/>
      <point x="758" y="260" type="curve"/>
      <point x="723" y="218" type="line"/>
      <point x="635" y="218" type="line"/>
      <point x="635" y="302.01" type="line"/>
      <point x="657.44" y="307.13"/>
      <point x="678.16" y="312.26"/>
      <point x="696" y="317" type="curve"/>
      <point x="714" y="310"/>
      <point x="729" y="309"/>
      <point x="736" y="316" type="curve"/>
      <point x="686" y="362" type="line"/>
      <point x="631" y="338"/>
      <point x="525" y="305"/>
      <point x="440" y="288" type="curve"/>
      <point x="446" y="269" type="line"/>
      <point x="492.44" y="273.92"/>
      <point x="543.65" y="282.72"/>
      <point x="591" y="292.45" type="curve"/>
      <point x="591" y="218" type="line"/>
    </contour>
  </outline>
</glyph>
<glyph name="uni6B5F" format="2">
  <advance width="1000"/>
  <unicode hex="6B5F"/>
  <outline>
    <contour>
      <point x="346" y="819" type="curve"/>
      <point x="271" y="829" type="line"/>
      <point x="271" y="758"/>
      <point x="258" y="585"/>
      <point x="248" y="514" type="curve"/>
      <point x="268" y="505"/>
      <point x="282" y="509"/>
      <point x="292" y="516" type="curve"/>
      <point x="293.1" y="527.27"/>
      <point x="294.24" y="540.11"/>
      <point x="295.39" y="554" type="curve"/>
      <point x="361.7" y="554" type="line"/>
      <point x="347.58" y="239" type="line"/>
      <point x="285.94" y="239" type="line"/>
      <point x="290.39" y="303.75"/>
      <point x="293.19" y="388.33"/>
      <point x="296" y="437" type="curve"/>
      <point x="315" y="437"/>
      <point x="324" y="449"/>
      <point x="326" y="461" type="curve"/>
      <point x="256" y="468" type="line"/>
      <point x="254.17" y="414.82"/>
      <point x="248.13" y="308.69"/>
      <point x="243.29" y="239" type="curve"/>
      <point x="149.79" y="239" type="line"/>
      <point x="147.05" y="393" type="line"/>
      <point x="220" y="393" type="line" smooth="yes"/>
      <point x="233" y="393"/>
      <point x="240" y="398"/>
      <point x="243" y="409" type="curve"/>
      <point x="227" y="430"/>
      <point x="198" y="457"/>
      <point x="198" y="457" type="curve"/>
      <point x="174" y="423" type="line"/>
      <point x="146.52" y="423" type="line"/>
      <point x="144.05" y="562" type="line"/>
      <point x="215" y="562" type="line" smooth="yes"/>
      <point x="228" y="562"/>
      <point x="237" y="566"/>
      <point x="238" y="577" type="curve"/>
      <point x="222" y="598"/>
      <point x="194" y="626"/>
      <point x="194" y="626" type="curve"/>
      <point x="171" y="591" type="line"/>
      <point x="143.54" y="591" type="line"/>
      <point x="141.19" y="723.23" type="line"/>
      <point x="163.74" y="729.51"/>
      <point x="191.78" y="738.75"/>
      <point x="217" y="748" type="curve"/>
      <point x="230" y="737"/>
      <point x="238" y="737"/>
      <point x="248" y="742" type="curve"/>
      <point x="210" y="799" type="line"/>
      <point x="192.3" y="786.18"/>
      <point x="172.37" y="771.51"/>
      <point x="154.07" y="758.61" type="curve"/>
      <point x="97" y="781" type="line"/>
      <point x="105.81" y="239" type="line"/>
      <point x="39" y="239" type="line"/>
      <point x="46" y="210" type="line"/>
      <point x="620" y="210" type="line" smooth="yes"/>
      <point x="633" y="210"/>
      <point x="642" y="215"/>
      <point x="644" y="226" type="curve"/>
      <point x="623" y="251"/>
      <point x="585" y="288"/>
      <point x="585" y="288" type="curve"/>
      <point x="553" y="239" type="line"/>
      <point x="539.24" y="239" type="line"/>
      <point x="549" y="730" type="line"/>
      <point x="565" y="732"/>
      <point x="574" y="735"/>
      <point x="581" y="742" type="curve"/>
      <point x="525" y="792" type="line"/>
      <point x="498" y="761" type="line"/>
      <point x="429" y="761" type="line"/>
      <point x="437" y="731" type="line"/>
      <point x="505.44" y="731" type="line"/>
      <point x="502.81" y="591" type="line"/>
      <point x="436" y="591" type="line"/>
      <point x="445" y="562" type="line"/>
      <point x="502.27" y="562" type="line"/>
      <point x="499.67" y="423" type="line"/>
      <point x="434" y="423" type="line"/>
      <point x="442" y="393" type="line"/>
      <point x="499.11" y="393" type="line"/>
      <point x="496.22" y="239" type="line"/>
      <point x="390.56" y="239" type="line"/>
      <point x="404" y="553" type="line"/>
      <point x="417" y="555"/>
      <point x="430" y="562"/>
      <point x="434" y="566" type="curve"/>
      <point x="380" y="608" type="line"/>
      <point x="356" y="583" type="line"/>
      <point x="297.74" y="583" type="line"/>
      <point x="300.6" y="619.8"/>
      <point x="303.45" y="660.91"/>
      <point x="305.85" y="699" type="curve"/>
      <point x="399" y="699" type="line" smooth="yes"/>
      <point x="412" y="699"/>
      <point x="421" y="704"/>
      <point x="423" y="715" type="curve"/>
      <point x="405" y="737"/>
      <point x="373" y="765"/>
      <point x="373" y="765" type="curve"/>
      <point x="348" y="729" type="line"/>
      <point x="307.67" y="729" type="line"/>
      <point x="309.08" y="752.95"/>
      <point x="310.24" y="774.69"/>
      <point x="311" y="792" type="curve"/>
      <point x="332" y="796"/>
      <point x="342" y="807"/>
    </contour>
    <contour>
      <point x="792" y="527" type="curve"/>
      <point x="708" y="548" type="line"/>
      <point x="704" y="310"/>
      <point x="686" y="73"/>
      <point x="492" y="-58" type="curve"/>
      <point x="507" y="-76" type="line"/>
      <point x="672.25" y="21.47"/>
      <point x="724.41" y="179.84"/>
      <point x="744.31" y="347.86" type="curve"/>
      <point x="762.6" y="161.04"/>
      <point x="806.64" y="13"/>
      <point x="918" y="-75" type="curve"/>
      <point x="924" y="-51"/>
      <point x="938" y="-46"/>
      <point x="962" y="-44" type="curve"/>
      <point x="965" y="-33" type="line"/>
      <point x="807.5" y="74.25"/>
      <point x="769.51" y="248.72"/>
      <point x="755.4" y="494.02" type="curve"/>
      <point x="755.61" y="498.35"/>
      <point x="755.81" y="502.68"/>
      <point x="756" y="507" type="curve"/>
      <point x="779" y="507"/>
      <point x="789" y="515"/>
    </contour>
    <contour>
      <point x="861" y="636" type="line"/>
      <point x="860.95" y="635.66"/>
      <point x="860.89" y="635.33"/>
      <point x="860.84" y="635" type="curve"/>
      <point x="674.1" y="635" type="line"/>
      <point x="690.24" y="686.17"/>
      <point x="703.63" y="739.95"/>
      <point x="714" y="794" type="curve"/>
      <point x="736" y="795"/>
      <point x="746" y="804"/>
      <point x="749" y="816" type="curve"/>
      <point x="662" y="834" type="line"/>
      <point x="645" y="680"/>
      <point x="605" y="525"/>
      <point x="554" y="418" type="curve"/>
      <point x="569" y="408" type="line"/>
      <point x="606.46" y="461.67"/>
      <point x="638.6" y="530.36"/>
      <point x="664.56" y="606" type="curve"/>
      <point x="855.77" y="606" type="line"/>
      <point x="845.93" y="552.72"/>
      <point x="829.57" y="476.64"/>
      <point x="818" y="432" type="curve"/>
      <point x="832" y="424" type="line"/>
      <point x="860" y="470"/>
      <point x="893" y="551"/>
      <point x="910" y="600" type="curve"/>
      <point x="929" y="601"/>
      <point x="941" y="602"/>
      <point x="948" y="609" type="curve"/>
      <point x="884" y="672" type="line"/>
      <point x="850" y="636" type="line"/>
    </contour>
    <contour>
      <point x="225" y="178" type="line"/>
      <point x="193" y="105"/>
      <point x="126" y="4"/>
      <point x="55" y="-60" type="curve"/>
      <point x="67" y="-74" type="line"/>
      <point x="151" y="-19"/>
      <point x="226" y="67"/>
      <point x="266" y="131" type="curve"/>
      <point x="289" y="127"/>
      <point x="297" y="131"/>
      <point x="303" y="142" type="curve"/>
    </contour>
    <contour>
      <point x="381" y="175" type="curve"/>
      <point x="370" y="166" type="line"/>
      <point x="419" y="135"/>
      <point x="474" y="76"/>
      <point x="487" y="27" type="curve"/>
      <point x="544" y="-9"/>
      <point x="575" y="119"/>
    </contour>
  </outline>
</glyph>
<glyph name="uni74B5" format="2">
  <advance width="1000"/>
  <unicode hex="74B5"/>
  <outline>
    <contour>
      <point x="40" y="93" type="curve"/>
      <point x="83" y="31" type="line"/>
      <point x="91" y="35"/>
      <point x="97" y="44"/>
      <point x="100" y="56" type="curve"/>
      <point x="203" y="108"/>
      <point x="281" y="152"/>
      <point x="337" y="183" type="curve"/>
      <point x="331" y="197" type="line"/>
      <point x="210" y="151"/>
      <point x="91" y="108"/>
    </contour>
    <contour>
      <point x="206" y="733" type="line"/>
      <point x="162" y="733" type="line"/>
      <point x="162" y="102" type="line"/>
      <point x="206" y="115" type="line"/>
    </contour>
    <contour>
      <point x="271" y="482" type="curve"/>
      <point x="235" y="437" type="line"/>
      <point x="49" y="437" type="line"/>
      <point x="57" y="407" type="line"/>
      <point x="311" y="407" type="line" smooth="yes"/>
      <point x="324" y="407"/>
      <point x="334" y="412"/>
      <point x="336" y="423" type="curve"/>
      <point x="311" y="449"/>
      <point x="271" y="482"/>
    </contour>
    <contour>
      <point x="272" y="781" type="curve"/>
      <point x="233" y="733" type="line"/>
      <point x="42" y="733" type="line"/>
      <point x="50" y="703" type="line"/>
      <point x="319" y="703" type="line" smooth="yes"/>
      <point x="332" y="703"/>
      <point x="342" y="708"/>
      <point x="343" y="719" type="curve"/>
      <point x="316" y="746"/>
      <point x="272" y="781"/>
    </contour>
    <contour>
      <point x="553" y="763" type="curve"/>
      <point x="502" y="804" type="line"/>
      <point x="477" y="780"/>
      <point x="434" y="742"/>
      <point x="404" y="722" type="curve"/>
      <point x="414" y="711" type="line"/>
      <point x="448" y="723"/>
      <point x="495" y="746"/>
      <point x="523" y="759" type="curve"/>
      <point x="540" y="754"/>
      <point x="548" y="755"/>
    </contour>
    <contour>
      <point x="685" y="120" type="curve"/>
      <point x="675" y="108" type="line"/>
      <point x="749" y="68"/>
      <point x="852" y="-10"/>
      <point x="887" y="-70" type="curve"/>
      <point x="955" y="-100"/>
      <point x="965" y="41"/>
    </contour>
    <contour>
      <point x="574" y="86" type="curve"/>
      <point x="506" y="124" type="line"/>
      <point x="454" y="60"/>
      <point x="345" y="-18"/>
      <point x="247" y="-62" type="curve"/>
      <point x="258" y="-77" type="line"/>
      <point x="366" y="-42"/>
      <point x="479" y="24"/>
      <point x="538" y="79" type="curve"/>
      <point x="559" y="73"/>
      <point x="567" y="76"/>
    </contour>
    <contour>
      <point x="497" y="395" type="curve"/>
      <point x="472" y="364" type="line"/>
      <point x="406" y="364" type="line"/>
      <point x="406" y="334" type="line"/>
      <point x="520" y="334" type="line" smooth="yes"/>
      <point x="533" y="334"/>
      <point x="542" y="339"/>
      <point x="544" y="350" type="curve"/>
      <point x="526" y="371"/>
      <point x="497" y="395"/>
    </contour>
    <contour>
      <point x="487" y="586" type="curve"/>
      <point x="462" y="555" type="line"/>
      <point x="396" y="555" type="line"/>
      <point x="396" y="525" type="line"/>
      <point x="510" y="525" type="line" smooth="yes"/>
      <point x="523" y="525"/>
      <point x="532" y="530"/>
      <point x="534" y="541" type="curve"/>
      <point x="516" y="562"/>
      <point x="487" y="586"/>
    </contour>
    <contour>
      <point x="680" y="557" type="line"/>
      <point x="579" y="557" type="line"/>
      <point x="579" y="527" type="line"/>
      <point x="680" y="527" type="line"/>
    </contour>
    <contour>
      <point x="683" y="739" type="curve"/>
      <point x="653" y="702" type="line"/>
      <point x="577" y="702" type="line"/>
      <point x="577" y="672" type="line"/>
      <point x="716" y="672" type="line" smooth="yes"/>
      <point x="730" y="672"/>
      <point x="738" y="677"/>
      <point x="741" y="688" type="curve"/>
      <point x="718" y="711"/>
      <point x="683" y="739"/>
    </contour>
    <contour>
      <point x="857" y="364" type="line"/>
      <point x="742" y="364" type="line"/>
      <point x="751" y="334" type="line"/>
      <point x="857" y="334" type="line"/>
    </contour>
    <contour>
      <point x="852" y="555" type="line"/>
      <point x="737" y="555" type="line"/>
      <point x="746" y="525" type="line"/>
      <point x="852" y="525" type="line"/>
    </contour>
    <contour>
      <point x="857" y="751" type="line"/>
      <point x="737" y="751" type="line"/>
      <point x="746" y="721" type="line"/>
      <point x="857" y="721" type="line"/>
    </contour>
    <contour>
      <point x="659" y="557" type="line"/>
      <point x="666" y="557" type="line"/>
      <point x="654" y="169" type="line"/>
      <point x="698" y="169" type="line"/>
      <point x="709" y="525" type="line"/>
      <point x="722" y="528"/>
      <point x="735" y="534"/>
      <point x="739" y="540" type="curve"/>
      <point x="685" y="584" type="line"/>
    </contour>
    <contour>
      <point x="833" y="751" type="line"/>
      <point x="842" y="751" type="line"/>
      <point x="832" y="167" type="line"/>
      <point x="879" y="167" type="line"/>
      <point x="885" y="720" type="line"/>
      <point x="902" y="722"/>
      <point x="911" y="726"/>
      <point x="917" y="732" type="curve"/>
      <point x="861" y="784" type="line"/>
    </contour>
    <contour>
      <point x="454" y="737" type="curve"/>
      <point x="375" y="766" type="line"/>
      <point x="384" y="171" type="line"/>
      <point x="426" y="171" type="line"/>
      <point x="418" y="721" type="line"/>
      <point x="440" y="724"/>
      <point x="451" y="729"/>
    </contour>
    <contour>
      <point x="908" y="239" type="curve"/>
      <point x="878" y="185" type="line"/>
      <point x="327" y="185" type="line"/>
      <point x="335" y="155" type="line"/>
      <point x="940" y="155" type="line" smooth="yes"/>
      <point x="954" y="155"/>
      <point x="962" y="160"/>
      <point x="964" y="171" type="curve"/>
      <point x="946" y="199"/>
      <point x="908" y="239"/>
    </contour>
    <contour>
      <point x="560" y="445" type="line"/>
      <point x="557" y="363"/>
      <point x="552" y="246"/>
      <point x="543" y="169" type="curve"/>
      <point x="586" y="169" type="line"/>
      <point x="593" y="247"/>
      <point x="598" y="346"/>
      <point x="602" y="414" type="curve"/>
      <point x="618" y="417"/>
      <point x="625" y="425"/>
      <point x="627" y="435" type="curve"/>
    </contour>
    <contour>
      <point x="643" y="816" type="curve"/>
      <point x="567" y="828" type="line"/>
      <point x="567" y="742"/>
      <point x="555" y="571"/>
      <point x="546" y="496" type="curve"/>
      <point x="565" y="489"/>
      <point x="584" y="491"/>
      <point x="592" y="501" type="curve"/>
      <point x="600" y="589"/>
      <point x="608" y="731"/>
      <point x="610" y="807" type="curve"/>
      <point x="599" y="792" type="line"/>
      <point x="627" y="793"/>
      <point x="639" y="804"/>
    </contour>
  </outline>
</glyph>
<glyph name="uni791C" format="2">
  <advance width="1000"/>
  <unicode hex="791C"/>
  <outline>
    <contour>
      <point x="636" y="791" type="line"/>
      <point x="645" y="761" type="line"/>
      <point x="802.23" y="761" type="line"/>
      <point x="796.82" y="669" type="line"/>
      <point x="649" y="669" type="line"/>
      <point x="658" y="639" type="line"/>
      <point x="795.06" y="639" type="line"/>
      <point x="789.47" y="544" type="line"/>
      <point x="641" y="544" type="line"/>
      <point x="650" y="514" type="line"/>
      <point x="787.7" y="514" type="line"/>
      <point x="781.82" y="414" type="line"/>
      <point x="586.36" y="414" type="line"/>
      <point x="600" y="605" type="line"/>
      <point x="615" y="606"/>
      <point x="623" y="609"/>
      <point x="630" y="616" type="curve"/>
      <point x="579" y="663" type="line"/>
      <point x="553" y="635" type="line"/>
      <point x="446.16" y="635" type="line"/>
      <point x="449.06" y="659.21"/>
      <point x="451.7" y="684.72"/>
      <point x="453.95" y="709" type="curve"/>
      <point x="628" y="709" type="line" smooth="yes"/>
      <point x="641" y="709"/>
      <point x="650" y="714"/>
      <point x="652" y="725" type="curve"/>
      <point x="631" y="748"/>
      <point x="596" y="775"/>
      <point x="596" y="775" type="curve"/>
      <point x="566" y="739" type="line"/>
      <point x="456.6" y="739" type="line"/>
      <point x="458.52" y="761.88"/>
      <point x="460.03" y="782.42"/>
      <point x="461" y="798" type="curve"/>
      <point x="487" y="801"/>
      <point x="496" y="812"/>
      <point x="499" y="826" type="curve"/>
      <point x="421" y="833" type="line"/>
      <point x="421" y="775"/>
      <point x="406" y="638"/>
      <point x="395" y="584" type="curve"/>
      <point x="415" y="579"/>
      <point x="432" y="581"/>
      <point x="440" y="589" type="curve"/>
      <point x="440.83" y="594.48"/>
      <point x="441.65" y="600.16"/>
      <point x="442.45" y="606" type="curve"/>
      <point x="558.95" y="606" type="line"/>
      <point x="545.35" y="414" type="line"/>
      <point x="438.91" y="414" type="line"/>
      <point x="443.66" y="451.69"/>
      <point x="449.49" y="500.23"/>
      <point x="453" y="538" type="curve"/>
      <point x="472" y="539"/>
      <point x="483" y="550"/>
      <point x="485" y="563" type="curve"/>
      <point x="415" y="568" type="line"/>
      <point x="410.56" y="520.07"/>
      <point x="402.98" y="456.38"/>
      <point x="396.43" y="414" type="curve"/>
      <point x="210.53" y="414" type="line"/>
      <point x="206.91" y="514" type="line"/>
      <point x="351" y="514" type="line" smooth="yes"/>
      <point x="365" y="514"/>
      <point x="372" y="519"/>
      <point x="375" y="530" type="curve"/>
      <point x="355" y="552"/>
      <point x="322" y="579"/>
      <point x="322" y="579" type="curve"/>
      <point x="294" y="544" type="line"/>
      <point x="205.83" y="544" type="line"/>
      <point x="202.4" y="639" type="line"/>
      <point x="348" y="639" type="line" smooth="yes"/>
      <point x="361" y="639"/>
      <point x="369" y="644"/>
      <point x="371" y="655" type="curve"/>
      <point x="352" y="677"/>
      <point x="320" y="703"/>
      <point x="320" y="703" type="curve"/>
      <point x="293" y="669" type="line"/>
      <point x="201.32" y="669" type="line"/>
      <point x="198.35" y="751.29" type="line"/>
      <point x="254.97" y="760.81"/>
      <point x="317.99" y="777.02"/>
      <point x="353" y="789" type="curve"/>
      <point x="365" y="783"/>
      <point x="373" y="783"/>
      <point x="378" y="788" type="curve"/>
      <point x="334" y="835" type="line"/>
      <point x="310.1" y="821.24"/>
      <point x="266.8" y="799.1"/>
      <point x="224.98" y="780.71" type="curve"/>
      <point x="153" y="805" type="line"/>
      <point x="167.52" y="414" type="line"/>
      <point x="44" y="414" type="line"/>
      <point x="53" y="384" type="line"/>
      <point x="265.83" y="384" type="line"/>
      <point x="217.46" y="303.77"/>
      <point x="130.19" y="227.82"/>
      <point x="35" y="178" type="curve"/>
      <point x="43" y="163" type="line"/>
      <point x="114.72" y="191.58"/>
      <point x="183.3" y="230.84"/>
      <point x="240.65" y="280.06" type="curve"/>
      <point x="246" y="260" type="line"/>
      <point x="350.26" y="260" type="line"/>
      <point x="293.94" y="168.34"/>
      <point x="192.32" y="79.72"/>
      <point x="85" y="22" type="curve"/>
      <point x="95" y="7" type="line"/>
      <point x="156.32" y="33.86"/>
      <point x="216.24" y="68.53"/>
      <point x="270" y="109.76" type="curve"/>
      <point x="270" y="-74" type="line"/>
      <point x="277" y="-74" type="line" smooth="yes"/>
      <point x="299" y="-74"/>
      <point x="314" y="-61"/>
      <point x="314" y="-56" type="curve" smooth="yes"/>
      <point x="314" y="-23" type="line"/>
      <point x="737" y="-23" type="line"/>
      <point x="737" y="-71" type="line"/>
      <point x="743" y="-71" type="line" smooth="yes"/>
      <point x="758" y="-71"/>
      <point x="780" y="-59"/>
      <point x="781" y="-53" type="curve"/>
      <point x="781" y="122" type="line"/>
      <point x="800" y="126"/>
      <point x="818" y="134"/>
      <point x="825" y="142" type="curve"/>
      <point x="757" y="193" type="line"/>
      <point x="727" y="162" type="line"/>
      <point x="330.94" y="162" type="line"/>
      <point x="362.36" y="192.2"/>
      <point x="390.36" y="224.98"/>
      <point x="413.59" y="260" type="curve"/>
      <point x="745" y="260" type="line" smooth="yes"/>
      <point x="759" y="260"/>
      <point x="768" y="265"/>
      <point x="770" y="276" type="curve"/>
      <point x="741" y="302"/>
      <point x="696" y="337"/>
      <point x="696" y="337" type="curve"/>
      <point x="655" y="290" type="line"/>
      <point x="251.93" y="290" type="line"/>
      <point x="283.14" y="318.27"/>
      <point x="310.69" y="349.64"/>
      <point x="333.13" y="384" type="curve"/>
      <point x="705.11" y="384" type="line"/>
      <point x="753.78" y="292.6"/>
      <point x="838.15" y="212.48"/>
      <point x="927" y="169" type="curve"/>
      <point x="933" y="188"/>
      <point x="948" y="200"/>
      <point x="968" y="203" type="curve"/>
      <point x="971" y="214" type="line"/>
      <point x="887.45" y="246"/>
      <point x="787.31" y="310.39"/>
      <point x="733.78" y="384" type="curve"/>
      <point x="936" y="384" type="line" smooth="yes"/>
      <point x="949" y="384"/>
      <point x="959" y="389"/>
      <point x="960" y="400" type="curve"/>
      <point x="935" y="426"/>
      <point x="894" y="460"/>
      <point x="894" y="460" type="curve"/>
      <point x="858" y="414" type="line"/>
      <point x="826.78" y="414" type="line"/>
      <point x="846" y="761" type="line"/>
      <point x="862" y="761"/>
      <point x="871" y="764"/>
      <point x="878" y="771" type="curve"/>
      <point x="823" y="822" type="line"/>
      <point x="795" y="791" type="line"/>
    </contour>
    <contour>
      <point x="314" y="7" type="line"/>
      <point x="314" y="132" type="line"/>
      <point x="737" y="132" type="line"/>
      <point x="737" y="7" type="line"/>
    </contour>
  </outline>
</glyph>
<glyph name="uni7A65" format="2">
  <advance width="1000"/>
  <unicode hex="7A65"/>
  <outline>
    <contour>
      <point x="46" y="544" type="line"/>
      <point x="54" y="514" type="line"/>
      <point x="333" y="514" type="line" smooth="yes"/>
      <point x="347" y="514"/>
      <point x="356" y="519"/>
      <point x="359" y="530" type="curve"/>
      <point x="331" y="557"/>
      <point x="289" y="590"/>
      <point x="289" y="590" type="curve"/>
      <point x="251" y="544" type="line"/>
    </contour>
    <contour>
      <point x="181" y="544" type="line"/>
      <point x="157" y="398"/>
      <point x="110" y="250"/>
      <point x="37" y="134" type="curve"/>
      <point x="51" y="120" type="line"/>
      <point x="144" y="235"/>
      <point x="201" y="374"/>
      <point x="233" y="528" type="curve"/>
      <point x="233" y="544" type="line"/>
    </contour>
    <contour>
      <point x="192" y="752" type="line"/>
      <point x="192" y="-73" type="line"/>
      <point x="198" y="-73" type="line" smooth="yes"/>
      <point x="220" y="-73"/>
      <point x="237" y="-61"/>
      <point x="237" y="-55" type="curve" smooth="yes"/>
      <point x="237" y="769" type="line"/>
    </contour>
    <contour>
      <point x="305" y="832" type="line"/>
      <point x="248" y="796"/>
      <point x="133" y="741"/>
      <point x="43" y="710" type="curve"/>
      <point x="50" y="694" type="line"/>
      <point x="145" y="714"/>
      <point x="258" y="754"/>
      <point x="327" y="781" type="curve"/>
      <point x="348" y="775"/>
      <point x="364" y="775"/>
      <point x="370" y="784" type="curve"/>
    </contour>
    <contour>
      <point x="321" y="185" type="line"/>
      <point x="329" y="156" type="line"/>
      <point x="955" y="156" type="line" smooth="yes"/>
      <point x="967" y="156"/>
      <point x="976" y="161"/>
      <point x="979" y="171" type="curve"/>
      <point x="957" y="199"/>
      <point x="916" y="236"/>
      <point x="916" y="236" type="curve"/>
      <point x="881" y="185" type="line"/>
    </contour>
    <contour>
      <point x="370" y="766" type="line"/>
      <point x="379" y="171" type="line"/>
      <point x="422" y="171" type="line"/>
      <point x="414" y="721" type="line"/>
      <point x="435" y="724"/>
      <point x="446" y="729"/>
      <point x="449" y="738" type="curve"/>
    </contour>
    <contour>
      <point x="845" y="752" type="line"/>
      <point x="835" y="168" type="line"/>
      <point x="883" y="168" type="line"/>
      <point x="889" y="721" type="line"/>
      <point x="905" y="723"/>
      <point x="914" y="727"/>
      <point x="921" y="733" type="curve"/>
      <point x="864" y="784" type="line"/>
      <point x="836" y="752" type="line"/>
    </contour>
    <contour>
      <point x="671" y="558" type="line"/>
      <point x="657" y="170" type="line"/>
      <point x="702" y="170" type="line"/>
      <point x="714" y="526" type="line"/>
      <point x="727" y="529"/>
      <point x="740" y="535"/>
      <point x="744" y="541" type="curve"/>
      <point x="690" y="584" type="line"/>
      <point x="664" y="558" type="line"/>
    </contour>
    <contour>
      <point x="744" y="752" type="line"/>
      <point x="753" y="722" type="line"/>
      <point x="864" y="722" type="line"/>
      <point x="864" y="752" type="line"/>
    </contour>
    <contour>
      <point x="744" y="556" type="line"/>
      <point x="753" y="526" type="line"/>
      <point x="859" y="526" type="line"/>
      <point x="859" y="556" type="line"/>
    </contour>
    <contour>
      <point x="736" y="365" type="line"/>
      <point x="745" y="335" type="line"/>
      <point x="861" y="335" type="line"/>
      <point x="861" y="365" type="line"/>
    </contour>
    <contour>
      <point x="583" y="702" type="line"/>
      <point x="583" y="673" type="line"/>
      <point x="732" y="673" type="line" smooth="yes"/>
      <point x="745" y="673"/>
      <point x="754" y="678"/>
      <point x="756" y="689" type="curve"/>
      <point x="734" y="711"/>
      <point x="698" y="740"/>
      <point x="698" y="740" type="curve"/>
      <point x="668" y="702" type="line"/>
    </contour>
    <contour>
      <point x="580" y="558" type="line"/>
      <point x="580" y="528" type="line"/>
      <point x="682" y="528" type="line"/>
      <point x="682" y="558" type="line"/>
    </contour>
    <contour>
      <point x="391" y="556" type="line"/>
      <point x="391" y="526" type="line"/>
      <point x="519" y="526" type="line" smooth="yes"/>
      <point x="532" y="526"/>
      <point x="541" y="531"/>
      <point x="543" y="542" type="curve"/>
      <point x="525" y="563"/>
      <point x="496" y="586"/>
      <point x="496" y="586" type="curve"/>
      <point x="471" y="556" type="line"/>
    </contour>
    <contour>
      <point x="401" y="365" type="line"/>
      <point x="401" y="335" type="line"/>
      <point x="525" y="335" type="line" smooth="yes"/>
      <point x="538" y="335"/>
      <point x="546" y="340"/>
      <point x="549" y="351" type="curve"/>
      <point x="530" y="371"/>
      <point x="501" y="395"/>
      <point x="501" y="395" type="curve"/>
      <point x="477" y="365" type="line"/>
    </contour>
    <contour>
      <point x="515" y="122" type="line"/>
      <point x="473" y="57"/>
      <point x="383" y="-18"/>
      <point x="294" y="-58" type="curve"/>
      <point x="303" y="-73" type="line"/>
      <point x="404" y="-41"/>
      <point x="500" y="22"/>
      <point x="550" y="79" type="curve"/>
      <point x="571" y="74"/>
      <point x="579" y="78"/>
      <point x="586" y="88" type="curve"/>
    </contour>
    <contour>
      <point x="713" y="112" type="curve"/>
      <point x="703" y="102" type="line"/>
      <point x="772" y="62"/>
      <point x="865" y="-12"/>
      <point x="896" y="-70" type="curve"/>
      <point x="961" y="-99"/>
      <point x="975" y="38"/>
    </contour>
    <contour>
      <point x="494" y="804" type="line"/>
      <point x="469" y="780"/>
      <point x="426" y="742"/>
      <point x="396" y="721" type="curve"/>
      <point x="406" y="711" type="line"/>
      <point x="439" y="723"/>
      <point x="487" y="746"/>
      <point x="514" y="759" type="curve"/>
      <point x="532" y="754"/>
      <point x="541" y="755"/>
      <point x="545" y="762" type="curve"/>
    </contour>
    <contour>
      <point x="237" y="407" type="curve"/>
      <point x="225" y="399" type="line"/>
      <point x="259" y="365"/>
      <point x="305" y="306"/>
      <point x="319" y="264" type="curve"/>
      <point x="367" y="232"/>
      <point x="401" y="329"/>
    </contour>
    <contour>
      <point x="560" y="445" type="line"/>
      <point x="558" y="363"/>
      <point x="553" y="246"/>
      <point x="546" y="169" type="curve"/>
      <point x="590" y="169" type="line"/>
      <point x="595" y="247"/>
      <point x="600" y="346"/>
      <point x="603" y="414" type="curve"/>
      <point x="619" y="417"/>
      <point x="626" y="425"/>
      <point x="628" y="435" type="curve"/>
    </contour>
    <contour>
      <point x="642" y="816" type="curve"/>
      <point x="565" y="828" type="line"/>
      <point x="567" y="742"/>
      <point x="555" y="572"/>
      <point x="547" y="496" type="curve"/>
      <point x="564" y="490"/>
      <point x="585" y="491"/>
      <point x="593" y="498" type="curve"/>
      <point x="599" y="586"/>
      <point x="608" y="731"/>
      <point x="609" y="807" type="curve"/>
      <point x="598" y="792" type="line"/>
      <point x="626" y="793"/>
      <point x="638" y="804"/>
    </contour>
  </outline>
</glyph>
<glyph name="uni7C45" format="2">
  <advance width="1000"/>
  <unicode hex="7C45"/>
  <outline>
    <contour>
      <point x="200" y="841" type="line"/>
      <point x="160" y="736"/>
      <point x="97" y="637"/>
      <point x="39" y="578" type="curve"/>
      <point x="52" y="565" type="line"/>
      <point x="119" y="618"/>
      <point x="186" y="703"/>
      <point x="233" y="796" type="curve"/>
      <point x="252" y="794"/>
      <point x="265" y="802"/>
      <point x="269" y="812" type="curve"/>
    </contour>
    <contour>
      <point x="253" y="728" type="curve"/>
      <point x="241" y="720" type="line"/>
      <point x="268" y="696"/>
      <point x="301" y="651"/>
      <point x="308" y="619" type="curve"/>
      <point x="353" y="586"/>
      <point x="389" y="676"/>
    </contour>
    <contour>
      <point x="577" y="841" type="line"/>
      <point x="550" y="761"/>
      <point x="507" y="684"/>
      <point x="468" y="635" type="curve"/>
      <point x="484" y="625" type="line"/>
      <point x="530" y="665"/>
      <point x="578" y="730"/>
      <point x="612" y="797" type="curve"/>
      <point x="632" y="795"/>
      <point x="644" y="803"/>
      <point x="648" y="814" type="curve"/>
    </contour>
    <contour>
      <point x="633" y="730" type="curve"/>
      <point x="623" y="722" type="line"/>
      <point x="655" y="695"/>
      <point x="694" y="646"/>
      <point x="704" y="610" type="curve"/>
      <point x="754" y="576"/>
      <point x="788" y="678"/>
    </contour>
    <contour>
      <point x="167" y="739" type="line"/>
      <point x="167" y="709" type="line"/>
      <point x="492" y="709" type="line" smooth="yes"/>
      <point x="505" y="709"/>
      <point x="514" y="714"/>
      <point x="517" y="725" type="curve"/>
      <point x="492" y="750"/>
      <point x="452" y="781"/>
      <point x="452" y="781" type="curve"/>
      <point x="418" y="739" type="line"/>
    </contour>
    <contour>
      <point x="544" y="739" type="line"/>
      <point x="544" y="709" type="line"/>
      <point x="927" y="709" type="line" smooth="yes"/>
      <point x="941" y="709"/>
      <point x="950" y="714"/>
      <point x="953" y="725" type="curve"/>
      <point x="925" y="753"/>
      <point x="880" y="789"/>
      <point x="880" y="789" type="curve"/>
      <point x="840" y="739" type="line"/>
    </contour>
    <contour>
      <point x="658" y="565" type="line"/>
      <point x="667" y="536" type="line"/>
      <point x="844" y="536" type="line"/>
      <point x="844" y="565" type="line"/>
    </contour>
    <contour>
      <point x="669" y="431" type="line"/>
      <point x="678" y="401" type="line"/>
      <point x="840" y="401" type="line"/>
      <point x="840" y="431" type="line"/>
    </contour>
    <contour>
      <point x="664" y="284" type="line"/>
      <point x="673" y="254" type="line"/>
      <point x="845" y="254" type="line"/>
      <point x="845" y="284" type="line"/>
    </contour>
    <contour>
      <point x="820" y="565" type="line"/>
      <point x="810" y="124" type="line"/>
      <point x="853" y="124" type="line"/>
      <point x="863" y="535" type="line"/>
      <point x="879" y="536"/>
      <point x="888" y="540"/>
      <point x="894" y="547" type="curve"/>
      <point x="838" y="597" type="line"/>
      <point x="811" y="565" type="line"/>
    </contour>
    <contour>
      <point x="150" y="572" type="line"/>
      <point x="162" y="124" type="line"/>
      <point x="204" y="124" type="line"/>
      <point x="194" y="519" type="line"/>
      <point x="213" y="522"/>
      <point x="226" y="527"/>
      <point x="230" y="534" type="curve"/>
    </contour>
    <contour>
      <point x="176" y="431" type="line"/>
      <point x="176" y="401" type="line"/>
      <point x="346" y="401" type="line" smooth="yes"/>
      <point x="359" y="401"/>
      <point x="368" y="406"/>
      <point x="369" y="417" type="curve"/>
      <point x="347" y="440"/>
      <point x="311" y="469"/>
      <point x="311" y="469" type="curve"/>
      <point x="280" y="431" type="line"/>
    </contour>
    <contour>
      <point x="181" y="284" type="line"/>
      <point x="181" y="254" type="line"/>
      <point x="349" y="254" type="line" smooth="yes"/>
      <point x="363" y="254"/>
      <point x="371" y="259"/>
      <point x="373" y="270" type="curve"/>
      <point x="350" y="294"/>
      <point x="312" y="324"/>
      <point x="312" y="324" type="curve"/>
      <point x="280" y="284" type="line"/>
    </contour>
    <contour>
      <point x="336" y="617" type="line"/>
      <point x="302" y="592"/>
      <point x="230" y="550"/>
      <point x="175" y="527" type="curve"/>
      <point x="180" y="513" type="line"/>
      <point x="245" y="527"/>
      <point x="320" y="554"/>
      <point x="361" y="570" type="curve"/>
      <point x="373" y="565"/>
      <point x="382" y="565"/>
      <point x="387" y="571" type="curve"/>
    </contour>
    <contour>
      <point x="426" y="413" type="line"/>
      <point x="426" y="383" type="line"/>
      <point x="588" y="383" type="line"/>
      <point x="588" y="413" type="line"/>
    </contour>
    <contour>
      <point x="427" y="533" type="line"/>
      <point x="427" y="503" type="line"/>
      <point x="615" y="503" type="line" smooth="yes"/>
      <point x="628" y="503"/>
      <point x="636" y="508"/>
      <point x="639" y="519" type="curve"/>
      <point x="615" y="544"/>
      <point x="575" y="574"/>
      <point x="575" y="574" type="curve"/>
      <point x="542" y="533" type="line"/>
    </contour>
    <contour>
      <point x="570" y="413" type="line"/>
      <point x="548" y="125" type="line"/>
      <point x="593" y="125" type="line"/>
      <point x="612" y="379" type="line"/>
      <point x="627" y="382"/>
      <point x="640" y="388"/>
      <point x="645" y="395" type="curve"/>
      <point x="587" y="443" type="line"/>
      <point x="560" y="413" type="line"/>
    </contour>
    <contour>
      <point x="421" y="329" type="line"/>
      <point x="417" y="267"/>
      <point x="410" y="192"/>
      <point x="399" y="130" type="curve"/>
      <point x="442" y="130" type="line"/>
      <point x="450" y="184"/>
      <point x="458" y="248"/>
      <point x="461" y="298" type="curve"/>
      <point x="481" y="300"/>
      <point x="489" y="308"/>
      <point x="491" y="320" type="curve"/>
    </contour>
    <contour>
      <point x="39" y="137" type="line"/>
      <point x="47" y="107" type="line"/>
      <point x="945" y="107" type="line" smooth="yes"/>
      <point x="958" y="107"/>
      <point x="967" y="112"/>
      <point x="969" y="123" type="curve"/>
      <point x="944" y="151"/>
      <point x="899" y="189"/>
      <point x="899" y="189" type="curve"/>
      <point x="861" y="137" type="line"/>
    </contour>
    <contour>
      <point x="615" y="85" type="curve"/>
      <point x="609" y="66" type="line"/>
      <point x="740" y="28"/>
      <point x="837" y="-21"/>
      <point x="893" y="-67" type="curve"/>
      <point x="952" y="-107"/>
      <point x="1019" y="14"/>
    </contour>
    <contour>
      <point x="346" y="94" type="line"/>
      <point x="287" y="42"/>
      <point x="163" y="-26"/>
      <point x="55" y="-61" type="curve"/>
      <point x="62" y="-78" type="line"/>
      <point x="176" y="-52"/>
      <point x="301" y="2"/>
      <point x="371" y="45" type="curve"/>
      <point x="393" y="39"/>
      <point x="408" y="40"/>
      <point x="415" y="49" type="curve"/>
    </contour>
    <contour>
      <point x="421" y="623" type="line"/>
      <point x="420" y="557"/>
      <point x="405" y="419"/>
      <point x="393" y="352" type="curve"/>
      <point x="413" y="347"/>
      <point x="430" y="349"/>
      <point x="438" y="357" type="curve"/>
      <point x="449" y="432"/>
      <point x="458" y="533"/>
      <point x="461" y="588" type="curve"/>
      <point x="487" y="591"/>
      <point x="496" y="602"/>
      <point x="499" y="616" type="curve"/>
    </contour>
  </outline>
</glyph>
<glyph name="uni8207" format="2">
  <advance width="1000"/>
  <unicode hex="8207"/>
  <outline>
    <contour>
      <point x="492" y="819" type="curve"/>
      <point x="415" y="832" type="line"/>
      <point x="414" y="752"/>
      <point x="397" y="580"/>
      <point x="384" y="505" type="curve"/>
      <point x="404" y="498"/>
      <point x="424" y="500"/>
      <point x="434" y="514" type="curve"/>
      <point x="443" y="593"/>
      <point x="455" y="717"/>
      <point x="458" y="796" type="curve"/>
      <point x="478" y="797"/>
      <point x="488" y="807"/>
    </contour>
    <contour>
      <point x="653" y="761" type="line"/>
      <point x="662" y="731" type="line"/>
      <point x="839" y="731" type="line"/>
      <point x="839" y="761" type="line"/>
    </contour>
    <contour>
      <point x="664" y="579" type="line"/>
      <point x="673" y="550" type="line"/>
      <point x="831" y="550" type="line"/>
      <point x="831" y="579" type="line"/>
    </contour>
    <contour>
      <point x="649" y="395" type="line"/>
      <point x="658" y="366" type="line"/>
      <point x="826" y="366" type="line"/>
      <point x="826" y="395" type="line"/>
    </contour>
    <contour>
      <point x="814" y="761" type="line"/>
      <point x="801" y="193" type="line"/>
      <point x="844" y="193" type="line"/>
      <point x="857" y="730" type="line"/>
      <point x="874" y="732"/>
      <point x="883" y="736"/>
      <point x="889" y="742" type="curve"/>
      <point x="832" y="793" type="line"/>
      <point x="805" y="761" type="line"/>
    </contour>
    <contour>
      <point x="136" y="775" type="line"/>
      <point x="151" y="194" type="line"/>
      <point x="195" y="194" type="line"/>
      <point x="182" y="721" type="line"/>
      <point x="202" y="724"/>
      <point x="214" y="729"/>
      <point x="218" y="736" type="curve"/>
    </contour>
    <contour>
      <point x="164" y="579" type="line"/>
      <point x="164" y="550" type="line"/>
      <point x="323" y="550" type="line" smooth="yes"/>
      <point x="337" y="550"/>
      <point x="345" y="555"/>
      <point x="348" y="565" type="curve"/>
      <point x="325" y="589"/>
      <point x="289" y="618"/>
      <point x="289" y="618" type="curve"/>
      <point x="257" y="579" type="line"/>
    </contour>
    <contour>
      <point x="169" y="395" type="line"/>
      <point x="169" y="366" type="line"/>
      <point x="336" y="366" type="line" smooth="yes"/>
      <point x="350" y="366"/>
      <point x="359" y="370"/>
      <point x="361" y="381" type="curve"/>
      <point x="337" y="405"/>
      <point x="300" y="435"/>
      <point x="300" y="435" type="curve"/>
      <point x="267" y="395" type="line"/>
    </contour>
    <contour>
      <point x="323" y="837" type="line"/>
      <point x="289" y="807"/>
      <point x="215" y="750"/>
      <point x="158" y="718" type="curve"/>
      <point x="165" y="705" type="line"/>
      <point x="233" y="729"/>
      <point x="310" y="769"/>
      <point x="351" y="793" type="curve"/>
      <point x="364" y="788"/>
      <point x="372" y="789"/>
      <point x="377" y="795" type="curve"/>
    </contour>
    <contour>
      <point x="421" y="579" type="line"/>
      <point x="421" y="550" type="line"/>
      <point x="583" y="550" type="line"/>
      <point x="583" y="579" type="line"/>
    </contour>
    <contour>
      <point x="422" y="731" type="line"/>
      <point x="422" y="701" type="line"/>
      <point x="607" y="701" type="line" smooth="yes"/>
      <point x="620" y="701"/>
      <point x="629" y="706"/>
      <point x="631" y="717" type="curve"/>
      <point x="607" y="742"/>
      <point x="567" y="772"/>
      <point x="567" y="772" type="curve"/>
      <point x="534" y="731" type="line"/>
    </contour>
    <contour>
      <point x="564" y="579" type="line"/>
      <point x="544" y="196" type="line"/>
      <point x="590" y="196" type="line"/>
      <point x="608" y="546" type="line"/>
      <point x="623" y="548"/>
      <point x="636" y="555"/>
      <point x="642" y="562" type="curve"/>
      <point x="583" y="608" type="line"/>
      <point x="556" y="579" type="line"/>
    </contour>
    <contour>
      <point x="39" y="209" type="line"/>
      <point x="47" y="179" type="line"/>
      <point x="945" y="179" type="line" smooth="yes"/>
      <point x="958" y="179"/>
      <point x="967" y="184"/>
      <point x="969" y="195" type="curve"/>
      <point x="944" y="223"/>
      <point x="899" y="261"/>
      <point x="899" y="261" type="curve"/>
      <point x="861" y="209" type="line"/>
    </contour>
    <contour>
      <point x="606" y="137" type="curve"/>
      <point x="598" y="119" type="line"/>
      <point x="733" y="62"/>
      <point x="830" y="-4"/>
      <point x="881" y="-63" type="curve"/>
      <point x="938" y="-111"/>
      <point x="1006" y="22"/>
    </contour>
    <contour>
      <point x="356" y="149" type="line"/>
      <point x="298" y="82"/>
      <point x="169" y="-10"/>
      <point x="52" y="-59" type="curve"/>
      <point x="61" y="-75" type="line"/>
      <point x="186" y="-34"/>
      <point x="316" y="42"/>
      <point x="387" y="104" type="curve"/>
      <point x="410" y="100"/>
      <point x="424" y="102"/>
      <point x="430" y="112" type="curve"/>
    </contour>
    <contour>
      <point x="416" y="458" type="line"/>
      <point x="411" y="381"/>
      <point x="400" y="277"/>
      <point x="389" y="198" type="curve"/>
      <point x="434" y="198" type="line"/>
      <point x="444" y="273"/>
      <point x="454" y="364"/>
      <point x="459" y="424" type="curve"/>
      <point x="478" y="427"/>
      <point x="486" y="435"/>
      <point x="488" y="449" type="curve"/>
    </contour>
  </outline>
</glyph>
<glyph name="uni8209" format="2">
  <advance width="1000"/>
  <unicode hex="8209"/>
  <outline>
    <contour>
      <point x="322" y="832" type="line"/>
      <point x="297.24" y="816.53"/>
      <point x="252.14" y="790.89"/>
      <point x="209.37" y="771.27" type="curve"/>
      <point x="146" y="796" type="line"/>
      <point x="158.6" y="422" type="line"/>
      <point x="39" y="422" type="line"/>
      <point x="47" y="392" type="line"/>
      <point x="279.16" y="392" type="line"/>
      <point x="218.89" y="306.37"/>
      <point x="131.47" y="227.15"/>
      <point x="32" y="168" type="curve"/>
      <point x="43" y="151" type="line"/>
      <point x="165.27" y="209.27"/>
      <point x="272.02" y="293.08"/>
      <point x="341.48" y="392" type="curve"/>
      <point x="666.83" y="392" type="line"/>
      <point x="725.77" y="289.2"/>
      <point x="825.2" y="206.05"/>
      <point x="922" y="160" type="curve"/>
      <point x="929" y="183"/>
      <point x="946" y="197"/>
      <point x="966" y="199" type="curve"/>
      <point x="968" y="210" type="line"/>
      <point x="871.37" y="242.21"/>
      <point x="760.33" y="308.85"/>
      <point x="694.33" y="392" type="curve"/>
      <point x="942" y="392" type="line" smooth="yes"/>
      <point x="956" y="392"/>
      <point x="965" y="397"/>
      <point x="968" y="408" type="curve"/>
      <point x="937" y="437"/>
      <point x="887" y="476"/>
      <point x="887" y="476" type="curve"/>
      <point x="842" y="422" type="line"/>
      <point x="828.47" y="422" type="line"/>
      <point x="844" y="752" type="line"/>
      <point x="860" y="753"/>
      <point x="868" y="756"/>
      <point x="875" y="762" type="curve"/>
      <point x="821" y="812" type="line"/>
      <point x="793" y="782" type="line"/>
      <point x="625" y="782" type="line"/>
      <point x="633" y="753" type="line"/>
      <point x="800.59" y="753" type="line"/>
      <point x="796.21" y="663" type="line"/>
      <point x="642" y="663" type="line"/>
      <point x="651" y="633" type="line"/>
      <point x="794.75" y="633" type="line"/>
      <point x="790.42" y="544" type="line"/>
      <point x="642" y="544" type="line"/>
      <point x="651" y="514" type="line"/>
      <point x="788.96" y="514" type="line"/>
      <point x="784.49" y="422" type="line"/>
      <point x="584.26" y="422" type="line"/>
      <point x="598" y="607" type="line"/>
      <point x="611" y="610"/>
      <point x="623" y="619"/>
      <point x="628" y="625" type="curve"/>
      <point x="573" y="664" type="line"/>
      <point x="547" y="638" type="line"/>
      <point x="441.24" y="638" type="line"/>
      <point x="443.94" y="663.57"/>
      <point x="446.45" y="689.57"/>
      <point x="448.67" y="715" type="curve"/>
      <point x="594" y="715" type="line" smooth="yes"/>
      <point x="607" y="715"/>
      <point x="616" y="720"/>
      <point x="618" y="731" type="curve"/>
      <point x="597" y="754"/>
      <point x="564" y="780"/>
      <point x="564" y="780" type="curve"/>
      <point x="534" y="745" type="line"/>
      <point x="451.18" y="745" type="line"/>
      <point x="452.64" y="763.33"/>
      <point x="453.93" y="781.13"/>
      <point x="455" y="798" type="curve"/>
      <point x="478" y="800"/>
      <point x="490" y="810"/>
      <point x="492" y="824" type="curve"/>
      <point x="412" y="834" type="line"/>
      <point x="412" y="773"/>
      <point x="401" y="646"/>
      <point x="390" y="584" type="curve"/>
      <point x="410" y="578"/>
      <point x="429" y="581"/>
      <point x="436" y="591" type="curve"/>
      <point x="436.7" y="596.94"/>
      <point x="437.4" y="602.95"/>
      <point x="438.08" y="609" type="curve"/>
      <point x="552.01" y="609" type="line"/>
      <point x="539.16" y="422" type="line"/>
      <point x="442.14" y="422" type="line"/>
      <point x="446.41" y="456.61"/>
      <point x="450.57" y="493.85"/>
      <point x="454" y="523" type="curve"/>
      <point x="471" y="526"/>
      <point x="480" y="533"/>
      <point x="481" y="545" type="curve"/>
      <point x="414" y="553" type="line"/>
      <point x="410.48" y="510.8"/>
      <point x="404.66" y="463.96"/>
      <point x="398.54" y="422" type="curve"/>
      <point x="203.57" y="422" type="line"/>
      <point x="200.31" y="514" type="line"/>
      <point x="338" y="514" type="line" smooth="yes"/>
      <point x="351" y="514"/>
      <point x="360" y="519"/>
      <point x="363" y="530" type="curve"/>
      <point x="341" y="553"/>
      <point x="307" y="579"/>
      <point x="307" y="579" type="curve"/>
      <point x="279" y="544" type="line"/>
      <point x="199.24" y="544" type="line"/>
      <point x="196.08" y="633" type="line"/>
      <point x="335" y="633" type="line" smooth="yes"/>
      <point x="348" y="633"/>
      <point x="357" y="638"/>
      <point x="360" y="649" type="curve"/>
      <point x="338" y="672"/>
      <point x="304" y="698"/>
      <point x="304" y="698" type="curve"/>
      <point x="276" y="663" type="line"/>
      <point x="195.02" y="663" type="line"/>
      <point x="192.11" y="745" type="line"/>
      <point x="249.65" y="753.72"/>
      <point x="313.05" y="769.99"/>
      <point x="350" y="782" type="curve"/>
      <point x="362" y="777"/>
      <point x="371" y="777"/>
      <point x="376" y="782" type="curve"/>
    </contour>
    <contour>
      <point x="152" y="116" type="line"/>
      <point x="160" y="87" type="line"/>
      <point x="476" y="87" type="line"/>
      <point x="476" y="-74" type="line"/>
      <point x="485" y="-74" type="line" smooth="yes"/>
      <point x="501" y="-74"/>
      <point x="520" y="-62"/>
      <point x="520" y="-54" type="curve" smooth="yes"/>
      <point x="520" y="87" type="line"/>
      <point x="834" y="87" type="line" smooth="yes"/>
      <point x="848" y="87"/>
      <point x="858" y="92"/>
      <point x="860" y="103" type="curve"/>
      <point x="830" y="130"/>
      <point x="784" y="166"/>
      <point x="784" y="166" type="curve"/>
      <point x="744" y="116" type="line"/>
      <point x="520" y="116" type="line"/>
      <point x="520" y="227" type="line"/>
      <point x="703" y="227" type="line" smooth="yes"/>
      <point x="717" y="227"/>
      <point x="726" y="232"/>
      <point x="729" y="242" type="curve"/>
      <point x="701" y="269"/>
      <point x="657" y="302"/>
      <point x="657" y="302" type="curve"/>
      <point x="619" y="256" type="line"/>
      <point x="520" y="256" type="line"/>
      <point x="520" y="339" type="line"/>
      <point x="542" y="342"/>
      <point x="551" y="351"/>
      <point x="553" y="364" type="curve"/>
      <point x="476" y="372" type="line"/>
      <point x="476" y="256" type="line"/>
      <point x="280" y="256" type="line"/>
      <point x="288" y="227" type="line"/>
      <point x="476" y="227" type="line"/>
      <point x="476" y="116" type="line"/>
    </contour>
  </outline>
</glyph>
<glyph name="uni85C7.1" format="2">
  <advance width="1000"/>
  <unicode hex="85C7"/>
  <outline>
    <contour>
      <point x="653" y="599" type="line"/>
      <point x="662" y="569" type="line"/>
      <point x="839" y="569" type="line"/>
      <point x="839" y="599" type="line"/>
    </contour>
    <contour>
      <point x="664" y="454" type="line"/>
      <point x="673" y="425" type="line"/>
      <point x="831" y="425" type="line"/>
      <point x="831" y="454" type="line"/>
    </contour>
    <contour>
      <point x="649" y="306" type="line"/>
      <point x="658" y="277" type="line"/>
      <point x="826" y="277" type="line"/>
      <point x="826" y="306" type="line"/>
    </contour>
    <contour>
      <point x="814" y="599" type="line"/>
      <point x="800" y="136" type="line"/>
      <point x="844" y="136" type="line"/>
      <point x="857" y="568" type="line"/>
      <point x="873" y="569"/>
      <point x="882" y="573"/>
      <point x="888" y="580" type="curve"/>
      <point x="832" y="630" type="line"/>
      <point x="805" y="599" type="line"/>
    </contour>
    <contour>
      <point x="136" y="607" type="line"/>
      <point x="148" y="141" type="line"/>
      <point x="192" y="141" type="line"/>
      <point x="182" y="553" type="line"/>
      <point x="201" y="556"/>
      <point x="214" y="562"/>
      <point x="218" y="568" type="curve"/>
    </contour>
    <contour>
      <point x="164" y="447" type="line"/>
      <point x="164" y="418" type="line"/>
      <point x="323" y="418" type="line" smooth="yes"/>
      <point x="337" y="418"/>
      <point x="345" y="423"/>
      <point x="348" y="433" type="curve"/>
      <point x="325" y="457"/>
      <point x="289" y="486"/>
      <point x="289" y="486" type="curve"/>
      <point x="257" y="447" type="line"/>
    </contour>
    <contour>
      <point x="169" y="300" type="line"/>
      <point x="169" y="270" type="line"/>
      <point x="336" y="270" type="line" smooth="yes"/>
      <point x="350" y="270"/>
      <point x="359" y="275"/>
      <point x="361" y="286" type="curve"/>
      <point x="337" y="309"/>
      <point x="300" y="340"/>
      <point x="300" y="340" type="curve"/>
      <point x="267" y="300" type="line"/>
    </contour>
    <contour>
      <point x="323" y="653" type="line"/>
      <point x="287" y="626"/>
      <point x="212" y="577"/>
      <point x="154" y="550" type="curve"/>
      <point x="161" y="537" type="line"/>
      <point x="229" y="555"/>
      <point x="307" y="587"/>
      <point x="349" y="607" type="curve"/>
      <point x="362" y="602"/>
      <point x="370" y="603"/>
      <point x="375" y="609" type="curve"/>
    </contour>
    <contour>
      <point x="421" y="432" type="line"/>
      <point x="421" y="402" type="line"/>
      <point x="583" y="402" type="line"/>
      <point x="583" y="432" type="line"/>
    </contour>
    <contour>
      <point x="427" y="567" type="line"/>
      <point x="427" y="538" type="line"/>
      <point x="612" y="538" type="line" smooth="yes"/>
      <point x="625" y="538"/>
      <point x="634" y="543"/>
      <point x="636" y="554" type="curve"/>
      <point x="612" y="578"/>
      <point x="572" y="609"/>
      <point x="572" y="609" type="curve"/>
      <point x="539" y="567" type="line"/>
    </contour>
    <contour>
      <point x="567" y="432" type="line"/>
      <point x="550" y="136" type="line"/>
      <point x="596" y="136" type="line"/>
      <point x="611" y="398" type="line"/>
      <point x="626" y="400"/>
      <point x="639" y="407"/>
      <point x="644" y="414" type="curve"/>
      <point x="586" y="460" type="line"/>
      <point x="559" y="432" type="line"/>
    </contour>
    <contour>
      <point x="39" y="152" type="line"/>
      <point x="47" y="122" type="line"/>
      <point x="945" y="122" type="line" smooth="yes"/>
      <point x="958" y="122"/>
      <point x="967" y="127"/>
      <point x="969" y="138" type="curve"/>
      <point x="944" y="166"/>
      <point x="899" y="204"/>
      <point x="899" y="204" type="curve"/>
      <point x="861" y="152" type="line"/>
    </contour>
    <contour>
      <point x="606" y="101" type="curve"/>
      <point x="600" y="83" type="line"/>
      <point x="732" y="38"/>
      <point x="829" y="-17"/>
      <point x="883" y="-68" type="curve"/>
      <point x="941" y="-110"/>
      <point x="1009" y="15"/>
    </contour>
    <contour>
      <point x="346" y="113" type="line"/>
      <point x="289" y="57"/>
      <point x="167" y="-20"/>
      <point x="57" y="-60" type="curve"/>
      <point x="65" y="-77" type="line"/>
      <point x="181" y="-45"/>
      <point x="304" y="17"/>
      <point x="374" y="66" type="curve"/>
      <point x="396" y="61"/>
      <point x="411" y="63"/>
      <point x="417" y="73" type="curve"/>
    </contour>
    <contour>
      <point x="417" y="345" type="line"/>
      <point x="413" y="283"/>
      <point x="406" y="204"/>
      <point x="397" y="142" type="curve"/>
      <point x="440" y="142" type="line"/>
      <point x="448" y="199"/>
      <point x="454" y="264"/>
      <point x="458" y="314" type="curve"/>
      <point x="478" y="316"/>
      <point x="486" y="324"/>
      <point x="488" y="336" type="curve"/>
    </contour>
    <contour>
      <point x="417" y="655" type="line"/>
      <point x="416" y="585"/>
      <point x="400" y="448"/>
      <point x="388" y="374" type="curve"/>
      <point x="408" y="369"/>
      <point x="425" y="372"/>
      <point x="433" y="380" type="curve"/>
      <point x="444" y="459"/>
      <point x="454" y="558"/>
      <point x="457" y="620" type="curve"/>
      <point x="483" y="623"/>
      <point x="492" y="634"/>
      <point x="495" y="648" type="curve"/>
    </contour>
    <contour>
      <point x="531" y="709" type="line"/>
      <point x="679" y="709" type="line"/>
      <point x="668" y="649" type="line"/>
      <point x="686" y="644"/>
      <point x="701" y="645"/>
      <point x="710" y="652" type="curve"/>
      <point x="719" y="709" type="line"/>
      <point x="924" y="709" type="line" smooth="yes"/>
      <point x="938" y="709"/>
      <point x="947" y="714"/>
      <point x="950" y="725" type="curve"/>
      <point x="924" y="751"/>
      <point x="883" y="783"/>
      <point x="883" y="783" type="curve"/>
      <point x="847" y="739" type="line"/>
      <point x="725" y="739" type="line"/>
      <point x="735" y="797" type="line"/>
      <point x="759" y="796"/>
      <point x="770" y="806"/>
      <point x="773" y="819" type="curve"/>
      <point x="701" y="835" type="line"/>
      <point x="684" y="739" type="line"/>
      <point x="523" y="739" type="line"/>
    </contour>
    <contour>
      <point x="63" y="709" type="line"/>
      <point x="267" y="709" type="line"/>
      <point x="275" y="649" type="line"/>
      <point x="293" y="650"/>
      <point x="308" y="655"/>
      <point x="314" y="664" type="curve"/>
      <point x="307" y="709" type="line"/>
      <point x="467" y="709" type="line" smooth="yes"/>
      <point x="480" y="709"/>
      <point x="489" y="714"/>
      <point x="491" y="725" type="curve"/>
      <point x="466" y="751"/>
      <point x="424" y="783"/>
      <point x="424" y="783" type="curve"/>
      <point x="389" y="739" type="line"/>
      <point x="303" y="739" type="line"/>
      <point x="292" y="804" type="line"/>
      <point x="313" y="810"/>
      <point x="320" y="820"/>
      <point x="322" y="831" type="curve"/>
      <point x="249" y="838" type="line"/>
      <point x="263" y="739" type="line"/>
      <point x="55" y="739" type="line"/>
    </contour>
  </outline>
</glyph>
<glyph name="uni85C7" format="2">
  <advance width="1000"/>
  <unicode hex="85C7"/>
  <outline>
    <contour>
      <point x="653" y="599" type="line"/>
      <point x="662" y="569" type="line"/>
      <point x="839" y="569" type="line"/>
      <point x="839" y="599" type="line"/>
    </contour>
    <contour>
      <point x="664" y="454" type="line"/>
      <point x="673" y="425" type="line"/>
      <point x="831" y="425" type="line"/>
      <point x="831" y="454" type="line"/>
    </contour>
    <contour>
      <point x="649" y="306" type="line"/>
      <point x="658" y="277" type="line"/>
      <point x="826" y="277" type="line"/>
      <point x="826" y="306" type="line"/>
    </contour>
    <contour>
      <point x="814" y="599" type="line"/>
      <point x="800" y="136" type="line"/>
      <point x="844" y="136" type="line"/>
      <point x="857" y="568" type="line"/>
      <point x="873" y="569"/>
      <point x="882" y="573"/>
      <point x="888" y="580" type="curve"/>
      <point x="832" y="630" type="line"/>
      <point x="805" y="599" type="line"/>
    </contour>
    <contour>
      <point x="136" y="607" type="line"/>
      <point x="148" y="141" type="line"/>
      <point x="192" y="141" type="line"/>
      <point x="182" y="553" type="line"/>
      <point x="201" y="556"/>
      <point x="214" y="562"/>
      <point x="218" y="568" type="curve"/>
    </contour>
    <contour>
      <point x="164" y="447" type="line"/>
      <point x="164" y="418" type="line"/>
      <point x="323" y="418" type="line" smooth="yes"/>
      <point x="337" y="418"/>
      <point x="345" y="423"/>
      <point x="348" y="433" type="curve"/>
      <point x="325" y="457"/>
      <point x="289" y="486"/>
      <point x="289" y="486" type="curve"/>
      <point x="257" y="447" type="line"/>
    </contour>
    <contour>
      <point x="169" y="300" type="line"/>
      <point x="169" y="270" type="line"/>
      <point x="336" y="270" type="line" smooth="yes"/>
      <point x="350" y="270"/>
      <point x="359" y="275"/>
      <point x="361" y="286" type="curve"/>
      <point x="337" y="309"/>
      <point x="300" y="340"/>
      <point x="300" y="340" type="curve"/>
      <point x="267" y="300" type="line"/>
    </contour>
    <contour>
      <point x="323" y="653" type="line"/>
      <point x="287" y="626"/>
      <point x="212" y="577"/>
      <point x="154" y="550" type="curve"/>
      <point x="161" y="537" type="line"/>
      <point x="229" y="555"/>
      <point x="307" y="587"/>
      <point x="349" y="607" type="curve"/>
      <point x="362" y="602"/>
      <point x="370" y="603"/>
      <point x="375" y="609" type="curve"/>
    </contour>
    <contour>
      <point x="421" y="432" type="line"/>
      <point x="421" y="402" type="line"/>
      <point x="583" y="402" type="line"/>
      <point x="583" y="432" type="line"/>
    </contour>
    <contour>
      <point x="427" y="567" type="line"/>
      <point x="427" y="538" type="line"/>
      <point x="612" y="538" type="line" smooth="yes"/>
      <point x="625" y="538"/>
      <point x="634" y="543"/>
      <point x="636" y="554" type="curve"/>
      <point x="612" y="578"/>
      <point x="572" y="609"/>
      <point x="572" y="609" type="curve"/>
      <point x="539" y="567" type="line"/>
    </contour>
    <contour>
      <point x="567" y="432" type="line"/>
      <point x="550" y="136" type="line"/>
      <point x="596" y="136" type="line"/>
      <point x="611" y="398" type="line"/>
      <point x="626" y="400"/>
      <point x="639" y="407"/>
      <point x="644" y="414" type="curve"/>
      <point x="586" y="460" type="line"/>
      <point x="559" y="432" type="line"/>
    </contour>
    <contour>
      <point x="39" y="152" type="line"/>
      <point x="47" y="122" type="line"/>
      <point x="945" y="122" type="line" smooth="yes"/>
      <point x="958" y="122"/>
      <point x="967" y="127"/>
      <point x="969" y="138" type="curve"/>
      <point x="944" y="166"/>
      <point x="899" y="204"/>
      <point x="899" y="204" type="curve"/>
      <point x="861" y="152" type="line"/>
    </contour>
    <contour>
      <point x="606" y="101" type="curve"/>
      <point x="600" y="83" type="line"/>
      <point x="732" y="38"/>
      <point x="829" y="-17"/>
      <point x="883" y="-68" type="curve"/>
      <point x="941" y="-110"/>
      <point x="1009" y="15"/>
    </contour>
    <contour>
      <point x="346" y="113" type="line"/>
      <point x="289" y="57"/>
      <point x="167" y="-20"/>
      <point x="57" y="-60" type="curve"/>
      <point x="65" y="-77" type="line"/>
      <point x="181" y="-45"/>
      <point x="304" y="17"/>
      <point x="374" y="66" type="curve"/>
      <point x="396" y="61"/>
      <point x="411" y="63"/>
      <point x="417" y="73" type="curve"/>
    </contour>
    <contour>
      <point x="748" y="824" type="curve"/>
      <point x="670" y="833" type="line"/>
      <point x="670" y="643" type="line"/>
      <point x="679" y="643" type="line" smooth="yes"/>
      <point x="696" y="643"/>
      <point x="714" y="654"/>
      <point x="714" y="661" type="curve" smooth="yes"/>
      <point x="714" y="800" type="line"/>
      <point x="736" y="802"/>
      <point x="746" y="811"/>
    </contour>
    <contour>
      <point x="358" y="826" type="curve"/>
      <point x="280" y="835" type="line"/>
      <point x="280" y="657" type="line"/>
      <point x="289" y="657" type="line" smooth="yes"/>
      <point x="306" y="657"/>
      <point x="324" y="668"/>
      <point x="324" y="674" type="curve" smooth="yes"/>
      <point x="324" y="802" type="line"/>
      <point x="346" y="804"/>
      <point x="356" y="813"/>
    </contour>
    <contour>
      <point x="884" y="783" type="curve"/>
      <point x="848" y="739" type="line"/>
      <point x="523" y="739" type="line"/>
      <point x="531" y="709" type="line"/>
      <point x="925" y="709" type="line" smooth="yes"/>
      <point x="939" y="709"/>
      <point x="948" y="714"/>
      <point x="951" y="725" type="curve"/>
      <point x="925" y="751"/>
      <point x="884" y="783"/>
    </contour>
    <contour>
      <point x="424" y="783" type="curve"/>
      <point x="389" y="739" type="line"/>
      <point x="55" y="739" type="line"/>
      <point x="63" y="709" type="line"/>
      <point x="467" y="709" type="line" smooth="yes"/>
      <point x="481" y="709"/>
      <point x="489" y="714"/>
      <point x="491" y="725" type="curve"/>
      <point x="466" y="751"/>
      <point x="424" y="783"/>
    </contour>
    <contour>
      <point x="417" y="345" type="line"/>
      <point x="413" y="283"/>
      <point x="406" y="204"/>
      <point x="397" y="142" type="curve"/>
      <point x="440" y="142" type="line"/>
      <point x="448" y="199"/>
      <point x="454" y="264"/>
      <point x="458" y="314" type="curve"/>
      <point x="478" y="316"/>
      <point x="486" y="324"/>
      <point x="488" y="336" type="curve"/>
    </contour>
    <contour>
      <point x="417" y="655" type="line"/>
      <point x="416" y="585"/>
      <point x="400" y="448"/>
      <point x="388" y="374" type="curve"/>
      <point x="408" y="369"/>
      <point x="425" y="372"/>
      <point x="433" y="380" type="curve"/>
      <point x="444" y="459"/>
      <point x="454" y="558"/>
      <point x="457" y="620" type="curve"/>
      <point x="483" y="623"/>
      <point x="492" y="634"/>
      <point x="495" y="648" type="curve"/>
    </contour>
  </outline>
</glyph>
<glyph name="uni8977" format="2">
  <advance width="1000"/>
  <unicode hex="8977"/>
  <outline>
    <contour>
      <point x="321" y="447" type="line"/>
      <point x="329" y="418" type="line"/>
      <point x="939" y="418" type="line" smooth="yes"/>
      <point x="952" y="418"/>
      <point x="960" y="423"/>
      <point x="963" y="433" type="curve"/>
      <point x="939" y="458"/>
      <point x="900" y="489"/>
      <point x="900" y="489" type="curve"/>
      <point x="867" y="447" type="line"/>
    </contour>
    <contour>
      <point x="403" y="227" type="line"/>
      <point x="411" y="197" type="line"/>
      <point x="824" y="197" type="line" smooth="yes"/>
      <point x="837" y="197"/>
      <point x="846" y="202"/>
      <point x="849" y="213" type="curve"/>
      <point x="825" y="237"/>
      <point x="785" y="269"/>
      <point x="785" y="269" type="curve"/>
      <point x="751" y="227" type="line"/>
    </contour>
    <contour>
      <point x="342" y="126" type="line"/>
      <point x="350" y="97" type="line"/>
      <point x="902" y="97" type="line" smooth="yes"/>
      <point x="915" y="97"/>
      <point x="925" y="102"/>
      <point x="927" y="112" type="curve"/>
      <point x="900" y="139"/>
      <point x="856" y="173"/>
      <point x="856" y="173" type="curve"/>
      <point x="819" y="126" type="line"/>
    </contour>
    <contour>
      <point x="374" y="797" type="line"/>
      <point x="382" y="441" type="line"/>
      <point x="427" y="441" type="line"/>
      <point x="420" y="752" type="line"/>
      <point x="439" y="755"/>
      <point x="451" y="761"/>
      <point x="455" y="768" type="curve"/>
    </contour>
    <contour>
      <point x="831" y="781" type="line"/>
      <point x="817" y="440" type="line"/>
      <point x="864" y="440" type="line"/>
      <point x="875" y="751" type="line"/>
      <point x="891" y="752"/>
      <point x="898" y="755"/>
      <point x="905" y="761" type="curve"/>
      <point x="850" y="812" type="line"/>
      <point x="823" y="781" type="line"/>
    </contour>
    <contour>
      <point x="715" y="781" type="line"/>
      <point x="724" y="752" type="line"/>
      <point x="854" y="752" type="line"/>
      <point x="854" y="781" type="line"/>
    </contour>
    <contour>
      <point x="720" y="669" type="line"/>
      <point x="729" y="639" type="line"/>
      <point x="845" y="639" type="line"/>
      <point x="845" y="669" type="line"/>
    </contour>
    <contour>
      <point x="716" y="558" type="line"/>
      <point x="725" y="528" type="line"/>
      <point x="841" y="528" type="line"/>
      <point x="841" y="558" type="line"/>
    </contour>
    <contour>
      <point x="396" y="669" type="line"/>
      <point x="396" y="639" type="line"/>
      <point x="507" y="639" type="line" smooth="yes"/>
      <point x="520" y="639"/>
      <point x="528" y="644"/>
      <point x="531" y="655" type="curve"/>
      <point x="513" y="675"/>
      <point x="486" y="697"/>
      <point x="486" y="697" type="curve"/>
      <point x="462" y="669" type="line"/>
    </contour>
    <contour>
      <point x="577" y="741" type="line"/>
      <point x="577" y="711" type="line"/>
      <point x="700" y="711" type="line" smooth="yes"/>
      <point x="713" y="711"/>
      <point x="721" y="716"/>
      <point x="724" y="727" type="curve"/>
      <point x="706" y="747"/>
      <point x="680" y="768"/>
      <point x="680" y="768" type="curve"/>
      <point x="657" y="741" type="line"/>
    </contour>
    <contour>
      <point x="396" y="558" type="line"/>
      <point x="396" y="528" type="line"/>
      <point x="514" y="528" type="line" smooth="yes"/>
      <point x="527" y="528"/>
      <point x="535" y="533"/>
      <point x="538" y="544" type="curve"/>
      <point x="521" y="564"/>
      <point x="495" y="585"/>
      <point x="495" y="585" type="curve"/>
      <point x="472" y="558" type="line"/>
    </contour>
    <contour>
      <point x="570" y="652" type="line"/>
      <point x="570" y="623" type="line"/>
      <point x="667" y="623" type="line"/>
      <point x="667" y="652" type="line"/>
    </contour>
    <contour>
      <point x="660" y="652" type="line"/>
      <point x="645" y="431" type="line"/>
      <point x="690" y="431" type="line"/>
      <point x="703" y="626" type="line"/>
      <point x="712" y="628"/>
      <point x="721" y="632"/>
      <point x="723" y="636" type="curve"/>
      <point x="677" y="674" type="line"/>
      <point x="654" y="652" type="line"/>
    </contour>
    <contour>
      <point x="560" y="573" type="line"/>
      <point x="558" y="533"/>
      <point x="553" y="482"/>
      <point x="547" y="440" type="curve"/>
      <point x="590" y="440" type="line"/>
      <point x="594" y="471"/>
      <point x="598" y="513"/>
      <point x="600" y="543" type="curve"/>
      <point x="617" y="546"/>
      <point x="625" y="553"/>
      <point x="626" y="564" type="curve"/>
    </contour>
    <contour>
      <point x="486" y="821" type="line"/>
      <point x="467" y="807"/>
      <point x="428" y="779"/>
      <point x="401" y="763" type="curve"/>
      <point x="410" y="747" type="line"/>
      <point x="435" y="755"/>
      <point x="480" y="771"/>
      <point x="500" y="779" type="curve"/>
      <point x="518" y="773"/>
      <point x="533" y="772"/>
      <point x="540" y="782" type="curve"/>
    </contour>
    <contour>
      <point x="477" y="440" type="line"/>
      <point x="431" y="341"/>
      <point x="352" y="249"/>
      <point x="254" y="181" type="curve"/>
      <point x="266" y="165" type="line"/>
      <point x="380" y="229"/>
      <point x="470" y="317"/>
      <point x="525" y="425" type="curve"/>
      <point x="525" y="440" type="line"/>
    </contour>
    <contour>
      <point x="741" y="439" type="curve"/>
      <point x="724" y="430" type="line"/>
      <point x="768" y="327"/>
      <point x="851" y="242"/>
      <point x="927" y="194" type="curve"/>
      <point x="934" y="215"/>
      <point x="950" y="227"/>
      <point x="969" y="229" type="curve"/>
      <point x="970" y="239" type="line"/>
      <point x="888" y="276"/>
      <point x="789" y="351"/>
    </contour>
    <contour>
      <point x="597" y="324" type="line"/>
      <point x="597" y="8" type="line" smooth="yes"/>
      <point x="597" y="-5"/>
      <point x="593" y="-10"/>
      <point x="575" y="-10" type="curve" smooth="yes"/>
      <point x="558" y="-10"/>
      <point x="468" y="-3"/>
      <point x="468" y="-3" type="curve"/>
      <point x="468" y="-19" type="line"/>
      <point x="507" y="-24"/>
      <point x="531" y="-29"/>
      <point x="544" y="-38" type="curve" smooth="yes"/>
      <point x="555" y="-46"/>
      <point x="561" y="-60"/>
      <point x="562" y="-74" type="curve"/>
      <point x="631" y="-65"/>
      <point x="641" y="-34"/>
      <point x="641" y="7" type="curve" smooth="yes"/>
      <point x="641" y="324" type="line"/>
    </contour>
    <contour>
      <point x="703" y="376" type="line"/>
      <point x="648" y="350"/>
      <point x="542" y="314"/>
      <point x="455" y="297" type="curve"/>
      <point x="461" y="278" type="line"/>
      <point x="549" y="288"/>
      <point x="651" y="313"/>
      <point x="713" y="333" type="curve"/>
      <point x="732" y="326"/>
      <point x="747" y="325"/>
      <point x="754" y="333" type="curve"/>
    </contour>
    <contour>
      <point x="189" y="416" type="curve"/>
      <point x="179" y="405" type="line"/>
      <point x="219" y="372"/>
      <point x="274" y="313"/>
      <point x="295" y="275" type="curve"/>
      <point x="343" y="245"/>
      <point x="356" y="351"/>
    </contour>
    <contour>
      <point x="296" y="498" type="line"/>
      <point x="278" y="456"/>
      <point x="255" y="414"/>
      <point x="233" y="382" type="curve"/>
      <point x="248" y="372" type="line"/>
      <point x="274" y="396"/>
      <point x="302" y="427"/>
      <point x="322" y="456" type="curve"/>
      <point x="341" y="453"/>
      <point x="353" y="460"/>
      <point x="358" y="469" type="curve"/>
    </contour>
    <contour>
      <point x="125" y="829" type="curve"/>
      <point x="113" y="821" type="line"/>
      <point x="150" y="788"/>
      <point x="193" y="729"/>
      <point x="204" y="686" type="curve"/>
      <point x="253" y="652"/>
      <point x="290" y="757"/>
    </contour>
    <contour>
      <point x="201" y="-56" type="curve" smooth="yes"/>
      <point x="201" y="428" type="line"/>
      <point x="159" y="387" type="line"/>
      <point x="159" y="-72" type="line"/>
      <point x="165" y="-72" type="line" smooth="yes"/>
      <point x="185" y="-72"/>
      <point x="201" y="-61"/>
    </contour>
    <contour>
      <point x="242" y="624" type="line"/>
      <point x="254" y="624" type="line"/>
      <point x="217" y="501"/>
      <point x="126" y="335"/>
      <point x="31" y="233" type="curve"/>
      <point x="46" y="221" type="line"/>
      <point x="152" y="318"/>
      <point x="247" y="464"/>
      <point x="295" y="589" type="curve"/>
      <point x="317" y="590"/>
      <point x="330" y="591"/>
      <point x="338" y="598" type="curve"/>
      <point x="277" y="657" type="line"/>
    </contour>
    <contour>
      <point x="276" y="624" type="line"/>
      <point x="47" y="624" type="line"/>
      <point x="56" y="594" type="line"/>
      <point x="276" y="594" type="line"/>
    </contour>
    <contour>
      <point x="627" y="806" type="curve"/>
      <point x="556" y="818" type="line"/>
      <point x="555" y="763"/>
      <point x="547" y="654"/>
      <point x="540" y="597" type="curve"/>
      <point x="557" y="591"/>
      <point x="577" y="594"/>
      <point x="585" y="602" type="curve"/>
      <point x="592" y="664"/>
      <point x="597" y="747"/>
      <point x="599" y="801" type="curve"/>
      <point x="588" y="784" type="line"/>
      <point x="609" y="785"/>
      <point x="621" y="793"/>
    </contour>
  </outline>
</glyph>
<glyph name="uni8B7D" format="2">
  <advance width="1000"/>
  <unicode hex="8B7D"/>
  <outline>
    <contour>
      <point x="636" y="791" type="line"/>
      <point x="645" y="761" type="line"/>
      <point x="799.33" y="761" type="line"/>
      <point x="796.28" y="706" type="line"/>
      <point x="649" y="706" type="line"/>
      <point x="658" y="677" type="line"/>
      <point x="794.67" y="677" type="line"/>
      <point x="791.56" y="621" type="line"/>
      <point x="641" y="621" type="line"/>
      <point x="650" y="591" type="line"/>
      <point x="789.89" y="591" type="line"/>
      <point x="786.72" y="534" type="line"/>
      <point x="595" y="534" type="line"/>
      <point x="595" y="655" type="line"/>
      <point x="610" y="658"/>
      <point x="624" y="665"/>
      <point x="629" y="671" type="curve"/>
      <point x="570" y="716" type="line"/>
      <point x="543" y="689" type="line"/>
      <point x="461" y="689" type="line"/>
      <point x="461" y="737" type="line"/>
      <point x="585" y="737" type="line" smooth="yes"/>
      <point x="599" y="737"/>
      <point x="607" y="742"/>
      <point x="610" y="753" type="curve"/>
      <point x="589" y="774"/>
      <point x="558" y="801"/>
      <point x="558" y="801" type="curve"/>
      <point x="530" y="766" type="line"/>
      <point x="461" y="766" type="line"/>
      <point x="461" y="802" type="line"/>
      <point x="480" y="806"/>
      <point x="489" y="814"/>
      <point x="490" y="825" type="curve"/>
      <point x="417" y="833" type="line"/>
      <point x="417" y="641" type="line"/>
      <point x="426" y="641" type="line" smooth="yes"/>
      <point x="440.31" y="641"/>
      <point x="459.17" y="651.91"/>
      <point x="460.87" y="659" type="curve"/>
      <point x="551" y="659" type="line"/>
      <point x="551" y="534" type="line"/>
      <point x="461" y="534" type="line"/>
      <point x="461" y="595" type="line"/>
      <point x="477" y="599"/>
      <point x="485" y="606"/>
      <point x="486" y="617" type="curve"/>
      <point x="417" y="625" type="line"/>
      <point x="417" y="534" type="line"/>
      <point x="216.3" y="534" type="line"/>
      <point x="213.46" y="591" type="line"/>
      <point x="347" y="591" type="line" smooth="yes"/>
      <point x="360" y="591"/>
      <point x="368" y="596"/>
      <point x="370" y="607" type="curve"/>
      <point x="353" y="628"/>
      <point x="324" y="651"/>
      <point x="324" y="651" type="curve"/>
      <point x="300" y="621" type="line"/>
      <point x="211.97" y="621" type="line"/>
      <point x="209.18" y="677" type="line"/>
      <point x="339" y="677" type="line" smooth="yes"/>
      <point x="352" y="677"/>
      <point x="361" y="682"/>
      <point x="363" y="693" type="curve"/>
      <point x="345" y="712"/>
      <point x="317" y="736"/>
      <point x="317" y="736" type="curve"/>
      <point x="294" y="706" type="line"/>
      <point x="207.74" y="706" type="line"/>
      <point x="205.41" y="752.68" type="line"/>
      <point x="259.86" y="762.33"/>
      <point x="318.64" y="777.59"/>
      <point x="352" y="789" type="curve"/>
      <point x="364" y="783"/>
      <point x="372" y="783"/>
      <point x="377" y="788" type="curve"/>
      <point x="333" y="835" type="line"/>
      <point x="309.89" y="821.69"/>
      <point x="268.63" y="800.55"/>
      <point x="228.12" y="782.54" type="curve"/>
      <point x="159" y="805" type="line"/>
      <point x="171.36" y="534" type="line"/>
      <point x="44" y="534" type="line"/>
      <point x="53" y="504" type="line"/>
      <point x="289.76" y="504" type="line"/>
      <point x="234.24" y="416.09"/>
      <point x="134.62" y="326.33"/>
      <point x="35" y="268" type="curve"/>
      <point x="44" y="253" type="line"/>
      <point x="98.12" y="278.2"/>
      <point x="152.24" y="310.06"/>
      <point x="202.13" y="347.24" type="curve"/>
      <point x="207" y="329" type="line"/>
      <point x="777" y="329" type="line" smooth="yes"/>
      <point x="790" y="329"/>
      <point x="799" y="334"/>
      <point x="802" y="345" type="curve"/>
      <point x="777" y="367"/>
      <point x="741" y="393"/>
      <point x="741" y="393" type="curve"/>
      <point x="708" y="359" type="line"/>
      <point x="217.54" y="359" type="line"/>
      <point x="271.98" y="401.55"/>
      <point x="320.64" y="450.49"/>
      <point x="357.73" y="504" type="curve"/>
      <point x="666.67" y="504" type="line"/>
      <point x="722.61" y="410.23"/>
      <point x="818.91" y="322.05"/>
      <point x="917" y="273" type="curve"/>
      <point x="923" y="293"/>
      <point x="938" y="304"/>
      <point x="960" y="308" type="curve"/>
      <point x="963" y="319" type="line"/>
      <point x="871.77" y="356.2"/>
      <point x="757.8" y="427.13"/>
      <point x="696.81" y="504" type="curve"/>
      <point x="931" y="504" type="line" smooth="yes"/>
      <point x="945" y="504"/>
      <point x="954" y="509"/>
      <point x="956" y="520" type="curve"/>
      <point x="931" y="546"/>
      <point x="890" y="580"/>
      <point x="890" y="580" type="curve"/>
      <point x="853" y="534" type="line"/>
      <point x="830.7" y="534" type="line"/>
      <point x="843" y="761" type="line"/>
      <point x="859" y="761"/>
      <point x="867" y="763"/>
      <point x="874" y="770" type="curve"/>
      <point x="820" y="821" type="line"/>
      <point x="792" y="791" type="line"/>
    </contour>
    <contour>
      <point x="242" y="139" type="line"/>
      <point x="242" y="-74" type="line"/>
      <point x="249" y="-74" type="line" smooth="yes"/>
      <point x="267" y="-74"/>
      <point x="287" y="-64"/>
      <point x="287" y="-60" type="curve" smooth="yes"/>
      <point x="287" y="-23" type="line"/>
      <point x="718" y="-23" type="line"/>
      <point x="718" y="-69" type="line"/>
      <point x="724" y="-69" type="line" smooth="yes"/>
      <point x="739" y="-69"/>
      <point x="762" y="-57"/>
      <point x="762" y="-51" type="curve" smooth="yes"/>
      <point x="762" y="78" type="line"/>
      <point x="779" y="81"/>
      <point x="795" y="89"/>
      <point x="801" y="96" type="curve"/>
      <point x="737" y="144" type="line"/>
      <point x="709" y="114" type="line"/>
      <point x="292" y="114" type="line"/>
    </contour>
    <contour>
      <point x="287" y="7" type="line"/>
      <point x="287" y="85" type="line"/>
      <point x="718" y="85" type="line"/>
      <point x="718" y="7" type="line"/>
    </contour>
    <contour>
      <point x="246" y="278" type="line"/>
      <point x="254" y="248" type="line"/>
      <point x="742" y="248" type="line" smooth="yes"/>
      <point x="755" y="248"/>
      <point x="763" y="253"/>
      <point x="766" y="264" type="curve"/>
      <point x="743" y="286"/>
      <point x="707" y="311"/>
      <point x="707" y="311" type="curve"/>
      <point x="677" y="278" type="line"/>
    </contour>
    <contour>
      <point x="246" y="196" type="line"/>
      <point x="254" y="167" type="line"/>
      <point x="742" y="167" type="line" smooth="yes"/>
      <point x="755" y="167"/>
      <point x="763" y="171"/>
      <point x="766" y="182" type="curve"/>
      <point x="743" y="204"/>
      <point x="707" y="230"/>
      <point x="707" y="230" type="curve"/>
      <point x="677" y="196" type="line"/>
    </contour>
    <contour>
      <point x="323" y="440" type="line"/>
      <point x="331" y="411" type="line"/>
      <point x="666" y="411" type="line" smooth="yes"/>
      <point x="680" y="411"/>
      <point x="689" y="416"/>
      <point x="691" y="427" type="curve"/>
      <point x="666" y="449"/>
      <point x="630" y="475"/>
      <point x="630" y="475" type="curve"/>
      <point x="597" y="440" type="line"/>
    </contour>
  </outline>
</glyph>
<glyph name="uni8F5D" format="2">
  <advance width="1000"/>
  <unicode hex="8F5D"/>
  <outline>
    <contour>
      <point x="44" y="502" type="line"/>
      <point x="53" y="473" type="line"/>
      <point x="275.57" y="473" type="line"/>
      <point x="222.37" y="392.35"/>
      <point x="128.69" y="308.64"/>
      <point x="35" y="256" type="curve"/>
      <point x="45" y="241" type="line"/>
      <point x="127.38" y="277.91"/>
      <point x="209.75" y="330.02"/>
      <point x="276.1" y="393.89" type="curve"/>
      <point x="283" y="368" type="line"/>
      <point x="479" y="368" type="line"/>
      <point x="479" y="318" type="line"/>
      <point x="289" y="318" type="line"/>
      <point x="239" y="343" type="line"/>
      <point x="239" y="98" type="line"/>
      <point x="246" y="98" type="line" smooth="yes"/>
      <point x="264" y="98"/>
      <point x="284" y="108"/>
      <point x="284" y="112" type="curve" smooth="yes"/>
      <point x="284" y="121" type="line"/>
      <point x="479" y="121" type="line"/>
      <point x="479" y="59" type="line"/>
      <point x="105" y="59" type="line"/>
      <point x="113" y="30" type="line"/>
      <point x="479" y="30" type="line"/>
      <point x="479" y="-76" type="line"/>
      <point x="488" y="-76" type="line" smooth="yes"/>
      <point x="504" y="-76"/>
      <point x="523" y="-64"/>
      <point x="523" y="-56" type="curve" smooth="yes"/>
      <point x="523" y="30" type="line"/>
      <point x="900" y="30" type="line" smooth="yes"/>
      <point x="914" y="30"/>
      <point x="923" y="35"/>
      <point x="926" y="45" type="curve"/>
      <point x="897" y="72"/>
      <point x="852" y="107"/>
      <point x="852" y="107" type="curve"/>
      <point x="812" y="59" type="line"/>
      <point x="523" y="59" type="line"/>
      <point x="523" y="121" type="line"/>
      <point x="717" y="121" type="line"/>
      <point x="717" y="99" type="line"/>
      <point x="723" y="99" type="line" smooth="yes"/>
      <point x="738" y="99"/>
      <point x="761" y="110"/>
      <point x="762" y="116" type="curve"/>
      <point x="762" y="285" type="line"/>
      <point x="776" y="287"/>
      <point x="790" y="294"/>
      <point x="795" y="301" type="curve"/>
      <point x="736" y="346" type="line"/>
      <point x="709" y="318" type="line"/>
      <point x="523" y="318" type="line"/>
      <point x="523" y="368" type="line"/>
      <point x="711" y="368" type="line" smooth="yes"/>
      <point x="725" y="368"/>
      <point x="734" y="373"/>
      <point x="737" y="384" type="curve"/>
      <point x="709" y="409"/>
      <point x="668" y="438"/>
      <point x="668" y="438" type="curve"/>
      <point x="631" y="398" type="line"/>
      <point x="523" y="398" type="line"/>
      <point x="523" y="430" type="line"/>
      <point x="542" y="433"/>
      <point x="550" y="440"/>
      <point x="552" y="452" type="curve"/>
      <point x="479" y="461" type="line"/>
      <point x="479" y="398" type="line"/>
      <point x="280.33" y="398" type="line"/>
      <point x="304.3" y="421.5"/>
      <point x="326.08" y="446.55"/>
      <point x="344.91" y="473" type="curve"/>
      <point x="677.44" y="473" type="line"/>
      <point x="732.32" y="379.18"/>
      <point x="826.82" y="298.39"/>
      <point x="924" y="255" type="curve"/>
      <point x="930" y="274"/>
      <point x="945" y="285"/>
      <point x="965" y="287" type="curve"/>
      <point x="968" y="299" type="line"/>
      <point x="875.56" y="330.11"/>
      <point x="764.97" y="396.77"/>
      <point x="707.11" y="473" type="curve"/>
      <point x="931" y="473" type="line" smooth="yes"/>
      <point x="945" y="473"/>
      <point x="954" y="478"/>
      <point x="956" y="489" type="curve"/>
      <point x="931" y="514"/>
      <point x="890" y="549"/>
      <point x="890" y="549" type="curve"/>
      <point x="853" y="502" type="line"/>
      <point x="828.77" y="502" type="line"/>
      <point x="843" y="761" type="line"/>
      <point x="859" y="761"/>
      <point x="867" y="764"/>
      <point x="874" y="771" type="curve"/>
      <point x="820" y="821" type="line"/>
      <point x="792" y="791" type="line"/>
      <point x="636" y="791" type="line"/>
      <point x="645" y="761" type="line"/>
      <point x="799.32" y="761" type="line"/>
      <point x="795.79" y="698" type="line"/>
      <point x="649" y="698" type="line"/>
      <point x="658" y="669" type="line"/>
      <point x="794.16" y="669" type="line"/>
      <point x="790.51" y="604" type="line"/>
      <point x="641" y="604" type="line"/>
      <point x="650" y="574" type="line"/>
      <point x="788.83" y="574" type="line"/>
      <point x="784.79" y="502" type="line"/>
      <point x="577.88" y="502" type="line"/>
      <point x="590" y="640" type="line"/>
      <point x="605" y="643"/>
      <point x="619" y="650"/>
      <point x="624" y="656" type="curve"/>
      <point x="566" y="701" type="line"/>
      <point x="538" y="674" type="line"/>
      <point x="448.79" y="674" type="line"/>
      <point x="450.7" y="692.28"/>
      <point x="452.45" y="711.25"/>
      <point x="454.05" y="730" type="curve"/>
      <point x="593" y="730" type="line" smooth="yes"/>
      <point x="607" y="730"/>
      <point x="616" y="735"/>
      <point x="618" y="746" type="curve"/>
      <point x="596" y="768"/>
      <point x="562" y="796"/>
      <point x="562" y="796" type="curve"/>
      <point x="532" y="760" type="line"/>
      <point x="456.51" y="760" type="line"/>
      <point x="457.76" y="775.72"/>
      <point x="458.92" y="790.91"/>
      <point x="460" y="805" type="curve"/>
      <point x="480" y="806"/>
      <point x="491" y="815"/>
      <point x="493" y="826" type="curve"/>
      <point x="417" y="836" type="line"/>
      <point x="416" y="784"/>
      <point x="408" y="681"/>
      <point x="398" y="628" type="curve"/>
      <point x="418" y="621"/>
      <point x="435" y="624"/>
      <point x="444" y="633" type="curve"/>
      <point x="444.48" y="636.6"/>
      <point x="444.94" y="640.28"/>
      <point x="445.4" y="644" type="curve"/>
      <point x="544.2" y="644" type="line"/>
      <point x="530.92" y="502" type="line"/>
      <point x="453.47" y="502" type="line"/>
      <point x="456.22" y="527.6"/>
      <point x="458.22" y="554.46"/>
      <point x="459" y="574" type="curve"/>
      <point x="475" y="578"/>
      <point x="483" y="585"/>
      <point x="484" y="596" type="curve"/>
      <point x="418" y="604" type="line"/>
      <point x="416.35" y="574.35"/>
      <point x="412.67" y="535.88"/>
      <point x="408.07" y="502" type="curve"/>
      <point x="218.38" y="502" type="line"/>
      <point x="214.61" y="575" type="line"/>
      <point x="353" y="575" type="line" smooth="yes"/>
      <point x="366" y="575"/>
      <point x="374" y="580"/>
      <point x="376" y="591" type="curve"/>
      <point x="358" y="613"/>
      <point x="326" y="638"/>
      <point x="326" y="638" type="curve"/>
      <point x="300" y="605" type="line"/>
      <point x="213.06" y="605" type="line"/>
      <point x="209.7" y="670" type="line"/>
      <point x="349" y="670" type="line" smooth="yes"/>
      <point x="362" y="670"/>
      <point x="370" y="675"/>
      <point x="373" y="686" type="curve"/>
      <point x="355" y="706"/>
      <point x="324" y="732"/>
      <point x="324" y="732" type="curve"/>
      <point x="299" y="699" type="line"/>
      <point x="208.2" y="699" type="line"/>
      <point x="205.43" y="752.69" type="line"/>
      <point x="259.88" y="762.34"/>
      <point x="318.64" y="777.59"/>
      <point x="352" y="789" type="curve"/>
      <point x="364" y="783"/>
      <point x="372" y="783"/>
      <point x="377" y="788" type="curve"/>
      <point x="333" y="835" type="line"/>
      <point x="309.89" y="821.69"/>
      <point x="268.63" y="800.55"/>
      <point x="228.12" y="782.54" type="curve"/>
      <point x="159" y="805" type="line"/>
      <point x="173.43" y="502" type="line"/>
    </contour>
    <contour>
      <point x="284" y="235" type="line"/>
      <point x="284" y="289" type="line"/>
      <point x="479" y="289" type="line"/>
      <point x="479" y="235" type="line"/>
    </contour>
    <contour>
      <point x="284" y="151" type="line"/>
      <point x="284" y="205" type="line"/>
      <point x="479" y="205" type="line"/>
      <point x="479" y="151" type="line"/>
    </contour>
    <contour>
      <point x="523" y="151" type="line"/>
      <point x="523" y="205" type="line"/>
      <point x="717" y="205" type="line"/>
      <point x="717" y="151" type="line"/>
    </contour>
    <contour>
      <point x="523" y="235" type="line"/>
      <point x="523" y="289" type="line"/>
      <point x="717" y="289" type="line"/>
      <point x="717" y="235" type="line"/>
    </contour>
  </outline>
</glyph>
<glyph name="uni9C6E" format="2">
  <advance width="1000"/>
  <unicode hex="9C6E"/>
  <outline>
    <contour>
      <point x="115" y="569" type="line"/>
      <point x="115" y="540" type="line"/>
      <point x="334" y="540" type="line"/>
      <point x="334" y="569" type="line"/>
    </contour>
    <contour>
      <point x="115" y="412" type="line"/>
      <point x="115" y="382" type="line"/>
      <point x="329" y="382" type="line"/>
      <point x="329" y="412" type="line"/>
    </contour>
    <contour>
      <point x="115" y="247" type="line"/>
      <point x="115" y="218" type="line"/>
      <point x="334" y="218" type="line"/>
      <point x="334" y="247" type="line"/>
    </contour>
    <contour>
      <point x="164" y="722" type="line"/>
      <point x="149" y="693" type="line"/>
      <point x="295" y="693" type="line"/>
      <point x="295" y="722" type="line"/>
    </contour>
    <contour>
      <point x="273" y="722" type="line"/>
      <point x="260" y="683"/>
      <point x="236" y="603"/>
      <point x="217" y="557" type="curve"/>
      <point x="236" y="557" type="line"/>
      <point x="261" y="592"/>
      <point x="297" y="655"/>
      <point x="316" y="688" type="curve"/>
      <point x="336" y="689"/>
      <point x="348" y="690"/>
      <point x="355" y="696" type="curve"/>
      <point x="295" y="756" type="line"/>
      <point x="262" y="722" type="line"/>
    </contour>
    <contour>
      <point x="200" y="569" type="line"/>
      <point x="200" y="235" type="line"/>
      <point x="243" y="235" type="line"/>
      <point x="243" y="569" type="line"/>
    </contour>
    <contour>
      <point x="168" y="138" type="curve"/>
      <point x="152" y="135" type="line"/>
      <point x="163" y="92"/>
      <point x="169" y="25"/>
      <point x="159" y="-27" type="curve"/>
      <point x="196" y="-74"/>
      <point x="254" y="21"/>
    </contour>
    <contour>
      <point x="237" y="151" type="curve"/>
      <point x="223" y="146" type="line"/>
      <point x="242" y="105"/>
      <point x="263" y="39"/>
      <point x="262" y="-11" type="curve"/>
      <point x="303" y="-53"/>
      <point x="352" y="43"/>
    </contour>
    <contour>
      <point x="309" y="162" type="curve"/>
      <point x="297" y="155" type="line"/>
      <point x="328" y="119"/>
      <point x="360" y="58"/>
      <point x="359" y="11" type="curve"/>
      <point x="404" y="-30"/>
      <point x="450" y="79"/>
    </contour>
    <contour>
      <point x="136" y="569" type="line"/>
      <point x="148" y="569" type="line"/>
      <point x="104" y="590" type="line"/>
      <point x="92" y="570" type="line"/>
      <point x="92" y="172" type="line"/>
      <point x="99" y="172" type="line" smooth="yes"/>
      <point x="120" y="172"/>
      <point x="136" y="185"/>
      <point x="136" y="190" type="curve" smooth="yes"/>
    </contour>
    <contour>
      <point x="89" y="136" type="line"/>
      <point x="96" y="76"/>
      <point x="80" y="4"/>
      <point x="54" y="-25" type="curve"/>
      <point x="40" y="-38"/>
      <point x="35" y="-57"/>
      <point x="44" y="-69" type="curve"/>
      <point x="57" y="-83"/>
      <point x="85" y="-71"/>
      <point x="98" y="-52" type="curve" smooth="yes"/>
      <point x="117" y="-23"/>
      <point x="131" y="47"/>
      <point x="107" y="136" type="curve"/>
    </contour>
    <contour>
      <point x="174" y="834" type="line"/>
      <point x="144" y="712"/>
      <point x="92" y="590"/>
      <point x="40" y="511" type="curve"/>
      <point x="55" y="500" type="line"/>
      <point x="118" y="571"/>
      <point x="176" y="681"/>
      <point x="215" y="791" type="curve"/>
      <point x="236" y="791"/>
      <point x="246" y="800"/>
      <point x="250" y="811" type="curve"/>
    </contour>
    <contour>
      <point x="308" y="569" type="line"/>
      <point x="308" y="184" type="line"/>
      <point x="316" y="184" type="line" smooth="yes"/>
      <point x="333" y="184"/>
      <point x="350" y="197"/>
      <point x="352" y="201" type="curve"/>
      <point x="352" y="532" type="line"/>
      <point x="368" y="535"/>
      <point x="382" y="542"/>
      <point x="389" y="550" type="curve"/>
      <point x="335" y="599" type="line"/>
      <point x="309" y="569" type="line"/>
    </contour>
    <contour>
      <point x="357" y="185" type="line"/>
      <point x="365" y="156" type="line"/>
      <point x="939" y="156" type="line" smooth="yes"/>
      <point x="953" y="156"/>
      <point x="961" y="161"/>
      <point x="964" y="171" type="curve"/>
      <point x="941" y="199"/>
      <point x="900" y="236"/>
      <point x="900" y="236" type="curve"/>
      <point x="866" y="185" type="line"/>
    </contour>
    <contour>
      <point x="412" y="766" type="line"/>
      <point x="421" y="171" type="line"/>
      <point x="463" y="171" type="line"/>
      <point x="455" y="721" type="line"/>
      <point x="477" y="724"/>
      <point x="488" y="729"/>
      <point x="491" y="738" type="curve"/>
    </contour>
    <contour>
      <point x="832" y="752" type="line"/>
      <point x="823" y="168" type="line"/>
      <point x="870" y="168" type="line"/>
      <point x="876" y="721" type="line"/>
      <point x="893" y="723"/>
      <point x="901" y="727"/>
      <point x="908" y="733" type="curve"/>
      <point x="851" y="784" type="line"/>
      <point x="824" y="752" type="line"/>
    </contour>
    <contour>
      <point x="679" y="558" type="line"/>
      <point x="669" y="170" type="line"/>
      <point x="712" y="170" type="line"/>
      <point x="721" y="526" type="line"/>
      <point x="734" y="529"/>
      <point x="747" y="535"/>
      <point x="751" y="541" type="curve"/>
      <point x="697" y="584" type="line"/>
      <point x="671" y="558" type="line"/>
    </contour>
    <contour>
      <point x="738" y="752" type="line"/>
      <point x="747" y="722" type="line"/>
      <point x="853" y="722" type="line"/>
      <point x="853" y="752" type="line"/>
    </contour>
    <contour>
      <point x="749" y="565" type="line"/>
      <point x="758" y="536" type="line"/>
      <point x="855" y="536" type="line"/>
      <point x="855" y="565" type="line"/>
    </contour>
    <contour>
      <point x="746" y="376" type="line"/>
      <point x="755" y="347" type="line"/>
      <point x="852" y="347" type="line"/>
      <point x="852" y="376" type="line"/>
    </contour>
    <contour>
      <point x="586" y="702" type="line"/>
      <point x="586" y="673" type="line"/>
      <point x="716" y="673" type="line" smooth="yes"/>
      <point x="729" y="673"/>
      <point x="738" y="678"/>
      <point x="741" y="689" type="curve"/>
      <point x="718" y="711"/>
      <point x="683" y="740"/>
      <point x="683" y="740" type="curve"/>
      <point x="652" y="702" type="line"/>
    </contour>
    <contour>
      <point x="584" y="558" type="line"/>
      <point x="584" y="528" type="line"/>
      <point x="695" y="528" type="line"/>
      <point x="695" y="558" type="line"/>
    </contour>
    <contour>
      <point x="434" y="565" type="line"/>
      <point x="434" y="536" type="line"/>
      <point x="535" y="536" type="line" smooth="yes"/>
      <point x="548" y="536"/>
      <point x="557" y="541"/>
      <point x="559" y="552" type="curve"/>
      <point x="541" y="572"/>
      <point x="511" y="596"/>
      <point x="511" y="596" type="curve"/>
      <point x="487" y="565" type="line"/>
    </contour>
    <contour>
      <point x="444" y="376" type="line"/>
      <point x="444" y="347" type="line"/>
      <point x="540" y="347" type="line" smooth="yes"/>
      <point x="554" y="347"/>
      <point x="562" y="352"/>
      <point x="565" y="363" type="curve"/>
      <point x="546" y="383"/>
      <point x="517" y="407"/>
      <point x="517" y="407" type="curve"/>
      <point x="493" y="376" type="line"/>
    </contour>
    <contour>
      <point x="508" y="124" type="line"/>
      <point x="473" y="65"/>
      <point x="397" y="-11"/>
      <point x="324" y="-56" type="curve"/>
      <point x="335" y="-71" type="line"/>
      <point x="419" y="-33"/>
      <point x="500" y="29"/>
      <point x="543" y="80" type="curve"/>
      <point x="565" y="75"/>
      <point x="572" y="79"/>
      <point x="579" y="89" type="curve"/>
    </contour>
    <contour>
      <point x="726" y="120" type="curve"/>
      <point x="716" y="109" type="line"/>
      <point x="782" y="69"/>
      <point x="871" y="-8"/>
      <point x="899" y="-67" type="curve"/>
      <point x="964" y="-99"/>
      <point x="982" y="39"/>
    </contour>
    <contour>
      <point x="515" y="804" type="line"/>
      <point x="494" y="778"/>
      <point x="456" y="736"/>
      <point x="431" y="713" type="curve"/>
      <point x="440" y="703" type="line"/>
      <point x="470" y="718"/>
      <point x="512" y="744"/>
      <point x="537" y="759" type="curve"/>
      <point x="556" y="754"/>
      <point x="564" y="756"/>
      <point x="568" y="762" type="curve"/>
    </contour>
    <contour>
      <point x="575" y="445" type="line"/>
      <point x="573" y="363"/>
      <point x="570" y="246"/>
      <point x="563" y="169" type="curve"/>
      <point x="605" y="169" type="line"/>
      <point x="610" y="247"/>
      <point x="614" y="346"/>
      <point x="616" y="414" type="curve"/>
      <point x="632" y="417"/>
      <point x="639" y="425"/>
      <point x="641" y="435" type="curve"/>
    </contour>
    <contour>
      <point x="648" y="816" type="curve"/>
      <point x="573" y="828" type="line"/>
      <point x="576" y="742"/>
      <point x="565" y="572"/>
      <point x="558" y="496" type="curve"/>
      <point x="575" y="490"/>
      <point x="594" y="491"/>
      <point x="602" y="498" type="curve"/>
      <point x="607" y="586"/>
      <point x="615" y="731"/>
      <point x="615" y="807" type="curve"/>
      <point x="604" y="792" type="line"/>
      <point x="632" y="793"/>
      <point x="644" y="804"/>
    </contour>
  </outline>
</glyph>
<glyph name="uni9E12" format="2">
  <advance width="1000"/>
  <unicode hex="9E12"/>
  <outline>
    <contour>
      <point x="262" y="113" type="line"/>
      <point x="262" y="84" type="line"/>
      <point x="867" y="84" type="line"/>
      <point x="867" y="113" type="line"/>
    </contour>
    <contour>
      <point x="263" y="188" type="line"/>
      <point x="263" y="159" type="line"/>
      <point x="913" y="159" type="line" smooth="yes"/>
      <point x="926" y="159"/>
      <point x="936" y="164"/>
      <point x="938" y="174" type="curve"/>
      <point x="910" y="201"/>
      <point x="866" y="236"/>
      <point x="866" y="236" type="curve"/>
      <point x="828" y="188" type="line"/>
    </contour>
    <contour>
      <point x="234" y="419" type="line"/>
      <point x="234" y="55" type="line"/>
      <point x="241" y="55" type="line" smooth="yes"/>
      <point x="259" y="55"/>
      <point x="278" y="66"/>
      <point x="278" y="70" type="curve" smooth="yes"/>
      <point x="278" y="389" type="line"/>
      <point x="738" y="389" type="line"/>
      <point x="738" y="419" type="line"/>
      <point x="283" y="419" type="line"/>
      <point x="251" y="434" type="line"/>
      <point x="234" y="423" type="line"/>
    </contour>
    <contour>
      <point x="727" y="410" type="line"/>
      <point x="727" y="206" type="line"/>
      <point x="733" y="206" type="line" smooth="yes"/>
      <point x="748" y="206"/>
      <point x="770" y="218"/>
      <point x="771" y="225" type="curve"/>
      <point x="771" y="376" type="line"/>
      <point x="786" y="378"/>
      <point x="800" y="385"/>
      <point x="805" y="392" type="curve"/>
      <point x="746" y="437" type="line"/>
      <point x="719" y="410" type="line"/>
    </contour>
    <contour>
      <point x="257" y="343" type="line"/>
      <point x="257" y="313" type="line"/>
      <point x="740" y="313" type="line"/>
      <point x="740" y="343" type="line"/>
    </contour>
    <contour>
      <point x="257" y="266" type="line"/>
      <point x="257" y="236" type="line"/>
      <point x="740" y="236" type="line"/>
      <point x="740" y="266" type="line"/>
    </contour>
    <contour>
      <point x="323" y="57" type="curve"/>
      <point x="309" y="53" type="line"/>
      <point x="318" y="26"/>
      <point x="326" y="-19"/>
      <point x="322" y="-53" type="curve"/>
      <point x="357" y="-92"/>
      <point x="412" y="-22"/>
    </contour>
    <contour>
      <point x="467" y="59" type="curve"/>
      <point x="455" y="52" type="line"/>
      <point x="479" y="28"/>
      <point x="502" y="-14"/>
      <point x="504" y="-47" type="curve"/>
      <point x="548" y="-84"/>
      <point x="592" y="8"/>
    </contour>
    <contour>
      <point x="852" y="113" type="line"/>
      <point x="846" y="39"/>
      <point x="834" y="1"/>
      <point x="822" y="-9" type="curve" smooth="yes"/>
      <point x="816" y="-13"/>
      <point x="809" y="-15"/>
      <point x="796" y="-15" type="curve" smooth="yes"/>
      <point x="781" y="-15"/>
      <point x="744" y="-12"/>
      <point x="720" y="-10" type="curve"/>
      <point x="720" y="-28" type="line"/>
      <point x="739" y="-30"/>
      <point x="759" y="-35"/>
      <point x="767" y="-41" type="curve" smooth="yes"/>
      <point x="776" y="-48"/>
      <point x="778" y="-62"/>
      <point x="778" y="-72" type="curve"/>
      <point x="802" y="-72"/>
      <point x="827" y="-66"/>
      <point x="844" y="-54" type="curve" smooth="yes"/>
      <point x="871" y="-36"/>
      <point x="886" y="4"/>
      <point x="892" y="82" type="curve"/>
      <point x="910" y="84"/>
      <point x="923" y="88"/>
      <point x="929" y="95" type="curve"/>
      <point x="869" y="143" type="line"/>
      <point x="842" y="113" type="line"/>
    </contour>
    <contour>
      <point x="184" y="62" type="line"/>
      <point x="178" y="20"/>
      <point x="134" y="-12"/>
      <point x="97" y="-21" type="curve"/>
      <point x="81" y="-28"/>
      <point x="70" y="-43"/>
      <point x="76" y="-58" type="curve" smooth="yes"/>
      <point x="84" y="-75"/>
      <point x="112" y="-74"/>
      <point x="133" y="-64" type="curve"/>
      <point x="169" y="-49"/>
      <point x="212" y="-11"/>
      <point x="203" y="62" type="curve"/>
    </contour>
    <contour>
      <point x="479" y="489" type="line"/>
      <point x="473" y="464"/>
      <point x="463" y="429"/>
      <point x="455" y="409" type="curve"/>
      <point x="477" y="409" type="line"/>
      <point x="492" y="422"/>
      <point x="505" y="435"/>
      <point x="516" y="448" type="curve"/>
      <point x="536" y="448"/>
      <point x="549" y="456"/>
      <point x="553" y="468" type="curve"/>
    </contour>
    <contour>
      <point x="630" y="63" type="curve"/>
      <point x="620" y="54" type="line"/>
      <point x="643" y="34"/>
      <point x="659" y="-5"/>
      <point x="663" y="-27" type="curve"/>
      <point x="679" y="-62"/>
      <point x="716" y="-38"/>
      <point x="704" y="-5" type="curve" smooth="yes"/>
      <point x="694" y="23"/>
      <point x="666" y="46"/>
    </contour>
    <contour>
      <point x="50" y="523" type="line"/>
      <point x="59" y="494" type="line"/>
      <point x="928" y="494" type="line" smooth="yes"/>
      <point x="942" y="494"/>
      <point x="951" y="499"/>
      <point x="953" y="509" type="curve"/>
      <point x="928" y="533"/>
      <point x="889" y="563"/>
      <point x="889" y="563" type="curve"/>
      <point x="854" y="523" type="line"/>
    </contour>
    <contour>
      <point x="311" y="510" type="line"/>
      <point x="260" y="432"/>
      <point x="153" y="360"/>
      <point x="39" y="317" type="curve"/>
      <point x="47" y="301" type="line"/>
      <point x="175" y="339"/>
      <point x="300" y="409"/>
      <point x="368" y="510" type="curve"/>
    </contour>
    <contour>
      <point x="144" y="799" type="line"/>
      <point x="160" y="497" type="line"/>
      <point x="204" y="497" type="line"/>
      <point x="190" y="756" type="line"/>
      <point x="210" y="760"/>
      <point x="222" y="765"/>
      <point x="225" y="773" type="curve"/>
    </contour>
    <contour>
      <point x="648" y="696" type="line"/>
      <point x="657" y="666" type="line"/>
      <point x="829" y="666" type="line"/>
      <point x="829" y="696" type="line"/>
    </contour>
    <contour>
      <point x="427" y="692" type="line"/>
      <point x="427" y="662" type="line"/>
      <point x="580" y="662" type="line"/>
      <point x="580" y="692" type="line"/>
    </contour>
    <contour>
      <point x="646" y="607" type="line"/>
      <point x="655" y="577" type="line"/>
      <point x="823" y="577" type="line"/>
      <point x="823" y="607" type="line"/>
    </contour>
    <contour>
      <point x="636" y="784" type="line"/>
      <point x="645" y="755" type="line"/>
      <point x="841" y="755" type="line"/>
      <point x="841" y="784" type="line"/>
    </contour>
    <contour>
      <point x="323" y="827" type="line"/>
      <point x="286" y="810"/>
      <point x="212" y="782"/>
      <point x="157" y="765" type="curve"/>
      <point x="163" y="748" type="line"/>
      <point x="218" y="754"/>
      <point x="293" y="765"/>
      <point x="336" y="775" type="curve"/>
      <point x="356" y="766"/>
      <point x="370" y="764"/>
      <point x="379" y="773" type="curve"/>
    </contour>
    <contour>
      <point x="415" y="835" type="line"/>
      <point x="415" y="791"/>
      <point x="407" y="686"/>
      <point x="398" y="645" type="curve"/>
      <point x="420" y="640"/>
      <point x="437" y="643"/>
      <point x="446" y="651" type="curve"/>
      <point x="450" y="694"/>
      <point x="455" y="767"/>
      <point x="456" y="800" type="curve"/>
      <point x="481" y="804"/>
      <point x="490" y="814"/>
      <point x="493" y="827" type="curve"/>
    </contour>
    <contour>
      <point x="411" y="628" type="line"/>
      <point x="410" y="590"/>
      <point x="406" y="536"/>
      <point x="403" y="505" type="curve"/>
      <point x="448" y="505" type="line"/>
      <point x="450" y="533"/>
      <point x="452" y="569"/>
      <point x="453" y="598" type="curve"/>
      <point x="472" y="600"/>
      <point x="483" y="611"/>
      <point x="485" y="624" type="curve"/>
    </contour>
    <contour>
      <point x="673" y="508" type="curve"/>
      <point x="655" y="499" type="line"/>
      <point x="708" y="415"/>
      <point x="818" y="348"/>
      <point x="925" y="310" type="curve"/>
      <point x="931" y="331"/>
      <point x="944" y="343"/>
      <point x="963" y="345" type="curve"/>
      <point x="964" y="356" type="line"/>
      <point x="853" y="381"/>
      <point x="728" y="437"/>
    </contour>
    <contour>
      <point x="558" y="692" type="line"/>
      <point x="547" y="501" type="line"/>
      <point x="590" y="501" type="line"/>
      <point x="599" y="660" type="line"/>
      <point x="614" y="661"/>
      <point x="623" y="664"/>
      <point x="629" y="671" type="curve"/>
      <point x="574" y="720" type="line"/>
      <point x="547" y="692" type="line"/>
    </contour>
    <contour>
      <point x="808" y="783" type="line"/>
      <point x="786" y="497" type="line"/>
      <point x="831" y="497" type="line"/>
      <point x="851" y="752" type="line"/>
      <point x="867" y="754"/>
      <point x="875" y="756"/>
      <point x="882" y="762" type="curve"/>
      <point x="827" y="813" type="line"/>
      <point x="799" y="783" type="line"/>
    </contour>
    <contour>
      <point x="322" y="642" type="curve"/>
      <point x="294" y="607" type="line"/>
      <point x="189" y="607" type="line"/>
      <point x="189" y="577" type="line"/>
      <point x="350" y="577" type="line" smooth="yes"/>
      <point x="362" y="577"/>
      <point x="371" y="582"/>
      <point x="373" y="593" type="curve"/>
      <point x="355" y="616"/>
      <point x="322" y="642"/>
    </contour>
    <contour>
      <point x="314" y="731" type="curve"/>
      <point x="286" y="696" type="line"/>
      <point x="178" y="696" type="line"/>
      <point x="178" y="666" type="line"/>
      <point x="341" y="666" type="line" smooth="yes"/>
      <point x="353" y="666"/>
      <point x="362" y="671"/>
      <point x="365" y="682" type="curve"/>
      <point x="345" y="704"/>
      <point x="314" y="731"/>
    </contour>
    <contour>
      <point x="582" y="804" type="curve"/>
      <point x="551" y="768" type="line"/>
      <point x="432" y="768" type="line"/>
      <point x="432" y="738" type="line"/>
      <point x="613" y="738" type="line" smooth="yes"/>
      <point x="626" y="738"/>
      <point x="635" y="743"/>
      <point x="637" y="754" type="curve"/>
      <point x="615" y="777"/>
      <point x="582" y="804"/>
    </contour>
  </outline>
</glyph>
<glyph name="u2148A" format="2">
  <advance width="1000"/>
  <unicode hex="2148A"/>
  <outline>
    <contour>
      <point x="550" y="281" type="curve"/>
      <point x="474" y="290" type="line"/>
      <point x="474" y="-24" type="line"/>
      <point x="518" y="-24" type="line"/>
      <point x="518" y="257" type="line"/>
      <point x="539" y="259"/>
      <point x="548" y="268"/>
    </contour>
    <contour>
      <point x="841" y="43" type="curve"/>
      <point x="801" y="-6" type="line"/>
      <point x="94" y="-6" type="line"/>
      <point x="103" y="-36" type="line"/>
      <point x="889" y="-36" type="line" smooth="yes"/>
      <point x="903" y="-36"/>
      <point x="912" y="-31"/>
      <point x="915" y="-20" type="curve"/>
      <point x="886" y="8"/>
      <point x="841" y="43"/>
    </contour>
    <contour>
      <point x="704" y="204" type="curve"/>
      <point x="669" y="163" type="line"/>
      <point x="238" y="163" type="line"/>
      <point x="246" y="133" type="line"/>
      <point x="745" y="133" type="line" smooth="yes"/>
      <point x="759" y="133"/>
      <point x="768" y="138"/>
      <point x="770" y="149" type="curve"/>
      <point x="744" y="174"/>
      <point x="704" y="204"/>
    </contour>
    <contour>
      <point x="390" y="786" type="curve"/>
      <point x="334" y="832" type="line"/>
      <point x="303" y="807"/>
      <point x="237" y="765"/>
      <point x="189" y="740" type="curve"/>
      <point x="195" y="728" type="line"/>
      <point x="256" y="742"/>
      <point x="326" y="767"/>
      <point x="364" y="784" type="curve"/>
      <point x="376" y="779"/>
      <point x="385" y="780"/>
    </contour>
    <contour>
      <point x="368" y="341" type="curve"/>
      <point x="368" y="357" type="line"/>
      <point x="316" y="357" type="line"/>
      <point x="259" y="261"/>
      <point x="163" y="178"/>
      <point x="49" y="118" type="curve"/>
      <point x="60" y="100" type="line"/>
      <point x="192" y="155"/>
      <point x="301" y="237"/>
    </contour>
    <contour>
      <point x="665" y="353" type="curve"/>
      <point x="649" y="343" type="line"/>
      <point x="704" y="245"/>
      <point x="809" y="169"/>
      <point x="908" y="127" type="curve"/>
      <point x="915" y="150"/>
      <point x="932" y="164"/>
      <point x="953" y="167" type="curve"/>
      <point x="954" y="178" type="line"/>
      <point x="848" y="206"/>
      <point x="724" y="270"/>
    </contour>
    <contour>
      <point x="786" y="774" type="line"/>
      <point x="795" y="774" type="line"/>
      <point x="774" y="344" type="line"/>
      <point x="818" y="344" type="line"/>
      <point x="837" y="743" type="line"/>
      <point x="853" y="744"/>
      <point x="862" y="748"/>
      <point x="868" y="754" type="curve"/>
      <point x="814" y="805" type="line"/>
    </contour>
    <contour>
      <point x="247" y="756" type="curve"/>
      <point x="165" y="788" type="line"/>
      <point x="180" y="339" type="line"/>
      <point x="225" y="339" type="line"/>
      <point x="211" y="740" type="line"/>
      <point x="231" y="743"/>
      <point x="244" y="749"/>
    </contour>
    <contour>
      <point x="810" y="503" type="line"/>
      <point x="643" y="503" type="line"/>
      <point x="652" y="473" type="line"/>
      <point x="810" y="473" type="line"/>
    </contour>
    <contour>
      <point x="814" y="637" type="line"/>
      <point x="643" y="637" type="line"/>
      <point x="652" y="607" type="line"/>
      <point x="814" y="607" type="line"/>
    </contour>
    <contour>
      <point x="825" y="774" type="line"/>
      <point x="625" y="774" type="line"/>
      <point x="634" y="744" type="line"/>
      <point x="825" y="744" type="line"/>
    </contour>
    <contour>
      <point x="884" y="412" type="curve"/>
      <point x="840" y="358" type="line"/>
      <point x="50" y="358" type="line"/>
      <point x="59" y="328" type="line"/>
      <point x="940" y="328" type="line" smooth="yes"/>
      <point x="953" y="328"/>
      <point x="963" y="333"/>
      <point x="966" y="344" type="curve"/>
      <point x="935" y="374"/>
      <point x="884" y="412"/>
    </contour>
    <contour>
      <point x="319" y="538" type="curve"/>
      <point x="291" y="503" type="line"/>
      <point x="192" y="503" type="line"/>
      <point x="192" y="473" type="line"/>
      <point x="350" y="473" type="line" smooth="yes"/>
      <point x="362" y="473"/>
      <point x="371" y="478"/>
      <point x="374" y="489" type="curve"/>
      <point x="353" y="512"/>
      <point x="319" y="538"/>
    </contour>
    <contour>
      <point x="316" y="672" type="curve"/>
      <point x="288" y="637" type="line"/>
      <point x="189" y="637" type="line"/>
      <point x="189" y="607" type="line"/>
      <point x="347" y="607" type="line" smooth="yes"/>
      <point x="359" y="607"/>
      <point x="368" y="612"/>
      <point x="371" y="623" type="curve"/>
      <point x="350" y="646"/>
      <point x="316" y="672"/>
    </contour>
    <contour>
      <point x="425" y="717" type="line"/>
      <point x="425" y="687" type="line"/>
      <point x="613" y="687" type="line" smooth="yes"/>
      <point x="626" y="687"/>
      <point x="635" y="692"/>
      <point x="637" y="703" type="curve"/>
      <point x="616" y="726"/>
      <point x="581" y="753"/>
      <point x="581" y="753" type="curve"/>
      <point x="551" y="717" type="line"/>
    </contour>
    <contour>
      <point x="427" y="604" type="line"/>
      <point x="427" y="575" type="line"/>
      <point x="575" y="575" type="line"/>
      <point x="575" y="604" type="line"/>
    </contour>
    <contour>
      <point x="418" y="811" type="line"/>
      <point x="418" y="753"/>
      <point x="403" y="607"/>
      <point x="392" y="553" type="curve"/>
      <point x="412" y="548"/>
      <point x="430" y="550"/>
      <point x="438" y="558" type="curve"/>
      <point x="448" y="624"/>
      <point x="456" y="728"/>
      <point x="459" y="776" type="curve"/>
      <point x="485" y="779"/>
      <point x="493" y="790"/>
      <point x="496" y="804" type="curve"/>
    </contour>
    <contour>
      <point x="413" y="525" type="line"/>
      <point x="408" y="471"/>
      <point x="397" y="388"/>
      <point x="390" y="347" type="curve"/>
      <point x="434" y="347" type="line"/>
      <point x="439" y="386"/>
      <point x="448" y="450"/>
      <point x="452" y="493" type="curve"/>
      <point x="471" y="494"/>
      <point x="482" y="505"/>
      <point x="484" y="518" type="curve"/>
    </contour>
    <contour>
      <point x="557" y="604" type="line"/>
      <point x="541" y="348" type="line"/>
      <point x="583" y="348" type="line"/>
      <point x="597" y="574" type="line"/>
      <point x="612" y="575"/>
      <point x="620" y="578"/>
      <point x="627" y="585" type="curve"/>
      <point x="575" y="633" type="line"/>
      <point x="548" y="604" type="line"/>
    </contour>
  </outline>
</glyph>
